<svg width="61" height="40" viewBox="0 0 61 40" fill="none" xmlns="http://www.w3.org/2000/svg">
<g id="Frame 177095">
<path id="Vector" fill-rule="evenodd" clip-rule="evenodd" d="M0.371972 15.754C-1.65828 27.2514 4.76558 38.4457 16.143 40V30.0851C8.21186 26.4637 8.5282 13.3116 16.143 9.88856V0C7.9963 1.1549 1.7933 7.70309 0.371972 15.754Z" fill="white"/>
<path id="Vector_2" fill-rule="evenodd" clip-rule="evenodd" d="M17.9188 15.754C15.8887 27.2514 22.3124 38.4457 33.6898 40V30.0851C25.7585 26.4637 26.0748 13.3116 33.6898 9.88856V0C25.5429 1.1549 19.3401 7.70309 17.9188 15.754Z" fill="white"/>
<path id="Vector_3" fill-rule="evenodd" clip-rule="evenodd" d="M37.75 39.2628V0.734375H60.9476V9.19431H47.813V15.8763H60.2061V24.1208H47.813V30.641H60.9476V39.2628H37.75Z" fill="white"/>
</g>
</svg>
