<svg width="20" height="20" viewBox="0 0 20 20" fill="none" xmlns="http://www.w3.org/2000/svg">
<g id="&#208;&#152;&#208;&#186;&#208;&#190;&#208;&#189;&#208;&#186;&#208;&#184; &#209;&#135;&#208;&#181;&#209;&#128;&#208;&#189;&#209;&#139;&#208;&#181; / &#208;&#188;&#208;&#181;&#209;&#130;&#208;&#186;&#208;&#176;">
<path id="Vector" d="M10.0004 1.66671C9.11943 1.64678 8.2436 1.80559 7.42575 2.13357C6.6079 2.46154 5.86501 2.95187 5.24194 3.57495C4.61887 4.19802 4.12854 4.94091 3.80056 5.75876C3.47259 6.57661 3.31377 7.45244 3.3337 8.33337C3.3337 13.0625 9.47953 18.0334 9.74203 18.2417C9.81508 18.301 9.9063 18.3333 10.0004 18.3333C10.0944 18.3333 10.1857 18.301 10.2587 18.2417C10.5212 18.0334 16.667 13.0625 16.667 8.33337C16.687 7.45244 16.5282 6.57661 16.2002 5.75876C15.8722 4.94091 15.3819 4.19802 14.7588 3.57495C14.1357 2.95187 13.3928 2.46154 12.575 2.13357C11.7571 1.80559 10.8813 1.64678 10.0004 1.66671ZM6.87537 7.69587C6.87537 7.07781 7.05864 6.47362 7.40202 5.95972C7.7454 5.44581 8.23346 5.04527 8.80448 4.80875C9.3755 4.57223 10.0038 4.51034 10.61 4.63092C11.2162 4.7515 11.773 5.04913 12.2101 5.48617C12.6471 5.9232 12.9447 6.48003 13.0653 7.08622C13.1859 7.69241 13.124 8.32074 12.8875 8.89176C12.651 9.46278 12.2504 9.95084 11.7365 10.2942C11.2226 10.6376 10.6184 10.8209 10.0004 10.8209C9.1719 10.8198 8.37769 10.4902 7.79188 9.90437C7.20606 9.31855 6.87647 8.52434 6.87537 7.69587Z" fill="white"/>
</g>
</svg>
