<svg width="18" height="13" viewBox="0 0 18 13" fill="none" xmlns="http://www.w3.org/2000/svg">
<g id="Group">
<path id="Vector" d="M11.9318 6.59225L18 10.4285V2.594L11.9318 6.59225ZM0 2.594V10.4285L6.06825 6.59225L0 2.594ZM16.875 0.3125H1.125C0.563625 0.3125 0.118125 0.731 0.03375 1.26988L9 7.17725L17.9662 1.26988C17.8819 0.731 17.4364 0.3125 16.875 0.3125ZM10.9012 7.27175L9.30937 8.32025C9.21749 8.3806 9.10993 8.41267 9 8.4125C8.892 8.4125 8.78512 8.38212 8.69063 8.32025L7.09875 7.27063L0.036 11.738C0.122625 12.2724 0.565875 12.6875 1.125 12.6875H16.875C17.4341 12.6875 17.8774 12.2724 17.964 11.738L10.9012 7.27175Z" fill="white"/>
</g>
</svg>
