<svg width="60" height="60" viewBox="0 0 60 60" fill="none" xmlns="http://www.w3.org/2000/svg">
<g id="&#208;&#152;&#208;&#186;&#208;&#190;&#208;&#189;&#208;&#186;&#208;&#184; &#209;&#135;&#208;&#181;&#209;&#128;&#208;&#189;&#209;&#139;&#208;&#181; / &#208;&#188;&#208;&#181;&#209;&#130;&#208;&#186;&#208;&#176;">
<path id="Vector" d="M29.9991 5.00012C27.3563 4.94033 24.7288 5.41678 22.2753 6.40071C19.8218 7.38463 17.5931 8.85562 15.7239 10.7248C13.8546 12.5941 12.3837 14.8227 11.3997 17.2763C10.4158 19.7298 9.93935 22.3573 9.99915 25.0001C9.99915 39.1876 28.4366 54.1001 29.2241 54.7251C29.4433 54.9029 29.7169 55 29.9991 55C30.2814 55 30.555 54.9029 30.7742 54.7251C31.5617 54.1001 49.9992 39.1876 49.9992 25.0001C50.0589 22.3573 49.5825 19.7298 48.5986 17.2763C47.6146 14.8227 46.1437 12.5941 44.2744 10.7248C42.4052 8.85562 40.1765 7.38463 37.723 6.40071C35.2695 5.41678 32.642 4.94033 29.9991 5.00012ZM20.6241 23.0876C20.6241 21.2334 21.174 19.4209 22.2041 17.8792C23.2343 16.3374 24.6984 15.1358 26.4115 14.4263C28.1245 13.7167 30.0095 13.531 31.8281 13.8928C33.6467 14.2545 35.3172 15.1474 36.6283 16.4585C37.9394 17.7696 38.8323 19.4401 39.194 21.2587C39.5557 23.0772 39.3701 24.9622 38.6605 26.6753C37.9509 28.3883 36.7493 29.8525 35.2076 30.8827C33.6659 31.9128 31.8533 32.4626 29.9991 32.4626C27.5138 32.4593 25.1311 31.4705 23.3737 29.7131C21.6162 27.9557 20.6275 25.573 20.6241 23.0876Z" fill="#D4D727"/>
</g>
</svg>
