<svg width="56" height="56" viewBox="0 0 56 56" fill="none" xmlns="http://www.w3.org/2000/svg">
<g id="Wallet">
<path id="Vector" d="M44.3385 20.2987H37.8052C33.6052 20.2987 30.1052 23.7987 30.1052 27.9987V28.232C30.1052 32.432 33.6052 35.932 37.8052 35.932H42.0052V37.332C42.0052 40.132 39.9052 42.232 37.5719 42.232H13.7719C11.4385 41.9987 9.33854 39.8987 9.33854 37.0987V18.8987C9.33854 16.0987 11.4385 13.9987 13.7719 13.9987H37.5719C39.2052 13.9987 40.8385 14.932 41.5385 16.7987C42.0052 17.9654 43.4052 18.432 44.5719 17.9654C45.7385 17.4987 46.2052 16.0987 45.7385 14.932C44.3385 11.432 41.0719 9.33203 37.5719 9.33203H13.7719C8.87188 9.33203 4.67188 13.532 4.67188 18.8987V37.0987C4.67188 42.4654 8.87188 46.6654 13.7719 46.6654H37.5719C42.7052 46.6654 46.6719 42.4654 46.6719 37.0987V35.232C48.7719 34.2987 50.1719 32.1987 50.1719 29.8654V26.132C50.1719 22.8654 47.6052 20.2987 44.3385 20.2987ZM34.7719 28.232V27.7654C34.7719 26.132 36.1719 24.732 37.8052 24.732H44.3385C45.0385 24.732 45.5052 25.1987 45.5052 25.8987V29.8654C45.5052 30.5654 45.0385 31.032 44.3385 31.032H37.8052C36.1719 31.032 34.7719 29.8654 34.7719 28.232Z" fill="#D4D727"/>
</g>
</svg>
