<svg width="56" height="56" viewBox="0 0 56 56" fill="none" xmlns="http://www.w3.org/2000/svg">
<g id="Monitor">
<path id="Vector" d="M47.3615 41.3291H8.62812C5.12812 41.3291 2.32812 38.5291 2.32812 35.0291V16.3625C2.32812 12.8625 5.12812 10.0625 8.62812 10.0625H47.3615C50.8615 10.0625 53.6615 12.8625 53.6615 16.3625V35.0291C53.6615 38.5291 50.8615 41.3291 47.3615 41.3291ZM8.62812 14.7292C7.69479 14.7292 6.99479 15.4292 6.99479 16.3625V35.0291C6.99479 35.9625 7.69479 36.6625 8.62812 36.6625H47.3615C48.2948 36.6625 48.9948 35.9625 48.9948 35.0291V16.3625C48.9948 15.4292 48.2948 14.7292 47.3615 14.7292H8.62812Z" fill="white"/>
<path id="Vector_2" d="M36.3989 49.026H19.599C18.199 49.026 17.2656 48.0927 17.2656 46.6927C17.2656 45.2927 18.199 44.3594 19.599 44.3594H36.6322C38.0322 44.3594 38.9656 45.2927 38.9656 46.6927C38.9656 48.0927 37.7989 49.026 36.3989 49.026Z" fill="white"/>
</g>
</svg>
