<svg width="56" height="56" viewBox="0 0 56 56" fill="none" xmlns="http://www.w3.org/2000/svg">
<g id="Database">
<path id="Vector" d="M27.9981 4.55469C23.8545 4.55469 20.2113 5.27607 17.5943 6.48826C14.9921 7.69357 13.3281 9.42567 13.3281 11.478V44.518C13.3281 46.5704 14.9921 48.3025 17.5943 49.5078C20.2113 50.72 23.8545 51.4414 27.9981 51.4414C32.1418 51.4414 35.7849 50.72 38.402 49.5078C41.0041 48.3025 42.6681 46.5704 42.6681 44.518V11.478C42.6681 9.42531 40.9978 7.69331 38.3931 6.48821C35.7733 5.2761 32.1302 4.55469 27.9981 4.55469ZM39.8348 44.518C39.8348 44.8686 39.6091 45.3049 39.0825 45.778C38.5622 46.2453 37.7809 46.7175 36.7551 47.1393C34.7054 47.9821 31.7171 48.608 27.9981 48.608C24.2791 48.608 21.2908 47.9821 19.2411 47.1393C18.2153 46.7175 17.434 46.2453 16.9138 45.778C16.3871 45.3049 16.1615 44.8686 16.1615 44.518V37.6682C19.7683 39.6769 23.8693 40.6347 27.9982 40.4283C32.1268 40.6316 36.2269 39.6738 39.8348 37.6678V44.518ZM39.8348 33.5047C39.8348 33.8553 39.6091 34.2916 39.0825 34.7646C38.5622 35.2319 37.7809 35.7042 36.7551 36.126C34.7054 36.9688 31.7171 37.5947 27.9981 37.5947C24.2791 37.5947 21.2908 36.9688 19.2411 36.126C18.2153 35.7042 17.434 35.2319 16.9138 34.7646C16.3871 34.2916 16.1615 33.8553 16.1615 33.5047V26.6549C19.7683 28.6636 23.8693 29.6214 27.9982 29.415C32.1268 29.6182 36.2269 28.6605 39.8348 26.6545V33.5047ZM39.8348 22.4914C39.8348 22.8419 39.6091 23.2782 39.0825 23.7513C38.5622 24.2186 37.7809 24.6908 36.7551 25.1126C34.7054 25.9554 31.7171 26.5814 27.9981 26.5814C24.2791 26.5814 21.2908 25.9554 19.2411 25.1126C18.2153 24.6908 17.434 24.2186 16.9138 23.7513C16.3871 23.2782 16.1615 22.8419 16.1615 22.4914V15.6415C19.7683 17.6502 23.8693 18.6081 27.9982 18.4017C32.1268 18.6049 36.2269 17.6471 39.8348 15.6412V22.4914ZM27.9981 15.568C24.2791 15.568 21.2908 14.9421 19.2411 14.0993C18.2153 13.6775 17.434 13.2053 16.9138 12.738C16.3871 12.2649 16.1615 11.8286 16.1615 11.478C16.1615 11.1275 16.3871 10.6911 16.9138 10.2181C17.434 9.75078 18.2153 9.27853 19.2411 8.85674C21.2908 8.01393 24.2791 7.38802 27.9981 7.38802C31.7171 7.38802 34.7054 8.01393 36.7551 8.85674C37.7809 9.27853 38.5622 9.75078 39.0825 10.2181C39.6091 10.6911 39.8348 11.1275 39.8348 11.478C39.8348 11.8286 39.6091 12.2649 39.0825 12.738C38.5622 13.2053 37.7809 13.6775 36.7551 14.0993C34.7054 14.9421 31.7171 15.568 27.9981 15.568Z" fill="white" stroke="white" stroke-width="0.5"/>
</g>
</svg>
