<svg width="20" height="20" viewBox="0 0 20 20" fill="none" xmlns="http://www.w3.org/2000/svg">
<g id="&#208;&#152;&#208;&#186;&#208;&#190;&#208;&#189;&#208;&#186;&#208;&#184; &#209;&#135;&#208;&#181;&#209;&#128;&#208;&#189;&#209;&#139;&#208;&#181; / &#209;&#130;&#208;&#181;&#208;&#187;&#208;&#181;&#209;&#132;&#208;&#190;&#208;&#189;">
<path id="Vector" d="M18.2353 14.7848C18.1311 14.2883 17.8047 13.8438 17.3359 13.566C16.4678 13.0556 15.5685 12.5625 14.7004 12.0868L14.1066 11.7603C13.3496 11.3471 12.8322 11.4235 12.5301 11.5624C12.2419 11.6944 11.8634 12.0104 11.7002 12.7708C11.6959 12.7831 11.6936 12.796 11.6932 12.809C11.6412 13.0069 11.4953 13.0868 11.412 13.1181C11.221 13.184 10.9953 13.1389 10.8078 12.9931C9.38372 11.8768 8.0969 10.5958 6.97421 9.17685C6.82837 8.99629 6.78323 8.77405 6.85267 8.58307C6.88393 8.49626 6.97074 8.34 7.21381 8.28791C7.22422 8.28444 7.23811 8.28444 7.24853 8.28096C8.01941 8.11082 8.32499 7.71496 8.44999 7.41286C8.58542 7.07256 8.63056 6.48919 8.0715 5.64886C7.65133 5.02035 7.30062 4.33281 6.96032 3.6661C6.80406 3.364 6.65127 3.0619 6.49154 2.76327C6.17208 2.17295 5.74497 1.80488 5.25883 1.69723C4.81783 1.60348 4.35252 1.72848 3.91152 2.06184C3.474 2.39519 3.01216 2.76327 2.57464 3.1869C1.63361 4.10363 1.41832 5.26342 1.95307 6.5378C4.22057 11.9652 8.12706 15.8439 13.5684 18.0698C13.992 18.2468 14.4087 18.3337 14.8045 18.3337C15.5199 18.3337 16.1762 18.0489 16.7456 17.4864C17.2075 17.0315 17.6137 16.5072 17.961 16.0453C18.2284 15.6807 18.3256 15.2328 18.2353 14.7848Z" fill="white"/>
</g>
</svg>
