<svg width="156" height="72" viewBox="0 0 156 72" fill="none" xmlns="http://www.w3.org/2000/svg">
<g id="Group 60">
<rect id="Rectangle 77" x="153.523" y="70" width="70.88" height="68" rx="20" transform="rotate(-180 153.523 70)" stroke="white" stroke-width="4" stroke-dasharray="1 1.5"/>
<path id="Vector" d="M119.425 24.418C116.673 24.418 114.255 25.8456 112.871 27.9974C112.178 27.8143 111.451 27.7168 110.703 27.7168C106.03 27.7168 102.242 31.5048 102.242 36.1774C102.242 40.8501 106.03 44.638 110.703 44.638H127.477C131.038 44.638 133.924 41.7512 133.924 38.1903C133.924 34.6293 131.038 31.7426 127.477 31.7426C127.385 31.7426 127.293 31.7446 127.202 31.7484C126.964 27.6601 123.573 24.418 119.425 24.418Z" fill="white"/>
<rect id="Rectangle 78" x="72.8828" y="70" width="70.88" height="68" rx="20" transform="rotate(-180 72.8828 70)" stroke="white" stroke-width="4"/>
<g id="Group 52">
<path id="Vector_2" d="M49.5361 24.3322C49.1041 21.8842 46.9441 20.1562 44.4961 20.1562L30.6721 20.1562C28.2241 20.1562 26.0641 21.8842 25.6321 24.3322L23.3281 36.4282C24.3361 35.4202 26.0641 34.8442 27.6481 34.8442H47.5201C49.1041 34.8442 50.8321 35.4202 51.8401 36.4282L49.5361 24.3322Z" fill="white"/>
<path id="Vector_3" d="M51.2662 41.4706V45.2146C51.2662 47.2306 49.5382 48.9586 47.5222 48.9586H27.6502C25.6343 48.9586 23.9062 47.2306 23.9062 45.2146V41.4706C23.9062 40.8946 24.1943 39.8866 24.4823 39.4546C25.2023 38.4466 26.2102 37.7266 27.6502 37.7266L47.5222 37.7266C48.8182 37.7266 49.9702 38.4466 50.6902 39.4546C51.1222 40.0306 51.2662 40.8946 51.2662 41.4706Z" fill="white"/>
<path id="Vector_4" d="M31.6815 44.6378H29.3775C28.5135 44.6378 27.9375 44.0618 27.9375 43.1978C27.9375 42.3338 28.5135 41.7578 29.3775 41.7578H31.6815C32.5455 41.7578 33.1215 42.3338 33.1215 43.1978C33.1215 44.0618 32.5455 44.6378 31.6815 44.6378Z" fill="black"/>
</g>
</g>
</svg>
