<svg width="216" height="105" viewBox="0 0 216 105" fill="none" xmlns="http://www.w3.org/2000/svg">
<g id="Group 16">
<g id="Group">
<path id="Vector" d="M15.59 49.0756C9.90329 47.6056 8.51064 46.9093 8.51064 44.7429V44.6656C8.51064 43.0795 9.98066 41.8029 12.7273 41.8029C15.5126 41.8029 18.3753 43.0408 21.2766 45.0524L25.029 39.5979C21.7021 36.9286 17.6016 35.4199 12.8046 35.4199C6.0735 35.4199 1.2766 39.3658 1.2766 45.3232V45.4006C1.2766 51.9383 5.5706 53.7565 12.1857 55.4586C17.6789 56.8513 18.8008 57.8184 18.8008 59.6366V59.7139C18.8008 61.6482 17.0213 62.8087 14.0426 62.8087C10.2901 62.8087 7.19536 61.2613 4.21664 58.8242L0 63.9693C3.94584 67.4896 8.97486 69.2304 13.9652 69.2304C21.0445 69.2304 26.0348 65.5553 26.0348 59.0176V58.9402C26.0348 53.2149 22.2824 50.8165 15.59 49.0756Z" fill="black"/>
<path id="Vector_2" d="M49.5177 35.8828H36.0554V68.8035H43.3282V58.9389H48.8214C56.2102 58.9389 62.1289 54.9931 62.1289 47.3722V47.2948C62.1289 40.525 57.3707 35.8828 49.5177 35.8828ZM54.7788 47.4882C54.7788 50.3122 52.6512 52.4786 49.0535 52.4786H43.3282V42.4205H48.9374C52.5738 42.4205 54.8175 44.1613 54.8175 47.4109V47.4882H54.7788Z" fill="black"/>
<path id="Vector_3" d="M78.8732 35.8828H71.6392V68.8035H78.8732V35.8828Z" fill="black"/>
<path id="Vector_4" d="M86.5005 42.2271V42.5366H96.5198V68.7648H103.754V42.5366H113.773V35.8828H86.5005V42.2271Z" fill="black"/>
<path id="Vector_5" d="M134.696 62.6532C129.048 62.6532 125.141 57.9337 125.141 52.3244V52.247C125.141 46.5991 129.126 41.9956 134.696 41.9956C137.985 41.9956 140.577 43.3882 143.091 45.7093L147.694 40.4095C144.638 37.3921 140.925 35.3418 134.735 35.3418C124.638 35.3418 117.559 43.0014 117.559 52.3631V52.4405C117.559 61.8795 124.754 69.3457 134.426 69.3457C140.77 69.3457 144.522 67.102 147.927 63.4656L143.323 58.8234C140.77 61.1445 138.488 62.6532 134.696 62.6532Z" fill="black"/>
<path id="Vector_6" d="M175.94 35.8828V48.8809H162.555V35.8828H155.321V68.7648H162.555V55.5733H175.94V68.7648H183.174V35.8828H175.94Z" fill="black"/>
<path id="Vector_7" d="M98.8775 0.332031H83.9839L91.45 13.5622L98.8775 0.332031Z" fill="black"/>
<path id="Vector_8" d="M83.9839 104.433H98.8775L91.45 91.2031L83.9839 104.433Z" fill="black"/>
</g>
<g id="Group_2">
<path id="Vector_9" d="M215.75 0.359375H189.344V26.7656H215.75V0.359375Z" fill="#E50000"/>
<g id="Group_3">
<path id="Vector_10" d="M204.852 5.72852H200.237V21.392H204.852V5.72852Z" fill="white"/>
<path id="Vector_11" d="M210.373 15.869V11.2539L194.709 11.2539V15.869L210.373 15.869Z" fill="white"/>
</g>
</g>
</g>
</svg>
