<svg width="183" height="44" viewBox="0 0 183 44" fill="none" xmlns="http://www.w3.org/2000/svg">
<path id="Vector" d="M95.625 21.2643C99.6882 20.3707 102.978 16.7943 102.978 11.4936C102.978 6.12989 98.9144 0.637115 90.4001 0.637115H66.0224V43.2321H91.1757C99.6248 43.2321 103.817 37.8684 103.817 31.674C103.817 26.3103 100.205 21.9677 95.625 21.2643ZM77.1157 9.77079H87.8863C90.1444 9.77079 91.6922 11.3033 91.6922 13.4117C91.6922 15.5201 90.1444 17.1155 87.8863 17.1155H77.1157V9.77079ZM88.2741 34.1018H77.1157V26.1829H88.2741C90.9835 26.1829 92.5313 28.0347 92.5313 30.206C92.5295 32.5047 90.9183 34.1018 88.2741 34.1018ZM112.775 28.993C115.871 32.0579 120.644 34.6132 126.513 34.6132C130.319 34.6132 132.64 33.0161 132.64 30.9723C132.64 28.5461 129.867 27.5879 125.288 26.6297C118.192 25.2246 108.261 23.4373 108.261 13.3471C108.261 6.19446 114.388 0 125.416 0C132.318 0 138.316 2.04386 142.894 5.93961L136.832 13.794C133.22 10.8564 128.512 9.38683 124.706 9.38683C121.029 9.38683 119.611 10.8564 119.611 12.7083C119.611 14.9442 122.256 15.7104 127.029 16.6041C134.124 18.072 143.927 20.1158 143.927 29.7592C143.927 38.3169 137.543 44 125.998 44C117.292 44 111.228 41.3173 106.907 37.2313L112.775 28.993ZM151.848 28.993C154.943 32.0579 159.717 34.6132 165.585 34.6132C169.391 34.6132 171.713 33.0161 171.713 30.9723C171.713 28.5461 168.94 27.5879 164.36 26.6297C157.265 25.2246 147.333 23.4373 147.333 13.3471C147.333 6.19446 153.461 0 164.489 0C171.39 0 177.389 2.04386 181.967 5.93961L175.905 13.794C172.293 10.8564 167.584 9.38683 163.779 9.38683C160.101 9.38683 158.684 10.8564 158.684 12.7083C158.684 14.9442 161.328 15.7104 166.102 16.6041C173.197 18.072 183 20.1158 183 29.7592C183 38.3169 176.615 44 165.071 44C156.364 44 150.3 41.3173 145.98 37.2313L151.848 28.993ZM7.49674 11.779H11.246V15.4912H7.49674V11.779ZM7.49674 4.35447H3.74751V8.06672H7.49674V4.35447ZM28.5336 0.64391V25.5254C28.5336 30.5526 25.8345 34.1799 19.9215 34.1799C14.3912 34.1799 11.6681 31.0725 11.2923 26.6263C11.2614 26.2678 11.2442 25.9008 11.2442 25.5254V22.914V19.2018H7.49502V22.914H3.74751V19.2018V15.4895V11.7773V8.06502H0V11.7773V15.4895V19.2018V22.914V25.9076C0 26.1489 0.00514857 26.3884 0.0102962 26.6263C0.130409 30.9451 1.34183 34.7304 3.74751 37.6441C4.77533 38.8895 6.02279 39.9768 7.49674 40.8773C10.6059 42.7767 14.7206 43.8522 19.9232 43.8522C33.6761 43.8522 39.7813 36.4073 39.7813 25.8448V0.64391H28.5336ZM0 0.64391V4.35617H3.74923V0.64391H0ZM58.524 27.8156H47.278V16.6805H58.524V27.8156Z" fill="url(#paint0_linear_672_2395)"/>
<defs>
<linearGradient id="paint0_linear_672_2395" x1="-0.000686357" y1="21.9996" x2="182.999" y2="21.9996" gradientUnits="userSpaceOnUse">
<stop offset="0.3519" stop-color="#FA4616"/>
<stop offset="0.3783" stop-color="#DF3E23"/>
<stop offset="0.4355" stop-color="#992B46"/>
<stop offset="0.5182" stop-color="#290D7C"/>
<stop offset="0.5437" stop-color="#06038D"/>
</linearGradient>
</defs>
</svg>
