<svg width="216" height="105" viewBox="0 0 216 105" fill="none" xmlns="http://www.w3.org/2000/svg">
<g id="Group 16">
<g id="Group">
<path id="Vector" d="M15.5898 48.7415C9.90318 47.2715 8.51055 46.5752 8.51055 44.4089V44.3315C8.51055 42.7454 9.98055 41.4688 12.7271 41.4688C15.5124 41.4688 18.375 42.7067 21.2764 44.7183L25.0287 39.2638C21.7019 36.5946 17.6014 35.0859 12.8045 35.0859C6.07344 35.0859 1.27658 39.0317 1.27658 44.9891V45.0665C1.27658 51.6041 5.57054 53.4223 12.1856 55.1244C17.6787 56.517 18.8006 57.4842 18.8006 59.3023V59.3797C18.8006 61.3139 17.0211 62.4744 14.0424 62.4744C10.29 62.4744 7.19528 60.9271 4.21659 58.4899L0 63.635C3.9458 67.1552 8.97476 68.896 13.965 68.896C21.0443 68.896 26.0345 65.221 26.0345 58.6834V58.606C26.0345 52.8807 22.2822 50.4823 15.5898 48.7415Z" fill="#B8B8B8"/>
<path id="Vector_2" d="M49.5168 35.5508H36.0547V68.4711H43.3273V58.6066H48.8205C56.2092 58.6066 62.1279 54.6608 62.1279 47.04V46.9627C62.1279 40.1929 57.3697 35.5508 49.5168 35.5508ZM54.7779 47.1561C54.7779 49.98 52.6503 52.1464 49.0526 52.1464H43.3273V42.0884H48.9366C52.5729 42.0884 54.8166 43.8292 54.8166 47.0787V47.1561H54.7779Z" fill="#B8B8B8"/>
<path id="Vector_3" d="M78.8746 35.5508H71.6406V68.4711H78.8746V35.5508Z" fill="#B8B8B8"/>
<path id="Vector_4" d="M86.5 41.895V42.2045H96.5192V68.4324H103.753V42.2045H113.772V35.5508H86.5V41.895Z" fill="#B8B8B8"/>
<path id="Vector_5" d="M134.7 62.3189C129.052 62.3189 125.145 57.5994 125.145 51.9902V51.9129C125.145 46.2649 129.129 41.6615 134.7 41.6615C137.988 41.6615 140.58 43.0541 143.094 45.3752L147.698 40.0755C144.642 37.0581 140.928 35.0078 134.738 35.0078C124.642 35.0078 117.562 42.6673 117.562 52.0289V52.1063C117.562 61.5452 124.758 69.0113 134.429 69.0113C140.773 69.0113 144.525 66.7676 147.93 63.1313L143.326 58.4892C140.773 60.8102 138.491 62.3189 134.7 62.3189Z" fill="#B8B8B8"/>
<path id="Vector_6" d="M175.939 35.5508V48.5487H162.554V35.5508H155.32V68.4324H162.554V55.2411H175.939V68.4324H183.173V35.5508H175.939Z" fill="#B8B8B8"/>
<path id="Vector_7" d="M98.8778 0H83.9844L91.4504 13.23L98.8778 0Z" fill="#B8B8B8"/>
<path id="Vector_8" d="M83.9844 104.097H98.8778L91.4504 90.8672L83.9844 104.097Z" fill="#B8B8B8"/>
</g>
<g id="Group_2">
<path id="Vector_9" d="M215.75 0.0273438H189.344V26.4333H215.75V0.0273438Z" fill="#B8B8B8"/>
<g id="Group_3">
<path id="Vector_10" d="M204.857 5.39844H200.242V21.0617H204.857V5.39844Z" fill="#F0F0F0"/>
<path id="Vector_11" d="M210.383 15.5369V10.9219L194.72 10.9219V15.5369L210.383 15.5369Z" fill="#F0F0F0"/>
</g>
</g>
</g>
</svg>
