<svg width="72" height="152" viewBox="0 0 72 152" fill="none" xmlns="http://www.w3.org/2000/svg">
<g id="Group 56">
<rect id="Rectangle 78" opacity="0.3" x="70" y="2" width="70.88" height="68" rx="20" transform="rotate(90 70 2)" stroke="white" stroke-width="4" stroke-dasharray="1 1.5"/>
<g id="Group 3353766">
<rect id="Rectangle 79" opacity="0.3" x="70" y="82" width="68" height="68" rx="20" transform="rotate(90 70 82)" stroke="white" stroke-width="4"/>
<path id="+" opacity="0.3" d="M33.8134 113.787L33.8134 104.926L38.1778 104.926L38.1778 113.787L47.5156 113.787L47.5156 118.218L38.1778 118.218L38.1778 127.08L33.8134 127.08L33.8134 118.218L24.4756 118.218L24.4756 113.787L33.8134 113.787Z" fill="white"/>
</g>
<path id="Ellipse 13" opacity="0.3" d="M47.0244 37.4419C47.0244 43.528 42.0906 48.4619 36.0044 48.4619C29.9182 48.4619 24.9844 43.528 24.9844 37.4419C24.9844 31.3557 29.9182 26.4219 36.0044 26.4219C42.0906 26.4219 47.0244 31.3557 47.0244 37.4419Z" stroke="white"/>
</g>
</svg>
