<svg width="72" height="152" viewBox="0 0 72 152" fill="none" xmlns="http://www.w3.org/2000/svg">
<rect opacity="0.3" x="70" y="2" width="70.88" height="68" rx="20" transform="rotate(90 70 2)" stroke="white" stroke-width="4" stroke-dasharray="1 1.5"/>
<path opacity="0.3" d="M35.8706 27.332C33.1182 27.332 30.7008 28.7597 29.3159 30.9115C28.6232 30.7283 27.8964 30.6309 27.1481 30.6309C22.4754 30.6309 18.6875 34.4188 18.6875 39.0915C18.6875 43.7641 22.4754 47.5521 27.1481 47.5521H43.9222C47.483 47.5521 50.3698 44.6653 50.3698 41.1043C50.3698 37.5433 47.483 34.6567 43.9222 34.6567C43.8299 34.6567 43.7382 34.6586 43.6469 34.6625C43.4093 30.5741 40.0185 27.332 35.8706 27.332Z" fill="white"/>
<rect opacity="0.3" x="70" y="82" width="68" height="68" rx="20" transform="rotate(90 70 82)" stroke="white" stroke-width="4"/>
<g opacity="0.3">
<path d="M46.5049 106.027C46.0729 103.673 43.9129 102.012 41.4649 102.012H27.6409C25.1929 102.012 23.0329 103.673 22.6009 106.027L20.2969 117.658C21.3049 116.689 23.0329 116.135 24.6169 116.135H44.4889C46.0729 116.135 47.8009 116.689 48.8089 117.658L46.5049 106.027Z" fill="white"/>
<path d="M48.235 122.502V126.102C48.235 128.041 46.507 129.702 44.491 129.702H24.619C22.603 129.702 20.875 128.041 20.875 126.102V122.502C20.875 121.948 21.163 120.979 21.451 120.564C22.171 119.595 23.179 118.902 24.619 118.902H44.491C45.787 118.902 46.939 119.595 47.659 120.564C48.091 121.118 48.235 121.948 48.235 122.502Z" fill="white"/>
<path d="M28.6503 125.55H26.3462C25.4822 125.55 24.9062 124.997 24.9062 124.166C24.9062 123.335 25.4822 122.781 26.3462 122.781H28.6503C29.5142 122.781 30.0902 123.335 30.0902 124.166C30.0902 124.997 29.5142 125.55 28.6503 125.55Z" fill="black"/>
</g>
</svg>
