<svg width="190" height="40" viewBox="0 0 190 40" fill="none" xmlns="http://www.w3.org/2000/svg">
<path fill-rule="evenodd" clip-rule="evenodd" d="M0.380122 15.7538C-1.69466 27.2513 4.87032 38.4459 16.4971 40V30.0851C8.39197 26.4638 8.71526 13.3115 16.4971 9.88839V0C8.17168 1.15491 1.83241 7.70292 0.380122 15.7538Z" fill="white"/>
<path fill-rule="evenodd" clip-rule="evenodd" d="M18.3157 15.7538C16.2407 27.2513 22.8057 38.4459 34.4325 40V30.0851C26.3272 26.4638 26.6507 13.3115 34.4325 9.88839V0C26.1071 1.15491 19.768 7.70292 18.3157 15.7538Z" fill="white"/>
<path fill-rule="evenodd" clip-rule="evenodd" d="M38.583 39.2606V0.731934H62.2894V9.19191H48.8667V15.874H61.5316V24.1185H48.8667V30.6387H62.2894V39.2606H38.583Z" fill="#D4D727"/>
<path fill-rule="evenodd" clip-rule="evenodd" d="M75.7442 26.6942C75.9432 27.0903 76.0852 27.4014 76.1989 27.6561C76.3125 27.9106 76.3693 28.1368 76.4261 28.3633C76.4831 28.1368 76.5399 27.9106 76.6535 27.6561C76.7387 27.4296 76.8808 27.1186 77.1082 26.6942L78.4436 24.3179H84.0407L79.2389 30.7959L84.8365 38.2642H79.2673L77.165 34.7565C76.9944 34.4735 76.8524 34.1907 76.7387 33.936C76.6535 33.6532 76.5399 33.3702 76.4831 33.0874C76.4261 33.3702 76.3125 33.6532 76.1989 33.936C76.1136 34.1907 75.9716 34.4735 75.8012 34.7565L73.7269 38.2642H68.2432L73.7553 30.7959L69.0387 24.3179H74.4372L75.7442 26.6942Z" fill="white"/>
<path fill-rule="evenodd" clip-rule="evenodd" d="M94.5569 28.9014C94.074 28.4772 93.6193 28.1659 93.1647 27.968C92.7386 27.77 92.2555 27.6852 91.7724 27.6852C90.7781 27.6852 90.0107 27.9963 89.4424 28.6469C88.846 29.2975 88.5617 30.1744 88.5617 31.2777C88.5617 32.3527 88.8744 33.2013 89.4711 33.8237C90.0676 34.4743 90.8633 34.7856 91.8861 34.7856C92.3975 34.7856 92.8522 34.6723 93.3067 34.4743C93.733 34.2764 94.1592 33.9934 94.5569 33.5692V37.8406C93.9602 38.1519 93.3637 38.4064 92.7954 38.5761C92.1987 38.7177 91.5736 38.8025 90.9485 38.8025C88.7889 38.8025 87.0559 38.1236 85.7205 36.7375C84.385 35.3512 83.7031 33.5409 83.7031 31.306C83.7031 29.1278 84.385 27.3173 85.7489 25.9312C87.1127 24.5451 88.8744 23.8662 91.0053 23.8662C91.7156 23.8662 92.3691 23.9228 92.9374 24.0642C93.5057 24.2056 94.0456 24.4318 94.5569 24.7431V28.9014Z" fill="white"/>
<path fill-rule="evenodd" clip-rule="evenodd" d="M106.371 29.4955C106.286 28.7034 105.973 28.0528 105.462 27.5718C104.951 27.0911 104.325 26.8647 103.558 26.8647C102.763 26.8647 102.109 27.0911 101.626 27.5153C101.171 27.968 100.859 28.6186 100.688 29.4955H106.371ZM111.23 32.2679H100.575C100.575 33.3427 100.859 34.1632 101.399 34.7573C101.967 35.3512 102.734 35.6342 103.729 35.6342C104.496 35.6342 105.121 35.4928 105.632 35.2098C106.144 34.927 106.542 34.5026 106.797 33.9651L110.519 35.4645C110.065 36.5111 109.298 37.3599 108.161 37.9254C107.025 38.5195 105.661 38.8025 104.013 38.8025C101.569 38.8025 99.6086 38.1236 98.1312 36.7658C96.6538 35.4362 95.915 33.654 95.915 31.4474C95.915 29.2692 96.6538 27.4587 98.1312 26.0161C99.6086 24.5734 101.484 23.8662 103.729 23.8662C106.058 23.8662 107.877 24.6017 109.212 26.0443C110.548 27.5153 111.23 29.4955 111.23 32.0415V32.2679Z" fill="white"/>
<path fill-rule="evenodd" clip-rule="evenodd" d="M113.321 38.2655V16.8511H118.265V38.2655H113.321Z" fill="white"/>
<path fill-rule="evenodd" clip-rule="evenodd" d="M121.3 38.2655V16.8511H126.244V38.2655H121.3Z" fill="white"/>
<path fill-rule="evenodd" clip-rule="evenodd" d="M138.798 29.4955C138.713 28.7034 138.4 28.0528 137.889 27.5718C137.377 27.0911 136.752 26.8647 135.985 26.8647C135.189 26.8647 134.536 27.0911 134.053 27.5153C133.598 27.968 133.286 28.6186 133.115 29.4955H138.798ZM143.656 32.2679H133.002C133.002 33.3427 133.286 34.1632 133.825 34.7573C134.394 35.3512 135.161 35.6342 136.155 35.6342C136.923 35.6342 137.548 35.4928 138.059 35.2098C138.57 34.927 138.968 34.5026 139.224 33.9651L142.946 35.4645C142.491 36.5111 141.724 37.3599 140.588 37.9254C139.451 38.5195 138.088 38.8025 136.44 38.8025C133.996 38.8025 132.035 38.1236 130.558 36.7658C129.081 35.4362 128.342 33.654 128.342 31.4474C128.342 29.2692 129.081 27.4587 130.558 26.0161C132.035 24.5734 133.911 23.8662 136.155 23.8662C138.485 23.8662 140.304 24.6017 141.639 26.0443C142.975 27.5153 143.656 29.4955 143.656 32.0415V32.2679Z" fill="white"/>
<path fill-rule="evenodd" clip-rule="evenodd" d="M145.606 38.265V24.3187H150.124V27.1477C150.778 26.0161 151.545 25.1675 152.397 24.6582C153.278 24.1207 154.301 23.8662 155.494 23.8662C156.404 23.8662 157.199 24.0076 157.909 24.2904C158.62 24.6017 159.188 24.9976 159.643 25.5634C160.012 26.0161 160.268 26.5819 160.438 27.2608C160.58 27.9397 160.665 28.9297 160.665 30.2877V38.265H155.721V30.7967C155.721 29.6654 155.551 28.8731 155.182 28.3641C154.812 27.8549 154.216 27.6001 153.42 27.6001C152.397 27.6001 151.658 27.968 151.175 28.7317C150.692 29.4955 150.465 30.7119 150.465 32.4093V38.265H145.606Z" fill="white"/>
<path fill-rule="evenodd" clip-rule="evenodd" d="M173.327 28.9014C172.845 28.4772 172.39 28.1659 171.935 27.968C171.509 27.77 171.026 27.6852 170.543 27.6852C169.549 27.6852 168.781 27.9963 168.213 28.6469C167.616 29.2975 167.332 30.1744 167.332 31.2777C167.332 32.3527 167.645 33.2013 168.242 33.8237C168.838 34.4743 169.634 34.7856 170.657 34.7856C171.168 34.7856 171.623 34.6723 172.077 34.4743C172.503 34.2764 172.93 33.9934 173.327 33.5692V37.8406C172.731 38.1519 172.134 38.4064 171.566 38.5761C170.969 38.7177 170.344 38.8025 169.719 38.8025C167.559 38.8025 165.826 38.1236 164.491 36.7375C163.156 35.3512 162.474 33.5409 162.474 31.306C162.474 29.1278 163.156 27.3173 164.519 25.9312C165.883 24.5451 167.645 23.8662 169.776 23.8662C170.486 23.8662 171.14 23.9228 171.708 24.0642C172.276 24.2056 172.816 24.4318 173.327 24.7431V28.9014Z" fill="white"/>
<path fill-rule="evenodd" clip-rule="evenodd" d="M185.142 29.4955C185.056 28.7034 184.744 28.0528 184.232 27.5718C183.721 27.0911 183.096 26.8647 182.329 26.8647C181.533 26.8647 180.88 27.0911 180.396 27.5153C179.942 27.968 179.629 28.6186 179.459 29.4955H185.142ZM190 32.2679H179.345C179.345 33.3427 179.629 34.1632 180.169 34.7573C180.738 35.3512 181.505 35.6342 182.499 35.6342C183.266 35.6342 183.891 35.4928 184.403 35.2098C184.914 34.927 185.312 34.5026 185.568 33.9651L189.29 35.4645C188.835 36.5111 188.068 37.3599 186.932 37.9254C185.795 38.5195 184.431 38.8025 182.783 38.8025C180.34 38.8025 178.379 38.1236 176.902 36.7658C175.424 35.4362 174.686 33.654 174.686 31.4474C174.686 29.2692 175.424 27.4587 176.902 26.0161C178.379 24.5734 180.254 23.8662 182.499 23.8662C184.829 23.8662 186.647 24.6017 187.983 26.0443C189.318 27.5153 190 29.4955 190 32.0415V32.2679Z" fill="white"/>
</svg>
