<svg width="56" height="56" viewBox="0 0 56 56" fill="none" xmlns="http://www.w3.org/2000/svg">
<g id="Diamond">
<path id="Vector" fill-rule="evenodd" clip-rule="evenodd" d="M15.2519 7.58203C13.8866 7.58203 12.6116 8.26437 11.8543 9.40033L3.47947 21.9626C2.96676 22.7317 2.90544 23.7166 3.31879 24.5433C7.90172 33.7091 14.2707 41.8662 22.0513 48.5353L26.1364 52.0369C27.2105 52.9577 28.7957 52.9577 29.8698 52.0369L33.955 48.5353C41.7355 41.8662 48.1045 33.7091 52.6874 24.5433C53.1007 23.7166 53.0395 22.7317 52.5267 21.9626L44.1519 9.40033C43.3945 8.26437 42.1195 7.58203 40.7543 7.58203H15.2519ZM14.7665 11.3418C14.8747 11.1795 15.0568 11.082 15.2519 11.082H20.7114L16.2428 21.8067C16.1399 22.0537 16.0622 22.3085 16.0098 22.5673C14.3675 22.445 12.7267 22.2976 11.0878 22.1251L7.80778 21.7799L14.7665 11.3418ZM7.65329 25.2829C11.8379 32.9596 17.3636 39.832 23.9739 45.5715L16.6812 26.1243C14.6924 25.9876 12.7055 25.8147 10.7214 25.6059L7.65329 25.2829ZM20.501 26.3425L28.0031 46.348L35.5052 26.3425C30.5063 26.5698 25.4999 26.5698 20.501 26.3425ZM39.3251 26.1243L32.0323 45.5715C38.6426 39.832 44.1682 32.9596 48.3528 25.2829L45.2847 25.6059C43.3007 25.8147 41.3138 25.9876 39.3251 26.1243ZM48.1983 21.7799L44.9184 22.1251C43.2794 22.2976 41.6386 22.445 39.9964 22.5673C39.9439 22.3085 39.8662 22.0537 39.7633 21.8067L35.2948 11.082H40.7543C40.9494 11.082 41.1316 11.1795 41.2396 11.3418L48.1983 21.7799ZM36.3837 22.7955C30.8003 23.0854 25.2059 23.0854 19.6225 22.7955L24.5031 11.082H31.5031L36.3837 22.7955Z" fill="white"/>
</g>
</svg>
