<svg width="56" height="56" viewBox="0 0 56 56" fill="none" xmlns="http://www.w3.org/2000/svg">
<g id="Headset">
<path id="Vector" d="M37.3333 39.3333H42.0575C41.187 42.4115 38.3565 44.6667 35 44.6667H32.4927C31.7267 42.9483 30.0035 41.75 28 41.75C25.2845 41.75 23.0833 43.9512 23.0833 46.6667C23.0833 49.3821 25.2845 51.5833 28 51.5833C30.0035 51.5833 31.7267 50.385 32.4927 48.6667H35C40.6695 48.6667 45.3663 44.5039 46.2014 39.068C48.974 38.2603 51 35.7004 51 32.6667V25.6667C51 22.6433 48.9877 20.0906 46.2297 19.2737C45.2332 11.0273 37.1947 5 28 5C18.8053 5 10.7669 11.0273 9.77019 19.2737C7.01229 20.0906 5 22.6433 5 25.6667V32.6667C5 36.3486 7.98478 39.3333 11.6667 39.3333H18.6667C19.7712 39.3333 20.6667 38.4379 20.6667 37.3333V21C20.6667 19.8954 19.7712 19 18.6667 19H13.8696C14.9914 13.511 20.6634 9 28 9C35.3366 9 41.0086 13.511 42.1305 19H37.3333C36.2288 19 35.3333 19.8954 35.3333 21V37.3333C35.3333 38.4379 36.2288 39.3333 37.3333 39.3333ZM9 25.6667C9 24.1938 10.1939 23 11.6667 23H16.6667V35.3333H11.6667C10.1939 35.3333 9 34.1395 9 32.6667V25.6667ZM44.3333 23C45.8062 23 47 24.1938 47 25.6667V32.6667C47 34.1395 45.8062 35.3333 44.3333 35.3333H39.3333V23H44.3333Z" fill="#D4D727" stroke="#D4D727" stroke-width="0.5"/>
</g>
</svg>
