<svg width="56" height="56" viewBox="0 0 56 56" fill="none" xmlns="http://www.w3.org/2000/svg">
<g id="Lightning-Alt">
<path id="Vector" fill-rule="evenodd" clip-rule="evenodd" d="M31.7707 5.3899C32.4161 5.66472 32.8352 6.29847 32.8352 7.00004V23.3291H42.0052C42.6275 23.3291 43.2029 23.6595 43.5167 24.1971C43.8303 24.7345 43.835 25.3983 43.5289 25.9401L42.3806 27.972C38.0264 35.6783 32.4733 42.6424 25.9299 48.6029L24.0738 50.2938C23.5614 50.7605 22.8219 50.8809 22.188 50.6009C21.5541 50.3207 21.1452 49.693 21.1452 49V32.8095H11.6719C10.7054 32.8095 9.92188 32.0259 9.92188 31.0595C9.92188 30.7463 10.0041 30.4526 10.148 30.1982C14.2519 22.6115 19.506 15.7061 25.7237 9.72756L29.8723 5.73857C30.378 5.25232 31.1251 5.11508 31.7707 5.3899ZM14.6692 29.3095H22.8952C23.8617 29.3095 24.6452 30.0928 24.6452 31.0595V45.0205C30.2886 39.6877 35.1258 33.5596 39.0031 26.8291H31.0852C30.1187 26.8291 29.3352 26.0456 29.3352 25.0791V11.1105L28.1496 12.2505C22.8978 17.3003 18.3635 23.0404 14.6692 29.3095Z" fill="white"/>
</g>
</svg>
