<svg width="411" height="343" viewBox="0 0 411 343" fill="none" xmlns="http://www.w3.org/2000/svg">
<path d="M239.5 343C334.217 343 411 266.217 411 171.5C411 76.7832 334.217 0 239.5 0C144.783 0 68 76.7832 68 171.5C68 266.217 144.783 343 239.5 343Z" fill="#181818"/>
<path d="M158.907 228.907C195.031 192.784 195.031 134.216 158.907 98.0926C122.784 61.9691 64.2161 61.9691 28.0926 98.0926C-8.03087 134.216 -8.03088 192.784 28.0926 228.907C64.2161 265.031 122.784 265.031 158.907 228.907Z" stroke="#D4D727" stroke-miterlimit="10"/>
<path d="M93.5469 156.172V171.501" stroke="#D4D727" stroke-miterlimit="10"/>
<path d="M101.196 163.836H85.8828" stroke="#D4D727" stroke-miterlimit="10"/>
</svg>
