<svg width="411" height="343" viewBox="0 0 411 343" fill="none" xmlns="http://www.w3.org/2000/svg">
<path d="M171.5 343C76.7832 343 0 266.217 0 171.5C0 76.7832 76.7832 0 171.5 0C266.217 0 343 76.7832 343 171.5C343 266.217 266.217 343 171.5 343Z" fill="#181818"/>
<path d="M252.093 228.907C215.969 192.784 215.969 134.216 252.093 98.0926C288.216 61.9691 346.784 61.9691 382.907 98.0926C419.031 134.216 419.031 192.784 382.907 228.907C346.784 265.031 288.216 265.031 252.093 228.907Z" stroke="#D4D727" stroke-miterlimit="10"/>
<path d="M317.453 156.172V171.501" stroke="#D4D727" stroke-miterlimit="10"/>
<path d="M309.804 163.836H325.117" stroke="#D4D727" stroke-miterlimit="10"/>
</svg>
