<svg width="344" height="288" viewBox="0 0 344 288" fill="none" xmlns="http://www.w3.org/2000/svg">
<path d="M143.896 287.785C64.4267 287.785 0.00369263 223.362 0.00369263 143.893C0.00369263 64.423 64.4267 0 143.896 0C223.366 0 287.789 64.423 287.789 143.893C287.789 223.362 223.366 287.785 143.896 287.785Z" fill="#181818"/>
<path d="M211.512 192.058C181.203 161.75 181.203 112.61 211.512 82.3017C241.82 51.9932 290.96 51.9932 321.269 82.3017C351.577 112.61 351.577 161.75 321.269 192.058C290.96 222.367 241.82 222.367 211.512 192.058Z" stroke="#D4D727" stroke-miterlimit="10"/>
<path d="M266.352 131.031V143.893" stroke="#D4D727" stroke-miterlimit="10"/>
<path d="M259.933 137.461H272.781" stroke="#D4D727" stroke-miterlimit="10"/>
</svg>
