<svg width="24" height="24" viewBox="0 0 24 24" fill="none" xmlns="http://www.w3.org/2000/svg">
<path d="M21.8068 6.22724C21.8648 6.14647 21.7792 6.04218 21.6865 6.07811C21.0278 6.33344 20.3393 6.50571 19.6371 6.5906C20.419 6.12348 21.0224 5.4124 21.357 4.57053C21.391 4.48477 21.2974 4.40819 21.2166 4.4528C20.4899 4.85414 19.7061 5.14313 18.892 5.30957C18.8579 5.31654 18.8228 5.30494 18.7989 5.27969C18.1879 4.63502 17.3836 4.20578 16.5069 4.05745C15.6117 3.90601 14.6916 4.05596 13.8909 4.48379C13.0901 4.91162 12.454 5.59313 12.0823 6.42144C11.7289 7.209 11.6336 8.08691 11.8079 8.93003C11.8214 8.99545 11.7702 9.05721 11.7035 9.05307C10.1195 8.95469 8.57176 8.53336 7.15575 7.81446C5.74334 7.09739 4.49261 6.09983 3.47974 4.8833C3.43479 4.82931 3.34959 4.83629 3.31683 4.89845C3.00167 5.49651 2.83665 6.16311 2.8371 6.8406C2.83582 7.51498 3.00131 8.17922 3.31885 8.77416C3.63639 9.36911 4.09612 9.87631 4.6571 10.2506C4.06217 10.2344 3.47885 10.0873 2.94835 9.82067C2.87998 9.78631 2.79797 9.83524 2.80153 9.91167C2.8429 10.8009 3.16935 11.6936 3.73441 12.3786C4.33573 13.1074 5.17035 13.6062 6.0971 13.7906C5.74035 13.8992 5.36997 13.9564 4.9971 13.9606C4.79416 13.9582 4.59161 13.9433 4.39063 13.9158C4.31611 13.9056 4.25527 13.9764 4.28135 14.0469C4.55777 14.7944 5.04609 15.4467 5.68817 15.9228C6.37462 16.4318 7.20267 16.7142 8.0571 16.7306C6.6143 17.8659 4.83298 18.4855 2.9971 18.4906C2.80845 18.4912 2.61989 18.4851 2.43178 18.4723C2.32577 18.4651 2.27702 18.6063 2.36839 18.6605C4.15716 19.7221 6.20169 20.2831 8.2871 20.2806C9.82679 20.2966 11.3542 20.0056 12.7802 19.4247C14.2062 18.8437 15.5021 17.9845 16.5923 16.8971C17.6825 15.8097 18.5451 14.516 19.1297 13.0915C19.7142 11.667 20.0091 10.1403 19.9971 8.6006V8.12077C19.9971 8.0892 20.012 8.05951 20.0372 8.04048C20.7155 7.52834 21.312 6.91691 21.8068 6.22724Z" fill="#D4D727"/>
</svg>
