<svg width="32" height="32" viewBox="0 0 32 32" fill="none" xmlns="http://www.w3.org/2000/svg">
<g id="Shopping Cart">
<path id="Vector" fill-rule="evenodd" clip-rule="evenodd" d="M25.5355 6.9974H7.11873L5.54517 4.17686C5.36854 3.86026 5.03441 3.66406 4.67187 3.66406H2.67187C2.11959 3.66406 1.67188 4.11178 1.67188 4.66406C1.67188 5.21634 2.11959 5.66406 2.67187 5.66406H4.08468L5.63759 8.4476L9.21903 16.3719L9.2227 16.3799L9.53815 17.0779L5.94237 20.9134C5.68381 21.1893 5.60287 21.5873 5.73319 21.9421C5.8635 22.297 6.18277 22.5481 6.55835 22.591L9.83586 22.9655C13.9355 23.4341 18.0751 23.4341 22.1745 22.9655L25.4521 22.591C26.0008 22.5282 26.3948 22.0326 26.3321 21.4838C26.2693 20.9351 25.7737 20.5411 25.2251 20.6039L21.9475 20.9785C17.9988 21.4297 14.0116 21.4297 10.063 20.9785L8.76226 20.8298L11.4014 18.0147C11.427 17.9874 11.4507 17.9591 11.4726 17.9299L12.4763 18.0606C13.8829 18.2437 15.3047 18.2795 16.7187 18.1677C20.0167 17.9069 23.0732 16.3375 25.2072 13.8095L25.9779 12.8964C26.0039 12.8657 26.0279 12.8335 26.0499 12.8L27.4864 10.6108C28.5045 9.05917 27.3915 6.9974 25.5355 6.9974ZM11.5469 15.9227C11.3264 15.8941 11.1362 15.7541 11.0433 15.5521L11.0415 15.5482L8.08086 8.9974H25.5355C25.8007 8.9974 25.9596 9.29193 25.8141 9.51361L24.4108 11.6524L23.6788 12.5194C21.8895 14.6393 19.3264 15.9551 16.5611 16.1739C15.2856 16.2747 14.0031 16.2423 12.7344 16.0773L11.5469 15.9227Z" fill="white"/>
<path id="Vector_2" d="M8.67188 24.668C7.5673 24.668 6.67188 25.5634 6.67188 26.668C6.67188 27.7725 7.5673 28.668 8.67188 28.668C9.77645 28.668 10.6719 27.7725 10.6719 26.668C10.6719 25.5634 9.77645 24.668 8.67188 24.668Z" fill="white"/>
<path id="Vector_3" d="M21.3281 26.668C21.3281 25.5634 22.2236 24.668 23.3281 24.668C24.4327 24.668 25.3281 25.5634 25.3281 26.668C25.3281 27.7725 24.4327 28.668 23.3281 28.668C22.2236 28.668 21.3281 27.7725 21.3281 26.668Z" fill="white"/>
</g>
</svg>
