<svg width="32" height="32" viewBox="0 0 32 32" fill="none" xmlns="http://www.w3.org/2000/svg">
<g id="Headphones">
<path id="Vector" fill-rule="evenodd" clip-rule="evenodd" d="M15.9948 5C11.2422 5 7.66146 8.27307 7.66146 12V13.6816C7.77125 13.6717 7.88243 13.6667 7.99479 13.6667H11.9948C12.5471 13.6667 12.9948 14.1144 12.9948 14.6667V24C12.9948 24.5523 12.5471 25 11.9948 25H7.99479C5.96975 25 4.32812 23.3584 4.32812 21.3333V17.3333C4.32812 16.1947 4.84712 15.1773 5.66146 14.5048V12C5.66146 6.89037 10.438 3 15.9948 3C21.5516 3 26.3281 6.89037 26.3281 12V14.5048C27.1425 15.1773 27.6615 16.1947 27.6615 17.3333V21.3333C27.6615 23.3584 26.0199 25 23.9948 25H19.9948C19.4425 25 18.9948 24.5523 18.9948 24V14.6667C18.9948 14.1144 19.4425 13.6667 19.9948 13.6667H23.9948C24.1072 13.6667 24.2184 13.6717 24.3281 13.6816V12C24.3281 8.27307 20.7473 5 15.9948 5ZM7.99479 15.6667C7.07431 15.6667 6.32812 16.4128 6.32812 17.3333V21.3333C6.32812 22.2539 7.07431 23 7.99479 23H10.9948V15.6667H7.99479ZM25.6615 17.3333C25.6615 16.4128 24.9153 15.6667 23.9948 15.6667H20.9948V23H23.9948C24.9153 23 25.6615 22.2539 25.6615 21.3333V17.3333Z" fill="white"/>
</g>
</svg>
