<svg width="32" height="32" viewBox="0 0 32 32" fill="none" xmlns="http://www.w3.org/2000/svg">
<g id="Smartphone">
<path id="Vector" d="M20.5385 31.0833H11.4719C8.80521 31.0833 6.67188 28.95 6.67188 26.2833V6.55C6.67188 3.88333 8.80521 1.75 11.4719 1.75H20.6719C23.3385 1.75 25.4719 3.88333 25.4719 6.55V26.4167C25.3385 28.95 23.2052 31.0833 20.5385 31.0833ZM11.4719 4.41667C10.2719 4.41667 9.33854 5.35 9.33854 6.55V26.4167C9.33854 27.4833 10.2719 28.4167 11.4719 28.4167H20.6719C21.8719 28.4167 22.8052 27.4833 22.8052 26.2833V6.55C22.6719 5.35 21.7385 4.41667 20.5385 4.41667H11.4719Z" fill="white"/>
<path id="Vector_2" d="M17.7375 8.8151H14.2708C13.4708 8.8151 12.9375 8.28177 12.9375 7.48177C12.9375 6.68177 13.4708 6.14844 14.2708 6.14844H17.8708C18.6708 6.14844 19.2042 6.68177 19.2042 7.48177C19.2042 8.28177 18.5375 8.8151 17.7375 8.8151Z" fill="white"/>
</g>
</svg>
