<svg width="160" height="100" viewBox="0 0 160 100" fill="none" xmlns="http://www.w3.org/2000/svg">
<g id="Layer_1" clip-path="url(#clip0_555_9706)">
<path id="Vector" d="M147.39 49.9997V48.7973C147.39 47.299 145.503 46.0781 143.187 46.0781C140.871 46.0781 138.984 47.299 138.984 48.7973V51.2021C138.984 52.7004 140.871 53.9213 143.187 53.9213C145.503 53.9213 147.39 52.7004 147.39 51.2021V49.9997Z" fill="#D4D727"/>
<path id="Vector_2" d="M134.75 50.0018V43.102C134.75 41.6037 132.863 40.3828 130.547 40.3828C128.231 40.3828 126.344 41.6037 126.344 43.102V56.92C126.344 58.4183 128.231 59.6392 130.547 59.6392C132.863 59.6392 134.75 58.4183 134.75 56.92V50.0203V50.0018Z" fill="#D4D727"/>
<path id="Vector_3" d="M122.14 49.9996V25.5083C122.14 24.0099 120.253 22.7891 117.937 22.7891C115.621 22.7891 113.734 24.0099 113.734 25.5083V74.5094C113.734 76.0077 115.621 77.2286 117.937 77.2286C120.253 77.2286 122.14 76.0077 122.14 74.5094V50.0181V49.9996Z" fill="#D4D727"/>
<path id="Vector_4" d="M160 49.9995V49.7036C160 48.2052 158.113 46.9844 155.797 46.9844C153.481 46.9844 151.594 48.2052 151.594 49.7036V50.314C151.594 51.8123 153.481 53.0332 155.797 53.0332C158.113 53.0332 160 51.8123 160 50.314V50.018V49.9995Z" fill="#D4D727"/>
<path id="Vector_5" d="M8.406 49.9995V49.7036C8.406 48.2052 6.51894 46.9844 4.203 46.9844C1.88706 46.9844 0 48.2052 0 49.7036V50.314C0 51.8123 1.88706 53.0332 4.203 53.0332C6.51894 53.0332 8.406 51.8123 8.406 50.314V50.018V49.9995Z" fill="#D4D727"/>
<path id="Vector_6" d="M109.531 50.0004V9.85983C109.531 8.36149 107.644 7.14062 105.328 7.14062C103.012 7.14062 101.125 8.36149 101.125 9.85983V90.1595C101.125 91.6578 103.012 92.8787 105.328 92.8787C107.644 92.8787 109.531 91.6578 109.531 90.1595V50.0004Z" fill="#D4D727"/>
<path id="Vector_7" d="M96.8982 50.0016V31.2817C96.8982 29.7834 95.0111 28.5625 92.6952 28.5625C90.3792 28.5625 88.4922 29.7834 88.4922 31.2817V68.7031C88.4922 70.2014 90.3792 71.4223 92.6952 71.4223C95.0111 71.4223 96.8982 70.2014 96.8982 68.7031V49.9831V50.0016Z" fill="#D4D727"/>
<path id="Vector_8" d="M84.2888 49.9989V47.5942C84.2888 46.0959 82.4018 44.875 80.0858 44.875C77.7699 44.875 75.8828 46.0959 75.8828 47.5942V52.4037C75.8828 53.902 77.7699 55.1229 80.0858 55.1229C82.4018 55.1229 84.2888 53.902 84.2888 52.4037V49.9989Z" fill="#D4D727"/>
<path id="Vector_9" d="M71.6794 50V27.5434C71.6794 26.0451 69.7924 24.8242 67.4764 24.8242C65.1605 24.8242 63.2734 26.0451 63.2734 27.5434V72.475C63.2734 73.9733 65.1605 75.1942 67.4764 75.1942C69.7924 75.1942 71.6794 73.9733 71.6794 72.475V50.0184V50Z" fill="#D4D727"/>
<path id="Vector_10" d="M59.0466 50.002V12.6176C59.0466 11.1193 57.1596 9.89844 54.8436 9.89844C52.5277 9.89844 50.6406 11.1193 50.6406 12.6176V87.4049C50.6406 88.9032 52.5277 90.1241 54.8436 90.1241C57.1596 90.1241 59.0466 88.9032 59.0466 87.4049V50.002Z" fill="#D4D727"/>
<path id="Vector_11" d="M46.4294 50V2.7192C46.4294 1.22087 44.5424 0 42.2264 0C39.9105 0 38.0234 1.22087 38.0234 2.7192V97.2808C38.0234 98.7791 39.9105 100 42.2264 100C44.5424 100 46.4294 98.7791 46.4294 97.2808V50Z" fill="#D4D727"/>
<path id="Vector_12" d="M33.8279 50.0002V36.8481C33.8279 35.3498 31.9408 34.1289 29.6249 34.1289C27.3089 34.1289 25.4219 35.3498 25.4219 36.8481V63.1707C25.4219 64.669 27.3089 65.8899 29.6249 65.8899C31.9408 65.8899 33.8279 64.669 33.8279 63.1707V50.0187V50.0002Z" fill="#D4D727"/>
<path id="Vector_13" d="M21.2185 49.9981V44.7817C21.2185 43.2834 19.3314 42.0625 17.0155 42.0625C14.6996 42.0625 12.8125 43.2834 12.8125 44.7817V55.2146C12.8125 56.7129 14.6996 57.9338 17.0155 57.9338C19.3314 57.9338 21.2185 56.7129 21.2185 55.2146V49.9981Z" fill="#D4D727"/>
</g>
<defs>
<clipPath id="clip0_555_9706">
<rect width="160" height="100" fill="white"/>
</clipPath>
</defs>
</svg>
