<svg width="160" height="100" viewBox="0 0 160 100" fill="none" xmlns="http://www.w3.org/2000/svg">
<g id="Layer_1" clip-path="url(#clip0_555_9516)">
<path id="Vector" d="M96.2731 36.2092C83.094 36.2092 77.031 25.8823 71.6796 16.763C67.2107 9.16356 62.9979 1.98055 55.711 1.98055C48.054 1.98055 44.5813 7.66449 40.8809 13.6816C36.8673 20.24 32.3415 27.652 21.3256 27.8602C9.51278 28.1309 0.432541 17.7832 0.0625 17.3459L2.36814 16.2841C2.36814 16.2841 10.7937 25.8823 20.984 25.8823C21.0979 25.8823 21.1833 25.8823 21.2972 25.8823C30.5766 25.7157 34.3909 19.4696 38.4329 12.8904C42.3041 6.56102 46.3176 0.0234375 55.7394 0.0234375C65.1612 0.0234375 69.374 7.78942 74.213 16.0134C79.479 24.9662 84.9157 34.252 96.3016 34.252C107.687 34.252 111.445 26.9441 115.088 19.886C118.333 13.6191 121.664 7.12317 130.63 7.12317C140.507 7.12317 144.635 12.0992 148.278 16.5131C151.438 20.3232 154.17 23.6129 160.006 23.6129V25.6116C152.633 25.6116 149.217 21.51 145.944 17.5541C142.357 13.2235 138.97 9.14274 130.63 9.14274C123.542 9.14274 120.81 14.4519 117.622 20.6147C113.836 27.9643 109.538 36.2716 96.2731 36.2716V36.2092Z" fill="#D4D727"/>
<path id="Vector_2" d="M96.3842 38.8715C83.7459 38.8715 77.3698 28.9818 71.7338 20.2581C67.0371 12.971 62.5966 6.07949 55.6228 6.07949C48.2789 6.07949 44.6069 11.5344 40.7073 17.3016C36.466 23.5686 31.684 30.6891 21.152 30.8765C21.0382 30.8765 20.8959 30.8765 20.782 30.8765C9.56692 30.8765 0.429756 21.2159 0.03125 20.7995L2.27996 19.6752C2.27996 19.6752 10.9902 28.8777 20.782 28.8777C20.8674 28.8777 20.9813 28.8777 21.0667 28.8777C29.9761 28.7112 33.9896 22.7358 38.2593 16.4272C42.3582 10.3685 46.571 4.10156 55.6228 4.10156C64.6746 4.10156 69.1435 11.5344 74.2102 19.4253C79.7608 28.0241 85.4822 36.9144 96.3842 36.9144C107.286 36.9144 111.328 29.8979 115.228 23.1313C118.701 17.1143 122.259 10.9098 130.855 10.9098C140.305 10.9098 144.575 15.6777 148.304 19.9042C151.549 23.5686 154.367 26.7333 159.974 26.7333V28.732C152.887 28.732 149.414 24.797 146.027 21.0077C142.326 16.8436 138.854 12.9294 130.855 12.9294C124.052 12.9294 121.12 18.0304 117.733 23.9225C113.691 30.9598 109.079 38.9131 96.3558 38.9131L96.3842 38.8715Z" fill="#D4D727"/>
<path id="Vector_3" d="M96.4953 41.5351C84.3978 41.5351 77.7086 32.0827 71.8164 23.7338C66.892 16.7589 62.2238 10.1797 55.5346 10.1797C48.5038 10.1797 44.6326 15.4056 40.5337 20.923C35.8655 27.2108 31.055 33.7067 20.95 33.8941C10.0196 34.1231 0.42697 24.6499 0 24.2543L2.19178 23.0675C2.19178 23.0675 11.4143 32.1035 20.8646 31.8745C29.3756 31.7079 33.6168 26.0032 38.1142 19.9445C42.4124 14.1564 46.8813 8.16016 55.5346 8.16016C64.1879 8.16016 68.913 15.2807 74.2359 22.7968C80.0427 31.0209 86.0772 39.5156 96.4953 39.5156C106.913 39.5156 111.24 32.8114 115.396 26.3155C119.267 20.3192 122.911 14.6353 131.108 14.6353C140.16 14.6353 144.515 19.1949 148.358 23.2132C151.717 26.7111 154.592 29.7508 159.943 29.7508V31.7496C153.168 31.7496 149.582 28.0019 146.109 24.3584C142.295 20.3817 138.708 16.634 131.08 16.634C124.59 16.634 121.459 21.506 117.815 27.1691C113.489 33.8941 108.593 41.5143 96.4384 41.5143L96.4953 41.5351Z" fill="#D4D727"/>
<path id="Vector_4" d="M96.6091 44.1793C85.0809 44.1793 78.0502 35.1641 71.8733 27.1899C66.6928 20.5274 61.7968 14.2396 55.4207 14.2396C48.7031 14.2396 44.6326 19.2365 40.306 24.5249C35.4101 30.5211 30.3434 36.7048 20.7223 36.8922C20.6084 36.8922 20.4946 36.8922 20.3807 36.8922C10.1334 36.8922 0.42697 28.0852 0 27.7104L2.13485 26.4612C2.13485 26.4612 11.4428 34.8934 20.4092 34.8934C20.4946 34.8934 20.58 34.8934 20.6654 34.8934C28.7778 34.7477 33.446 29.0221 37.9719 23.5047C42.4978 17.9665 47.166 12.2617 55.4207 12.2617C63.6755 12.2617 68.6568 19.0491 74.2359 26.2322C80.3273 34.0814 86.6465 42.2013 96.6091 42.2013C106.572 42.2013 111.155 35.7887 115.595 29.605C119.694 23.8795 123.565 18.4662 131.393 18.4662C140.046 18.4662 144.515 22.8176 148.443 26.6486C151.888 30.0006 154.848 32.8947 159.972 32.8947V34.8934C153.51 34.8934 149.81 31.3123 146.28 27.8561C142.38 24.046 138.68 20.4649 131.393 20.4649C125.188 20.4649 121.857 25.1287 117.986 30.5211C113.403 36.9338 108.223 44.2001 96.6091 44.2001V44.1793Z" fill="#D4D727"/>
<path id="Vector_5" d="M96.7515 46.8455C85.7641 46.8455 78.4202 38.2467 71.9587 30.6681C66.5504 24.3179 61.4268 18.3217 55.3638 18.3217C48.9593 18.3217 44.6896 23.0895 40.1352 28.1281C35.0116 33.812 29.7171 39.7041 20.58 39.8707C20.4661 39.8707 20.3807 39.8707 20.2669 39.8707C10.4465 39.8915 0.42697 31.5218 0 31.1678L2.04946 29.8561C2.04946 29.8561 11.8128 38.0385 20.4661 37.8928C28.2085 37.747 33.1044 32.3129 37.8296 27.0454C42.5547 21.7779 47.4506 16.3438 55.3354 16.3438C63.2201 16.3438 68.4291 22.798 74.2644 29.6271C80.6405 37.1224 87.2443 44.8468 96.7515 44.8468C106.259 44.8468 111.098 38.7464 115.794 32.8334C120.121 27.3785 124.22 22.2359 131.678 22.2359C139.904 22.2359 144.487 26.3791 148.557 30.0227C152.087 33.229 155.161 35.9773 160.028 35.9773V37.9761C153.852 37.9761 150.094 34.5824 146.451 31.2927C142.608 27.8366 138.651 24.2347 131.706 24.2347C125.814 24.2347 122.256 28.6902 118.157 33.8328C113.318 39.9332 107.824 46.8455 96.7515 46.8455Z" fill="#D4D727"/>
<path id="Vector_6" d="M96.8653 49.5118C86.4188 49.5118 78.7903 41.3502 72.0441 34.1672C66.3796 28.1293 61.0283 22.4245 55.2784 22.4245C49.187 22.4245 44.6896 26.9634 39.936 31.7729C34.5846 37.1653 29.0624 42.7452 20.3807 42.9117C20.2669 42.9117 20.1815 42.9117 20.0676 42.9117C10.7312 42.8909 0.42697 34.9584 0 34.6252L1.99253 33.2719C1.99253 33.2719 12.1544 41.0795 20.2953 40.913C27.6392 40.7672 32.7629 35.6038 37.7157 30.5861C42.6686 25.5892 47.7922 20.4258 55.25 20.4258C62.7077 20.4258 68.2014 26.547 74.2644 33.0429C80.9251 40.1634 87.842 47.513 96.8369 47.513C105.832 47.513 110.984 41.7041 115.937 36.0827C120.491 30.9192 124.818 26.0264 131.905 26.0264C139.733 26.0264 144.43 29.9615 148.557 33.4177C152.201 36.4574 155.332 39.0808 159.943 39.0808V41.0795C154.079 41.0795 150.237 37.8524 146.508 34.7293C142.551 31.4397 138.481 28.0252 131.905 28.0252C126.298 28.0252 122.37 32.4599 118.214 37.1653C113.119 42.9534 107.312 49.5118 96.8084 49.5118H96.8653Z" fill="#D4D727"/>
<path id="Vector_7" d="M96.982 52.1572C87.1047 52.1572 79.4762 44.766 72.1323 37.6246C66.2401 31.899 60.661 26.4857 55.1958 26.4857C49.4175 26.4857 44.7208 30.7955 39.7395 35.3552C34.1604 40.4562 28.4105 45.7445 20.1842 45.8903C11.1609 46.0568 0.486685 38.395 0.03125 38.0618L1.93838 36.6461C1.93838 36.6461 12.1572 43.9124 19.8996 43.9124C19.985 43.9124 20.0419 43.9124 20.1273 43.9124C27.0727 43.7874 32.4525 38.8738 37.6046 34.1268C42.7567 29.4006 48.1081 24.5078 55.1673 24.5078C62.2266 24.5078 67.9765 30.2959 74.2956 36.4379C81.241 43.1836 88.4426 50.1584 96.982 50.1584C105.521 50.1584 110.93 44.6411 116.167 39.3111C120.949 34.4183 125.475 29.817 132.221 29.817C139.622 29.817 144.433 33.523 148.674 36.8126C152.26 39.5817 155.648 42.1843 160.003 42.1843V44.183C154.452 44.183 150.496 41.1224 146.681 38.1868C142.639 35.0637 138.455 31.8157 132.193 31.8157C126.87 31.8157 122.743 36.0215 118.359 40.477C112.979 45.9527 106.916 52.1572 96.9535 52.1572H96.982Z" fill="#D4D727"/>
<path id="Vector_8" d="M97.093 54.8209C87.7566 54.8209 79.8434 47.8461 72.1864 41.1211C66.0381 35.7078 60.2313 30.586 55.0507 30.586C49.5855 30.586 44.6896 34.6668 39.4805 38.9974C33.7022 43.8069 27.7246 48.783 19.9537 48.9287C11.5851 49.0536 0.455435 41.8498 0 41.5583L1.82174 40.0801C1.82174 40.0801 12.3537 46.9508 19.6691 46.9508C19.7545 46.9508 19.8114 46.9508 19.8968 46.9508C26.4722 46.8259 32.0512 42.1829 37.4595 37.7066C43.0671 33.0428 48.39 28.6289 55.0792 28.6289C61.7684 28.6289 67.7175 34.1047 74.2928 39.8927C81.5513 46.2845 89.0375 52.8846 97.093 52.8846C105.149 52.8846 110.841 47.6795 116.364 42.6202C121.373 38.0189 126.127 33.6674 132.475 33.6674C139.477 33.6674 144.401 37.1652 148.728 40.2466C152.4 42.87 155.873 45.3476 160 45.3476V47.3464C154.762 47.3464 150.721 44.4732 146.821 41.6832C142.665 38.7268 138.367 35.6662 132.475 35.6662C127.436 35.6662 123.11 39.6429 118.498 43.8694C112.862 49.0328 106.486 54.8833 97.093 54.8833V54.8209Z" fill="#D4D727"/>
<path id="Vector_9" d="M97.2097 57.4858C88.4141 57.4858 80.2163 50.9274 72.2746 44.598C65.8701 39.497 59.8356 34.6667 54.9681 34.6667C49.816 34.6667 44.6923 38.5185 39.2841 42.5993C33.278 47.1173 27.0727 51.781 19.7857 51.9059C19.7003 51.9059 19.615 51.9059 19.5296 51.9059C11.6164 51.9059 0.486685 45.2643 0.03125 44.9728L1.7676 43.4321C1.7676 43.4321 12.8688 50.0529 19.7288 49.9072C25.9056 49.7823 31.7409 45.4308 37.3485 41.2043C43.1837 36.8112 48.7059 32.668 54.9966 32.668C61.2873 32.668 67.4926 37.8106 74.3241 43.2447C81.4972 48.9703 89.6665 55.487 97.2382 55.487C104.81 55.487 110.816 50.5734 116.594 45.8056C121.832 41.475 126.813 37.3942 132.762 37.3942C139.366 37.3942 144.376 40.6838 148.816 43.5778C152.602 46.0554 156.16 48.3873 160.06 48.3873V50.3861C155.135 50.3861 151.179 47.8043 147.023 45.0769C142.753 42.287 138.341 39.3929 132.791 39.3929C128.037 39.3929 123.483 43.1614 118.644 47.1381C112.751 51.9892 106.091 57.4858 97.2666 57.4858H97.2097Z" fill="#D4D727"/>
<path id="Vector_10" d="M97.3208 60.1273C89.0945 60.1273 80.5835 53.9853 72.3572 48.0724C66.0096 43.4919 59.4343 38.7448 54.8515 38.7448C50.0125 38.7448 44.6896 42.3676 39.0251 46.1985C32.8198 50.425 26.3868 54.7765 19.5552 54.9014C19.4698 54.9014 19.3845 54.9014 19.3275 54.9014C11.8982 54.9222 0.4839 48.697 0 48.4263L1.65095 46.844C1.65095 46.844 12.8091 52.9235 19.3275 52.9235C19.3845 52.9235 19.4414 52.9235 19.5268 52.9235C25.3336 52.8194 31.3681 48.7178 37.2033 44.7411C43.2663 40.6395 48.9877 36.7461 54.8799 36.7461C60.7721 36.7461 67.2336 41.5556 74.2928 46.6566C81.7506 52.049 90.2046 58.1494 97.3492 58.1494C104.494 58.1494 110.728 53.5273 116.791 49.0509C122.256 45.0118 127.436 41.1808 133.015 41.1808C139.192 41.1808 144.316 44.2622 148.842 46.9689C152.713 49.3007 156.385 51.4869 160.028 51.4869V53.4856C155.417 53.4856 151.375 51.0705 147.134 48.5096C142.75 45.8862 138.225 43.1796 133.015 43.1796C128.575 43.1796 123.793 46.719 118.726 50.4667C112.578 55.0055 105.632 60.1481 97.3492 60.1481L97.3208 60.1273Z" fill="#D4D727"/>
<path id="Vector_11" d="M97.4346 62.7936C89.7492 62.7936 80.9536 57.0888 72.4426 51.5506C65.8388 47.2616 59.0073 42.8269 54.7661 42.8269C50.2402 42.8269 44.4334 46.3872 38.7974 49.8225C32.3643 53.7575 25.7321 57.7967 19.356 57.9216C19.2706 57.9216 19.2137 57.9216 19.1283 57.9216C12.1829 57.9216 0.512364 52.1336 0 51.8837L1.53709 50.2389C4.78207 51.8629 14.1754 55.9853 19.2706 55.9229C24.6789 55.8188 30.9696 51.9878 37.0326 48.2818C43.2948 44.4509 49.2439 40.8281 54.7376 40.8281C60.2313 40.8281 66.6074 45.0963 74.2359 50.0515C81.9783 55.09 90.7454 60.7948 97.4062 60.7948C104.067 60.7948 110.614 56.4642 116.933 52.3001C122.626 48.5316 128.006 44.9714 133.215 44.9714C138.993 44.9714 143.974 47.7197 148.842 50.3638C152.827 52.5291 156.556 54.5904 159.972 54.5904V56.5891C155.673 56.5891 151.546 54.3405 147.219 51.967C142.722 49.5102 138.082 46.9701 133.243 46.9701C129.087 46.9701 124.078 50.2806 118.783 53.7784C112.379 58.0049 105.149 62.7936 97.4346 62.7936Z" fill="#D4D727"/>
<path id="Vector_12" d="M97.5485 65.4585C90.4323 65.4585 81.3236 60.1702 72.5565 55.0275C65.725 51.03 58.6373 46.9076 54.6807 46.9076C50.4679 46.9076 44.4334 50.218 38.5697 53.4244C31.9374 57.0471 25.0774 60.8156 19.1567 60.9197C19.0998 60.9197 19.0144 60.9197 18.9575 60.9197C12.496 60.9405 0.540829 55.5689 0 55.3398L1.42323 53.6326C4.72514 55.1108 14.2039 58.9418 18.9006 58.9418C18.9575 58.9418 19.0144 58.9418 19.0429 58.9418C24.0811 58.8585 30.5711 55.2774 36.8902 51.842C43.3802 48.2818 49.5286 44.9297 54.6237 44.9297C59.7189 44.9297 66.3227 48.8855 74.2074 53.4868C82.2345 58.1714 91.3147 63.4806 97.4916 63.4806C103.668 63.4806 110.813 59.2749 117.104 55.5689C123.024 52.0711 128.603 48.7814 133.442 48.7814C138.794 48.7814 143.889 51.3215 148.842 53.7783C152.912 55.7979 156.755 57.7134 159.943 57.7134V59.7121C155.93 59.7121 151.745 57.6301 147.333 55.4231C142.722 53.1329 137.968 50.7802 133.471 50.7802C129.6 50.7802 124.391 53.8616 118.84 57.1304C111.866 61.232 104.665 65.4793 97.4916 65.4793L97.5485 65.4585Z" fill="#D4D727"/>
<path id="Vector_13" d="M97.6651 68.1052C91.0898 68.1052 81.7249 63.2333 72.6447 58.5071C65.557 54.8219 58.2415 50.9909 54.5696 50.9909C50.6699 50.9909 44.3792 54.0723 38.3163 57.0288C31.4847 60.3601 24.397 63.8163 18.9603 63.9204C18.9033 63.9204 18.8179 63.9204 18.761 63.9204C12.7834 63.9412 0.572079 59.0068 0.03125 58.7777L1.36909 57.0288C4.78485 58.4238 14.4913 62.0465 18.9033 61.9216C23.5431 61.8383 30.2892 58.5487 36.8076 55.3632C43.5253 52.0944 49.8729 48.9922 54.5696 48.9922C59.2663 48.9922 66.0978 52.6357 74.2102 56.8623C82.5219 61.1929 91.9437 66.1065 97.6367 66.1065C103.33 66.1065 110.787 62.2131 117.363 58.7777C123.767 55.4257 129.289 52.5316 133.758 52.5316C138.683 52.5316 143.892 54.8635 148.93 57.1329C153.114 59.0068 157.042 60.7765 159.974 60.7765V62.7752C156.274 62.7752 152.004 60.8598 147.507 58.8402C142.782 56.7165 137.914 54.5304 133.758 54.5304C130.172 54.5304 124.735 57.3828 118.957 60.4017C111.727 64.191 104.24 68.1052 97.6367 68.1052H97.6651Z" fill="#D4D727"/>
<path id="Vector_14" d="M97.779 70.7689C91.7445 70.7689 82.0949 66.2925 72.7585 61.9827C65.4431 58.589 57.843 55.0912 54.4842 55.0912C50.8976 55.0912 44.3792 57.9227 38.0601 60.6502C31.0293 63.7108 23.7423 66.8547 18.761 66.9379C18.7041 66.9379 18.6472 66.9379 18.5902 66.9379C13.0681 66.9379 0.572079 62.4199 0.03125 62.2117L1.25523 60.4212C4.72792 61.6912 14.5198 64.9184 18.5618 64.9184C18.5902 64.9184 18.6472 64.9184 18.7041 64.9184C22.9738 64.8351 29.9192 61.8161 36.6653 58.9013C43.6107 55.9032 50.1576 53.0508 54.4842 53.0508C58.8108 53.0508 65.8416 56.382 74.2102 60.2546C82.8066 64.2313 92.5415 68.7285 97.779 68.7285C103.016 68.7285 110.787 65.1474 117.59 62.0035C124.223 58.9429 129.944 56.2988 134.015 56.2988C138.54 56.2988 143.835 58.4432 148.958 60.5045C153.057 62.1493 157.27 63.8565 159.974 63.8565V65.8553C156.587 65.8553 152.26 64.1064 147.649 62.2534C142.81 60.3171 137.829 58.2975 134.015 58.2975C130.741 58.2975 124.792 61.0458 119.042 63.69C111.556 67.1461 103.814 70.7272 97.7505 70.7272L97.779 70.7689Z" fill="#D4D727"/>
<path id="Vector_15" d="M97.8956 73.4338C92.4304 73.4338 82.4678 69.3739 72.8467 65.4597C65.2751 62.3782 57.4473 59.1719 54.3731 59.1719C51.0997 59.1719 44.3251 61.7536 37.7782 64.2521C30.2066 67.1461 23.062 69.8736 18.5645 69.9568C18.5076 69.9568 18.4507 69.9568 18.3938 69.9568C13.4409 69.9568 1.4288 66.1259 0.0625 65.6679L1.17262 63.8357C4.78764 65.0016 14.978 68.083 18.5076 67.9373C22.3788 67.8748 29.5804 65.1265 36.5258 62.4615C43.6704 59.7341 50.445 57.1523 54.3731 57.1523C58.3013 57.1523 65.5597 60.1713 74.1561 63.6899C83.0371 67.3127 93.1136 71.4143 97.8672 71.4143C102.621 71.4143 110.705 68.1663 117.792 65.2723C124.652 62.5032 130.573 60.1088 134.273 60.1088C138.372 60.1088 143.781 62.0451 149.018 63.9189C153.203 65.418 157.558 66.9795 159.977 66.9795V68.9783C156.903 68.9783 152.491 67.3959 147.823 65.7095C143.098 64.023 137.775 62.1076 134.302 62.1076C131.313 62.1076 125.136 64.606 119.159 67.0212C111.416 70.165 103.389 73.413 97.8956 73.413V73.4338Z" fill="#D4D727"/>
<path id="Vector_16" d="M98.0045 76.078C93.0801 76.078 82.8612 72.4344 72.9555 68.9158C65.1277 66.1259 57.0438 63.2527 54.2827 63.2527C51.3224 63.2527 44.3201 65.5845 37.517 67.8539C29.7461 70.4357 22.4023 72.8925 18.3603 72.9549C18.3033 72.9549 18.2464 72.9549 18.2179 72.9549C13.7205 72.9549 1.48071 69.5196 0.0859375 69.1032L1.0822 67.2502C4.78261 68.2912 14.973 70.977 18.3318 70.9562C21.8045 70.8937 29.5754 68.312 36.4069 66.0426C43.7792 63.5858 50.7531 61.2539 54.3112 61.2539C57.8693 61.2539 65.327 63.9814 74.1795 67.1252C83.3451 70.394 93.7348 74.0792 98.0329 74.0792C102.331 74.0792 110.7 71.1436 118.072 68.541C125.16 66.0426 131.251 63.8981 134.582 63.8981C138.282 63.8981 143.776 65.6262 149.099 67.3126C153.397 68.6659 157.837 70.0817 160.029 70.0817V72.0805C157.268 72.0805 152.97 70.7272 148.017 69.1448C143.206 67.6249 137.713 65.8968 134.582 65.8968C131.877 65.8968 125.473 68.1663 119.239 70.3316C111.241 73.1423 102.957 76.0572 98.0329 76.0572L98.0045 76.078Z" fill="#D4D727"/>
<path id="Vector_17" d="M98.1183 78.7442C93.7348 78.7442 83.2313 75.5171 73.0694 72.394C64.9854 69.9164 56.6453 67.3347 54.1973 67.3347C51.5501 67.3347 43.95 69.5208 37.2324 71.4571C29.2907 73.7473 21.776 75.8918 18.1895 75.9751H18.0472C14.0052 75.9751 1.50917 72.9145 0.0859375 72.5606L0.968343 70.6659C4.75415 71.6029 15.343 73.9556 18.1041 73.9556C21.2067 73.8931 29.1768 71.6029 36.2361 69.5833C43.8646 67.3971 51.0662 65.3359 54.1973 65.3359C57.3284 65.3359 65.0424 67.7511 74.1226 70.541C83.5729 73.4559 94.3041 76.7455 98.1183 76.7455C101.933 76.7455 110.614 74.1221 118.271 71.8111C125.558 69.6041 131.877 67.6886 134.809 67.6886C138.083 67.6886 143.69 69.2293 149.099 70.7284C153.482 71.936 158.036 73.1852 160.001 73.1852V75.184C157.553 75.184 153.197 73.9764 148.131 72.5814C143.206 71.2281 137.599 69.6874 134.809 69.6874C132.39 69.6874 125.729 71.707 119.296 73.6432C111.041 76.1417 102.502 78.7234 98.1183 78.7234V78.7442Z" fill="#D4D727"/>
<path id="Vector_18" d="M98.2322 81.4066C94.4179 81.4066 83.6298 78.575 73.1833 75.8475C65.2416 73.7655 56.2468 71.4128 54.0834 71.4128C51.7778 71.4128 43.8646 73.3491 36.8908 75.0356C28.7499 77.0135 21.0644 78.8873 17.9618 78.9498H17.8479C14.2898 78.9498 1.5661 76.2848 0.0859375 75.9725L0.854484 74.057C6.4051 75.2229 15.4284 76.951 17.8194 76.951C17.8194 76.951 17.8764 76.951 17.9048 76.951C20.609 76.9094 28.8068 74.9106 36.0368 73.1409C44.2347 71.1422 51.3224 69.4141 54.0834 69.4141C56.5314 69.4141 63.2775 71.1213 74.0941 73.9529C83.829 76.493 94.8733 79.387 98.2322 79.387C101.591 79.387 110.557 77.0968 118.471 75.0564C125.985 73.1409 132.504 71.4753 135.065 71.4753C137.94 71.4753 143.605 72.8286 149.099 74.1195C153.596 75.1813 158.236 76.2848 159.972 76.2848V78.2835C157.837 78.2835 153.397 77.2425 148.273 76.0141C143.235 74.8273 137.513 73.474 135.065 73.474C132.959 73.474 126.042 75.2438 119.381 76.951C110.87 79.1372 102.046 81.3857 98.2322 81.3857V81.4066Z" fill="#D4D727"/>
<path id="Vector_19" d="M98.341 84.052C95.2953 84.052 86.4428 82.1782 73.2921 79.305C65.1227 77.5144 55.8432 75.4948 53.993 75.4948C52.0005 75.4948 43.8027 77.1605 36.5726 78.6387C28.261 80.3252 20.4332 81.9283 17.7859 81.97H17.6721C14.5694 81.97 1.58954 79.7006 0.109375 79.4299L0.764063 77.4936C6.51393 78.5138 15.6511 80.0337 17.7006 79.9712C20.0062 79.9296 28.4317 78.2223 35.8326 76.7024C45.6529 74.7037 51.7728 73.4961 53.993 73.4961C56.2133 73.4961 63.0163 74.9743 74.0606 77.3895C84.0802 79.5756 95.4661 82.0532 98.341 82.0532C101.216 82.0532 110.524 80.0753 118.693 78.3472C127.66 76.4318 133.267 75.2866 135.317 75.2866C137.765 75.2866 143.287 76.3901 149.122 77.5561C153.506 78.4305 158.487 79.4091 159.967 79.4091V81.4078C158.117 81.4078 153.619 80.5125 148.41 79.4715C143.258 78.4513 137.395 77.2854 135.317 77.2854C133.495 77.2854 126.35 78.8053 119.433 80.2835C110.666 82.1574 101.586 84.0728 98.3125 84.0728L98.341 84.052Z" fill="#D4D727"/>
<path id="Vector_20" d="M98.4577 86.7183C95.9243 86.7183 86.901 85.1567 73.4087 82.7624C64.9832 81.2633 55.4475 79.5769 53.9104 79.5769C52.231 79.5769 43.7201 80.9718 36.2054 82.2211C27.7514 83.616 19.7813 84.9277 17.5895 84.9693C15.2838 84.9693 1.67772 83.0747 0.140625 82.8457L0.681454 80.8886C6.289 81.7005 15.7108 82.9706 17.4756 82.9706H17.5325C19.4681 82.9289 28.036 81.5132 35.6076 80.2639C45.7695 78.5983 52.0602 77.5781 53.9104 77.5781C55.7606 77.5781 62.7345 78.8065 74.0634 80.8053C83.8837 82.5334 96.0951 84.6987 98.4861 84.6987C100.877 84.6987 110.498 83.0539 118.952 81.5964C128.146 80.0141 133.896 79.0564 135.633 79.0564C137.682 79.0564 143.29 79.9725 149.21 80.9302C153.708 81.6589 158.774 82.4917 159.998 82.4917V84.4905C158.575 84.4905 154.732 83.8867 148.612 82.8873C143.346 82.0337 137.369 81.0551 135.604 81.0551C134.095 81.0551 126.353 82.3876 119.55 83.5536C110.527 85.0943 101.19 86.6974 98.4577 86.6974V86.7183Z" fill="#D4D727"/>
<path id="Vector_21" d="M98.5715 89.3806C96.5505 89.3806 87.328 88.1314 73.5226 86.2159C64.8693 85.0291 55.049 83.6758 53.7966 83.6758C52.4303 83.6758 43.5493 84.8209 35.7215 85.8203C25.7019 87.1112 18.9842 87.9648 17.3902 87.9856H17.3048C15.113 87.9856 1.67772 86.4657 0.140625 86.2992L0.567595 84.3212C6.37439 84.9875 16.1093 85.9452 17.3048 85.9869C18.8419 85.9661 27.5521 84.8418 35.2376 83.8424C45.798 82.4891 52.2879 81.6562 53.7966 81.6562C55.3052 81.6562 62.3929 82.6348 74.0065 84.238C84.083 85.6329 96.6359 87.361 98.5715 87.361C100.507 87.361 110.84 85.9869 119.123 84.8834C128.573 83.6134 134.465 82.843 135.832 82.843C137.34 82.843 142.094 83.4468 149.182 84.3421C153.765 84.925 158.974 85.5913 159.941 85.5913V87.59C158.774 87.59 154.903 87.1112 148.698 86.2992C143.574 85.6538 137.198 84.8418 135.803 84.8418C134.579 84.8418 126.609 85.9036 119.578 86.8405C108.164 88.3604 100.536 89.3598 98.5146 89.3598L98.5715 89.3806Z" fill="#D4D727"/>
<path id="Vector_22" d="M98.7194 92.026C97.2108 92.026 87.8174 91.0891 73.642 89.6525C64.761 88.7572 54.713 87.737 53.7452 87.737C52.7205 87.737 42.9571 88.6531 35.1293 89.3818C24.7966 90.3604 18.4205 90.9434 17.225 90.9642H17.1681C15.4887 90.9642 2.76495 89.9232 0.203125 89.6941L0.516237 87.7162C6.37996 88.1951 16.001 88.9654 17.1396 88.9654H17.1681C18.3067 88.9654 27.0738 88.1326 34.7877 87.4039C45.832 86.3629 52.6351 85.7383 53.7737 85.7383C54.8269 85.7383 62.1707 86.467 74.0405 87.6746C84.4017 88.7156 97.2962 90.0273 98.7479 90.0273C100.2 90.0273 110.845 88.9863 119.413 88.1534C129.12 87.2165 135.126 86.6336 136.179 86.6336C137.318 86.6336 142.128 87.0708 149.301 87.7579C153.969 88.1951 159.292 88.6948 160.032 88.6948V90.6935C159.15 90.6935 155.25 90.3396 148.96 89.7358C143.722 89.2361 137.232 88.6323 136.179 88.6323C135.268 88.6323 127.042 89.4235 119.783 90.1314C108.056 91.2765 100.285 92.026 98.7479 92.026H98.7194Z" fill="#D4D727"/>
<path id="Vector_23" d="M98.8282 94.6897C97.832 94.6897 88.2394 94.0651 73.7508 93.1073C64.2436 92.4827 54.3949 91.8373 53.6548 91.8373C52.8862 91.8373 42.3258 92.4827 33.8434 93.0032C23.8807 93.607 17.7893 93.9818 17.0207 94.0026H16.9923C15.7398 94.0026 2.81685 93.2947 0.226562 93.1698L0.425815 91.1711C6.4034 91.5042 16.1099 92.0039 16.9638 92.0039C17.7039 92.0039 25.7879 91.5042 33.6156 91.0253C45.2008 90.3174 52.8862 89.8594 53.6548 89.8594C54.3664 89.8594 61.8526 90.3382 74.007 91.1502C84.6528 91.8581 97.8889 92.7118 98.8567 92.7118C99.8245 92.7118 110.812 92.0247 119.636 91.4625C129.599 90.8379 135.747 90.4423 136.43 90.4423C137.199 90.4423 142.038 90.7338 149.325 91.1919C154.078 91.4834 159.486 91.8165 160.027 91.8165V93.8152C159.458 93.8152 155.501 93.5654 149.097 93.1698C143.774 92.8367 137.113 92.4411 136.43 92.4411C135.747 92.4411 127.321 92.9824 119.864 93.4405C107.823 94.19 99.853 94.6897 98.8567 94.6897H98.8282Z" fill="#D4D727"/>
<path id="Vector_24" d="M98.9471 97.3572C98.4348 97.3572 88.6998 97.0449 73.8697 96.5661C64.1063 96.2538 54.0298 95.9414 53.5459 95.9206C52.9767 95.9206 39.3705 96.337 29.4364 96.6285C22.7187 96.8367 17.1681 97.0033 16.8265 97.0033C16.2287 97.0241 3.98893 96.691 0.203125 96.5869L0.316984 94.5881C6.63614 94.7547 16.2572 95.0045 16.7696 95.0045C17.0827 95.0045 22.6048 94.838 29.294 94.6298C42.7578 94.2342 53.0905 93.9219 53.5459 93.9219C53.8875 93.9219 60.349 94.1301 73.9836 94.5673C85.3979 94.9421 98.3494 95.3377 98.9471 95.3585C99.5164 95.3585 110.76 95.0045 119.812 94.7339C130.031 94.4216 136.321 94.2342 136.663 94.2342C137.033 94.2342 141.701 94.3799 149.358 94.6089C154.624 94.7755 159.634 94.9212 160.004 94.9212V96.92C159.719 96.92 156.332 96.8159 149.244 96.6077C143.836 96.4411 137.09 96.2329 136.663 96.2329C136.236 96.2329 127.953 96.4828 119.926 96.7326C107.572 97.1074 99.431 97.3572 98.9471 97.3572Z" fill="#D4D727"/>
<path id="Vector_25" d="M160.004 98H0.203125V99.9987H160.004V98Z" fill="#D4D727"/>
</g>
<defs>
<clipPath id="clip0_555_9516">
<rect width="160" height="100" fill="white"/>
</clipPath>
</defs>
</svg>
