<svg width="100" height="100" viewBox="0 0 100 100" fill="none" xmlns="http://www.w3.org/2000/svg">
<g clip-path="url(#clip0_624_84895)">
<path d="M15.1193 15.1231C-4.14273 34.3851 -4.14273 65.6149 15.1193 84.8769C34.3812 104.139 65.6111 104.139 84.8731 84.8769C104.135 65.6149 104.135 34.3851 84.8731 15.1231C65.6111 -4.1389 34.3812 -4.1389 15.1193 15.1231Z" stroke="#D4D727" stroke-width="2" stroke-miterlimit="10"/>
<path d="M23.1783 15.9136C6.73026 32.3616 6.73027 59.029 23.1783 75.477C39.6263 91.925 66.2937 91.925 82.7417 75.477C99.1897 59.029 99.1897 32.3616 82.7417 15.9136C66.2937 -0.534404 39.6263 -0.534406 23.1783 15.9136Z" stroke="#D4D727" stroke-width="1.8" stroke-miterlimit="10"/>
<path d="M55.9161 6.46888C36.6347 6.46888 21.004 22.0995 21.004 41.3809C21.004 60.6623 36.6347 76.293 55.9161 76.293C75.1975 76.293 90.8281 60.6623 90.8281 41.3809C90.8281 22.0995 75.1975 6.46888 55.9161 6.46888Z" stroke="#D4D727" stroke-width="1.6" stroke-miterlimit="10"/>
<path d="M58.8785 9.37035C43.5805 9.37035 31.1789 21.7719 31.1789 37.0699C31.1789 52.368 43.5805 64.7695 58.8785 64.7695C74.1766 64.7695 86.5781 52.368 86.5781 37.0699C86.5781 21.7719 74.1766 9.37035 58.8785 9.37035Z" stroke="#D4D727" stroke-width="1.4" stroke-miterlimit="10"/>
<path d="M61.8342 12.2661C50.5157 12.2661 41.3403 21.4415 41.3403 32.76C41.3403 44.0785 50.5157 53.2539 61.8342 53.2539C73.1527 53.2539 82.3281 44.0785 82.3281 32.76C82.3281 21.4415 73.1527 12.2661 61.8342 12.2661Z" stroke="#D4D727" stroke-width="1.2" stroke-miterlimit="10"/>
<path d="M64.7899 15.1618C57.451 15.1618 51.5017 21.1112 51.5017 28.4501C51.5017 35.7889 57.451 41.7383 64.7899 41.7383C72.1288 41.7383 78.0781 35.7889 78.0781 28.4501C78.0781 21.1112 72.1288 15.1618 64.7899 15.1618Z" stroke="#D4D727" stroke-miterlimit="10"/>
</g>
<defs>
<clipPath id="clip0_624_84895">
<rect width="100" height="100" fill="white" transform="matrix(-1 0 0 -1 100 100)"/>
</clipPath>
</defs>
</svg>
