<svg width="352" height="352" viewBox="0 0 352 352" fill="none" xmlns="http://www.w3.org/2000/svg">
<g clip-path="url(#clip0_624_74823)">
<path d="M298.769 298.767C366.571 230.965 366.571 121.035 298.769 53.2332C230.967 -14.569 121.038 -14.569 53.2355 53.2332C-14.5667 121.035 -14.5667 230.965 53.2355 298.767C121.038 366.569 230.967 366.569 298.769 298.767Z" stroke="#D4D727" stroke-width="2" stroke-miterlimit="10"/>
<path d="M270.417 295.988C328.314 238.091 328.314 144.222 270.417 86.3246C212.52 28.4276 118.651 28.4276 60.7536 86.3246C2.85662 144.222 2.85662 238.091 60.7536 295.988C118.651 353.885 212.52 353.885 270.417 295.988Z" stroke="#D4D727" stroke-width="1.8" stroke-miterlimit="10"/>
<path d="M155.187 329.234C223.058 329.234 278.078 274.214 278.078 206.344C278.078 138.473 223.058 83.4531 155.187 83.4531C87.3168 83.4531 32.2969 138.473 32.2969 206.344C32.2969 274.214 87.3168 329.234 155.187 329.234Z" stroke="#D4D727" stroke-width="1.6" stroke-miterlimit="10"/>
<path d="M144.753 319.013C198.602 319.013 242.255 275.36 242.255 221.51C242.255 167.661 198.602 124.008 144.753 124.008C90.9034 124.008 47.25 167.661 47.25 221.51C47.25 275.36 90.9034 319.013 144.753 319.013Z" stroke="#D4D727" stroke-width="1.4" stroke-miterlimit="10"/>
<path d="M134.342 308.824C174.183 308.824 206.48 276.526 206.48 236.685C206.48 196.844 174.183 164.547 134.342 164.547C94.5007 164.547 62.2031 196.844 62.2031 236.685C62.2031 276.526 94.5007 308.824 134.342 308.824Z" stroke="#D4D727" stroke-width="1.2" stroke-miterlimit="10"/>
<path d="M123.939 298.627C149.771 298.627 170.713 277.686 170.713 251.853C170.713 226.02 149.771 205.078 123.939 205.078C98.1057 205.078 77.1641 226.02 77.1641 251.853C77.1641 277.686 98.1057 298.627 123.939 298.627Z" stroke="#D4D727" stroke-miterlimit="10"/>
</g>
<defs>
<clipPath id="clip0_624_74823">
<rect width="352" height="352" fill="white"/>
</clipPath>
</defs>
</svg>
