<svg width="160" height="100" viewBox="0 0 160 100" fill="none" xmlns="http://www.w3.org/2000/svg">
<g id="Layer_1" clip-path="url(#clip0_555_9698)">
<path id="Vector" d="M160 52H0V54H160V52Z" fill="#4A4B2F"/>
<g id="Group">
<path id="Vector_2" d="M109.631 100C109.386 100 109.196 99.8726 109.196 99.7088L108.301 77.3794V87.7525C108.301 87.9163 108.111 88.0437 107.867 88.0437C107.622 88.0437 107.433 87.9163 107.433 87.7525L106.537 70.5187V94.7953C106.537 94.9591 106.347 95.0864 106.103 95.0864C105.859 95.0864 105.669 94.9591 105.669 94.7953L104.8 64.6406V69.0446C104.8 69.2084 104.61 69.3358 104.366 69.3358C104.068 69.3358 103.932 69.2084 103.905 69.0628L103.036 59.1265V77.2338C103.036 77.3976 102.846 77.525 102.602 77.525C102.385 77.525 102.168 77.3976 102.141 77.2338L101.272 58.7625V59.4904C101.272 59.6542 101.082 59.7816 100.838 59.7816C100.594 59.7816 100.404 59.6542 100.404 59.4904L99.4814 46.424V54.9954C99.4814 55.1592 99.2914 55.2866 99.0472 55.2866C98.8301 55.2866 98.613 55.1592 98.5859 54.9954L97.6903 41.4377V67.4249C97.6903 67.5887 97.5004 67.7161 97.2561 67.7161C97.0119 67.7161 96.8219 67.5887 96.8219 67.4249L95.9264 53.2666V67.2611C95.9264 67.4249 95.7365 67.5523 95.4922 67.5523C95.248 67.5523 95.058 67.4249 95.058 67.2611L94.1625 52.2475V63.9308C94.1625 64.0946 93.9725 64.222 93.7283 64.222C93.4841 64.2038 93.2941 64.0946 93.267 63.9308L92.3715 47.2975V81.6378C92.3715 81.8016 92.1815 81.929 91.9373 81.929C91.693 81.929 91.5031 81.8016 91.5031 81.6378L90.5804 62.293V65.9509C90.5804 66.1146 90.3905 66.242 90.1462 66.242C89.902 66.242 89.712 66.1146 89.712 65.9509L88.8437 49.5541V58.9445C88.8437 59.1083 88.6537 59.2357 88.4095 59.2357C88.1652 59.2357 87.9753 59.1083 87.9753 58.9445L87.0797 44.8226V85.7143C87.0797 85.8781 86.8898 86.0055 86.6455 86.0055C86.4013 86.0055 86.2114 85.8781 86.2114 85.7143L85.343 59.727V87.4067C85.343 87.5705 85.1801 87.6797 84.9088 87.6979C84.6645 87.6979 84.4746 87.5705 84.4746 87.4067L83.5791 61.0555V80.5641C83.5791 80.7279 83.3891 80.8553 83.1449 80.8553C82.9006 80.8553 82.7107 80.7279 82.7107 80.5641L81.8152 67.6251V67.8981C81.8152 68.0619 81.6252 68.1893 81.381 68.1893C81.1639 68.1893 80.9468 68.0801 80.9196 67.9163L80.0241 59.545V66.8244C80.0241 66.9882 79.8341 67.1156 79.5899 67.1156C79.3457 67.1156 79.1557 67.0064 79.1557 66.8426L78.2602 59.5268V66.424C78.2602 66.5878 78.0702 66.7152 77.826 66.7152C77.5818 66.7152 77.3918 66.5878 77.3918 66.4422L76.4963 56.4877V62.7479C76.4963 62.9117 76.3063 63.0391 76.0621 63.0391C75.7907 63.0391 75.6279 62.9299 75.6008 62.7662L74.7324 55.4322V73.1028C74.7324 73.2666 74.5424 73.394 74.2982 73.394C74.054 73.394 73.864 73.2666 73.864 73.1028L72.8871 58.6533C72.8871 58.6533 72.67 58.7989 72.5071 58.7989C72.2629 58.7989 72.073 58.6715 72.073 58.5077L71.2046 43.4941V70.4095C71.2046 70.5732 71.0146 70.7006 70.7704 70.7006C70.5261 70.7006 70.3362 70.5732 70.3362 70.4095L69.4407 47.1156V75.778C69.4407 75.9418 69.2507 76.0692 69.0065 76.0692C68.7622 76.0692 68.5723 75.9418 68.5723 75.778L67.7039 61.8744V74.6861C67.7039 74.8499 67.5139 74.9772 67.2697 74.9772C67.0255 74.9772 66.8355 74.8499 66.8355 74.6861L65.94 61.3103V81.0191C65.94 81.1829 65.75 81.3103 65.5058 81.3103C65.3158 81.3285 65.0716 81.1829 65.0445 81.0191L64.1218 51.0282V69.6633C64.1218 69.8089 63.959 69.9545 63.7147 69.9545C63.4434 69.9545 63.2805 69.8635 63.2263 69.7179L62.3308 66.3694V94.1401C62.3308 94.3039 62.1408 94.4313 61.8966 94.4313C61.6252 94.4313 61.4624 94.3039 61.4352 94.1401L60.5126 74.4313C60.4583 74.5587 60.2955 74.6497 60.0784 74.6497C59.8341 74.6497 59.6442 74.5223 59.6442 74.3585L58.7758 62.4022V96.3239C58.7758 96.4877 58.5858 96.6151 58.3416 96.6151C58.0974 96.6151 57.9074 96.4877 57.9074 96.3239L57.0119 69.081V87.7343C57.0119 87.8981 56.8219 88.0255 56.5777 88.0255C56.3877 88.0073 56.1435 87.8981 56.1164 87.7525L55.2208 78.4713V90.7552C55.2208 90.919 55.0309 91.0464 54.7867 91.0464C54.5424 91.0464 54.3525 90.919 54.3525 90.7552L53.4841 72.2657V82.8025C53.4841 82.9663 53.2941 83.0937 53.0499 83.0937C52.8057 83.0937 52.6157 82.9663 52.6157 82.8025L51.7473 68.808V90.919C51.7473 91.0828 51.5573 91.2102 51.3131 91.2102C51.0689 91.2102 50.8789 91.0828 50.8789 90.919L49.9834 65.6779V85.8599C49.9834 86.0237 49.7934 86.151 49.5492 86.151C49.305 86.151 49.115 86.0237 49.115 85.8599L48.2195 64.5496V93.8489C48.2195 94.0127 48.0024 94.1401 47.7853 94.1401C47.5411 94.1401 47.3511 94.0127 47.3511 93.8489L46.4827 61.8198V76.9063C46.4827 77.0701 46.2928 77.1974 46.0485 77.1974C45.8043 77.1974 45.6143 77.0701 45.6143 76.9063L44.746 53.6124V63.0937C44.746 63.2575 44.556 63.3849 44.3118 63.3849C44.0675 63.3849 43.8776 63.2575 43.8776 63.0937L42.982 48.535V57.707C42.982 57.8708 42.7921 57.9982 42.5479 57.9982C42.3036 57.9982 42.1137 57.8708 42.1137 57.707L41.2181 42.9663V50.5005C41.2181 50.6642 41.0282 50.7916 40.7839 50.7916C40.5668 50.7916 40.3497 50.6642 40.3226 50.5187L39.4542 41.2011V56.5241C39.4542 56.6879 39.2643 56.8153 39.02 56.8153C38.7758 56.8153 38.5858 56.6879 38.5858 56.5241L37.6903 31.101V66.2966C37.6903 66.4604 37.5275 66.5878 37.2561 66.5878C37.0119 66.5878 36.8219 66.4604 36.8219 66.2966L35.9535 41.4923V57.8526C35.9535 58.0164 35.7636 58.1438 35.5194 58.1438C35.2751 58.1438 35.0852 58.0164 35.0852 57.8526L34.1625 28.4986V49.6633C34.1625 49.8271 33.9725 49.9545 33.7283 49.9545C33.4841 49.9545 33.2941 49.8271 33.2941 49.6633L32.4257 32.7389V52.6479C32.4257 52.8116 32.1815 52.939 31.9915 52.939C31.7473 52.939 31.5573 52.8116 31.5573 52.6479L30.689 26.5696V58.7079C30.689 58.8717 30.499 58.9991 30.2548 58.9991C30.0105 58.9991 29.8206 58.8717 29.8206 58.7079L28.9251 40.0728V45.2229C28.9251 45.3867 28.7351 45.5141 28.4909 45.5141C28.1924 45.5141 28.0567 45.3867 28.0295 45.2229L27.134 25.8599V64.7862C27.134 64.95 26.9441 65.0773 26.6998 65.0773C26.4556 65.0773 26.2656 64.95 26.2656 64.7862V6.93358C26.2656 6.76979 26.4556 6.6424 26.6998 6.6424C26.9441 6.6424 27.134 6.76979 27.134 6.93358L28.0295 26.2966V21.9836C28.0295 21.8198 28.2195 21.6924 28.4637 21.6924C28.708 21.6924 28.8979 21.8198 28.8979 21.9836L29.7934 40.6187V0.618744C29.7934 0.454959 29.9834 0.291174 30.2276 0.327571C30.4719 0.327571 30.6618 0.454959 30.6618 0.618744L31.5302 26.697V16.0328C31.5302 15.869 31.7202 15.7416 31.9644 15.7416C32.2358 15.7416 32.3986 15.869 32.4257 16.0328L33.2941 32.9572V0.291174C33.2941 0.127389 33.4841 0 33.7283 0C33.9725 0 34.1625 0.127389 34.1625 0.291174L35.0852 29.6451V16.5059C35.0852 16.3421 35.2751 16.2147 35.5194 16.2147C35.7636 16.2147 35.9535 16.3421 35.9535 16.5059L36.8219 41.3103V6.6424C36.8219 6.47862 37.0662 6.31483 37.2561 6.35123C37.5004 6.35123 37.6903 6.47862 37.6903 6.6424L38.613 32.1201C38.613 31.9745 38.8029 31.8653 39.0472 31.8471C39.3185 31.8471 39.4814 31.9563 39.5085 32.1201L40.3769 41.4377V28.7898C40.3769 28.626 40.5668 28.4986 40.8111 28.4986C41.0553 28.4986 41.2453 28.626 41.2453 28.7898L42.1408 43.5305V34.4131C42.1408 34.2493 42.3308 34.1219 42.575 34.1219C42.8192 34.1219 43.0092 34.2493 43.0092 34.4131L43.9047 48.9718V30.1911C43.9047 30.0273 44.0947 29.8999 44.3389 29.8999C44.5289 29.8999 44.7731 30.0273 44.8002 30.1911L45.6686 53.485V29.7725C45.6686 29.6087 45.8586 29.4813 46.1028 29.4813C46.347 29.4813 46.537 29.6087 46.537 29.7725L47.4054 61.8016V43.7489C47.4054 43.5851 47.5953 43.4577 47.8396 43.4577C48.0838 43.4577 48.2738 43.5851 48.2738 43.7489L49.1693 65.0591V40.6187C49.1693 40.455 49.3592 40.3276 49.6035 40.3276C49.8477 40.364 50.0377 40.455 50.0648 40.6187L50.9603 65.8599V54.8863C50.9603 54.7225 51.1503 54.5951 51.3945 54.5951C51.6388 54.5951 51.8287 54.7225 51.8287 54.8863L52.6971 68.8808V53.9217C52.6971 53.758 52.8871 53.6306 53.1313 53.6306C53.3755 53.6306 53.5655 53.758 53.5655 53.9217L54.4339 72.4113V69.5541C54.4339 69.3904 54.6238 69.263 54.8681 69.263C55.1123 69.263 55.3023 69.3722 55.3294 69.5359L56.2249 78.8171V42.4386C56.2249 42.2748 56.3877 42.1292 56.6591 42.1474C56.9033 42.1474 57.0933 42.2748 57.0933 42.4386L57.9888 69.6997V50.6642C57.9888 50.5005 58.1788 50.3731 58.423 50.3731C58.6673 50.3731 58.8572 50.5005 58.8572 50.6642L59.7256 62.6206V55.869C59.7256 55.7052 59.9156 55.5778 60.1598 55.5778C60.404 55.5778 60.594 55.7052 60.594 55.869L61.4895 75.3048V63.3667C61.4895 63.2211 61.6523 63.0755 61.8966 63.0755C62.1679 63.0755 62.3308 63.1665 62.385 63.3121L63.2806 66.6606V22.2202C63.2806 22.0564 63.4434 21.9108 63.7147 21.929C63.959 21.929 64.1489 22.0564 64.1489 22.2202L65.0716 52.2111V48.353C65.0716 48.1893 65.2616 48.0619 65.5058 48.0619C65.75 48.0619 65.94 48.1893 65.94 48.353L66.8355 61.7288V47.9527C66.8355 47.7889 67.0255 47.6615 67.2697 47.6615C67.5139 47.6615 67.7039 47.7889 67.7039 47.9527L68.5723 61.838V23.8944C68.5723 23.7307 68.7622 23.6033 69.0065 23.6033C69.2507 23.6033 69.4407 23.7307 69.4407 23.8944L70.3362 47.1884V28.4258C70.3362 28.2621 70.5261 28.1347 70.7704 28.1347C71.0146 28.0983 71.2046 28.2621 71.2317 28.4258L72.2629 46.3512C72.2629 46.3512 72.4257 46.2966 72.5343 46.2966C72.7785 46.2966 72.9685 46.424 72.9685 46.5878L73.864 60.0364V48.0983C73.864 47.9345 74.054 47.8071 74.2982 47.8071C74.5153 47.8071 74.7324 47.9163 74.7595 48.0801L75.6279 55.414V46.97C75.6279 46.8062 75.8179 46.6788 76.0621 46.6788C76.3063 46.6788 76.4963 46.8062 76.4963 46.9518L77.3918 56.9063V52.5023C77.3918 52.3385 77.5818 52.2111 77.826 52.2111C78.0431 52.1747 78.2602 52.3203 78.2873 52.4841L79.1829 59.7998V51.5378C79.1829 51.374 79.3728 51.2466 79.6171 51.2466C79.807 51.2466 80.0512 51.3558 80.0784 51.5196L80.9739 59.8908V54.8317C80.9739 54.6679 81.1639 54.5405 81.4081 54.5405C81.6523 54.5405 81.8423 54.6679 81.8423 54.8317L82.7378 67.7707V35.1774C82.7378 35.0136 82.9278 34.8863 83.172 34.8863C83.4162 34.8863 83.6062 35.0136 83.6062 35.1774L84.5017 61.5287V33.7034C84.5017 33.5396 84.746 33.394 84.9359 33.4122C85.1801 33.4122 85.3701 33.5396 85.3701 33.7034L86.2385 59.6906V30.919C86.2385 30.7552 86.4285 30.6278 86.6727 30.6278C86.9169 30.6278 87.1069 30.7552 87.1069 30.919L88.0024 45.0409V32.848C88.0024 32.6843 88.1924 32.5569 88.4366 32.5569C88.6808 32.5569 88.8708 32.6843 88.8708 32.848L89.7392 49.2448V43.6579C89.7392 43.4941 89.9291 43.3667 90.1734 43.3667C90.4176 43.3303 90.6076 43.4941 90.6347 43.6579L91.5574 63.0027V30.9372C91.5574 30.7734 91.7473 30.646 91.9915 30.646C92.2358 30.646 92.4257 30.7734 92.4257 30.9372L93.3213 47.5705V37.525C93.3213 37.3612 93.5112 37.2338 93.7554 37.2338C93.9997 37.2338 94.1896 37.3612 94.1896 37.525L95.0852 52.5387V39.2357C95.0852 39.0719 95.2751 38.9445 95.5194 38.9445C95.7636 38.9445 95.9536 39.0719 95.9536 39.2357L96.8491 53.394V28.0983C96.8491 27.9345 97.039 27.8071 97.2833 27.8071C97.5275 27.8071 97.7175 27.9345 97.7175 28.0983L98.613 41.656V33.7944C98.613 33.6306 98.8029 33.5032 99.0472 33.5032C99.3457 33.5214 99.4814 33.6306 99.5085 33.7944L100.431 46.8608V40.0364C100.431 39.8726 100.621 39.7452 100.865 39.7452C101.11 39.7452 101.3 39.8726 101.3 40.0364L102.168 58.5077V49.1538C102.168 48.99 102.358 48.8626 102.602 48.8626C102.792 48.8626 103.036 48.99 103.063 49.1356L103.932 59.0719V33.9581C103.932 33.7944 104.122 33.667 104.366 33.667C104.61 33.667 104.8 33.7944 104.8 33.9581L105.669 64.1128V53.2848C105.669 53.121 105.859 52.9936 106.103 52.9936C106.347 52.9936 106.537 53.121 106.537 53.2848L107.433 70.5187V55.505C107.433 55.3412 107.622 55.2138 107.867 55.2138C108.111 55.2138 108.301 55.3412 108.301 55.505L109.196 77.8344V62.5296C109.196 62.3658 109.386 62.2384 109.631 62.2384C109.848 62.2384 110.065 62.3476 110.065 62.5114L110.96 69.8635V57.7252C110.96 57.5614 111.15 57.434 111.395 57.434C111.639 57.4158 111.829 57.5614 111.856 57.7252L112.724 70.2457V43.0391C112.724 42.8753 112.914 42.748 113.158 42.748C113.403 42.748 113.593 42.8753 113.593 43.0391L114.488 66.5514V61.0737C114.488 60.9099 114.678 60.7825 114.895 60.7825C114.895 60.7825 114.895 60.7825 114.922 60.7825C115.139 60.7825 115.329 60.8917 115.357 61.0373L116.252 65.9873V37.7252C116.252 37.5614 116.442 37.434 116.686 37.434C116.958 37.3976 117.12 37.5614 117.148 37.7252L118.043 55.3594V20.8553C118.043 20.6915 118.233 20.5641 118.477 20.5641C118.722 20.5641 118.911 20.6915 118.911 20.8553L119.807 38.9991V15.0136C119.807 14.8499 119.997 14.7225 120.241 14.7225C120.485 14.7225 120.675 14.8499 120.703 15.0136L121.598 42.1292V30.9008C121.598 30.737 121.788 30.6096 122.032 30.6096C122.276 30.6096 122.466 30.737 122.466 30.9008L123.335 44.6224V13.1938C123.335 13.03 123.525 12.9026 123.769 12.9026C124.013 12.9026 124.203 13.03 124.203 13.1938L125.072 33.3394V13.8126C125.072 13.6488 125.316 13.5032 125.506 13.5214C125.75 13.5214 125.94 13.6488 125.94 13.8126L126.836 38.8535V18.7989C126.836 18.6351 127.025 18.5077 127.27 18.5077C127.514 18.5077 127.704 18.6351 127.704 18.7989L128.627 33.0664V5.33212C128.627 5.16833 128.817 5.04095 129.061 5.04095C129.305 5.04095 129.495 5.16833 129.495 5.33212L130.363 29.6451V4.00364C130.363 3.83985 130.553 3.71247 130.798 3.71247C131.042 3.71247 131.232 3.83985 131.232 4.00364L132.1 24.5314V6.02366C132.1 5.85987 132.29 5.73248 132.534 5.73248C132.751 5.71429 132.968 5.85987 132.996 6.02366L133.891 23.4031V21.1647C133.891 21.0009 134.081 20.8735 134.325 20.8735C134.57 20.8735 134.76 21.0009 134.76 21.1647L135.628 38.4531V17.7434C135.628 17.5796 135.818 17.4522 136.062 17.4522C136.333 17.4522 136.496 17.5796 136.523 17.7434L137.392 37.3794V14.3039C137.392 14.1401 137.582 14.0127 137.826 14.0127C138.07 14.0127 138.26 14.1401 138.26 14.3039L139.129 47.6979V17.1975C139.129 17.0337 139.319 16.9063 139.563 16.9063C139.807 16.9063 139.997 17.0337 140.024 17.1975L140.892 48.3712V20.0182C140.892 19.8544 141.082 19.727 141.327 19.727C141.571 19.727 141.761 19.8544 141.761 20.0182L142.874 49.8453C142.874 49.8453 142.982 49.7907 143.091 49.8089C143.335 49.8089 143.525 49.9363 143.525 50.1001L144.393 67.5705V32.1565C144.393 31.9927 144.583 31.8653 144.827 31.8653C145.072 31.8653 145.262 31.9927 145.262 32.1565L146.157 54.9772V54.8499C146.157 54.6861 146.347 54.5587 146.591 54.5587C146.836 54.5587 147.025 54.6861 147.025 54.8499L147.921 75.1228V57.1974C147.921 57.0337 148.111 56.9063 148.328 56.9063C148.328 56.9063 148.328 56.9063 148.355 56.9063C148.572 56.9063 148.762 57.0155 148.789 57.1611L149.685 61.9836V38.6897C149.685 38.5259 149.875 38.3985 150.119 38.3985C150.363 38.3985 150.553 38.5259 150.553 38.6897L151.449 55.6506V41.3285C151.449 41.1647 151.639 41.0373 151.883 41.0373C152.127 41.0555 152.317 41.1647 152.344 41.3285L153.267 62.4568V45.4231C153.267 45.2593 153.457 45.1319 153.701 45.1319C153.945 45.1319 154.135 45.2593 154.135 45.4231V82.9845C154.135 83.1483 153.945 83.2757 153.701 83.2757C153.457 83.2757 153.267 83.1483 153.267 82.9845L152.344 61.8562V72.2839C152.344 72.4477 152.154 72.5751 151.91 72.5751C151.639 72.5751 151.476 72.4477 151.449 72.2839L150.553 55.323V66.8062C150.553 66.97 150.363 67.0974 150.146 67.0974C150.146 67.0974 150.146 67.0974 150.119 67.0974C149.902 67.0974 149.712 66.9882 149.685 66.8426L148.789 62.02V95.0136C148.789 95.1774 148.599 95.3048 148.355 95.3048C148.111 95.3048 147.921 95.1774 147.921 95.0136L147.025 74.7407V77.8708C147.025 78.0346 146.836 78.162 146.591 78.162C146.347 78.162 146.157 78.0346 146.157 77.8708L145.262 55.05V85.2593C145.262 85.4231 145.072 85.5505 144.827 85.5505C144.583 85.5505 144.393 85.4231 144.393 85.2593L143.498 67.3885C143.443 67.5159 143.281 67.6069 143.063 67.6069C142.819 67.6069 142.629 67.4795 142.629 67.3157L141.734 43.7307V79.7998C141.734 79.9636 141.544 80.091 141.3 80.091C141.055 80.091 140.865 79.9636 140.865 79.7998L139.997 48.626V81.9472C139.997 82.111 139.807 82.2384 139.563 82.2384C139.319 82.2384 139.129 82.111 139.129 81.9472L138.26 48.5532V57.5432C138.26 57.707 138.07 57.8344 137.826 57.8344C137.555 57.8344 137.392 57.707 137.365 57.5432L136.496 37.9072V56.0328C136.496 56.1965 136.306 56.3239 136.062 56.3239C135.818 56.3239 135.628 56.1965 135.628 56.0328L134.76 38.7443V40.3276C134.76 40.4914 134.57 40.6187 134.325 40.6187C134.081 40.6187 133.891 40.4914 133.891 40.3276L132.996 22.9481V45.4231C132.996 45.5869 132.806 45.7143 132.561 45.7143C132.317 45.7143 132.127 45.5869 132.127 45.4231L131.259 24.8954V54.1583C131.259 54.3221 131.069 54.4495 130.825 54.4495C130.58 54.4495 130.39 54.3221 130.39 54.1583L129.522 29.8453V46.8972C129.522 47.061 129.332 47.1884 129.088 47.1884C128.844 47.1884 128.654 47.061 128.654 46.8972L127.731 32.6297V63.6397C127.731 63.8035 127.514 63.9126 127.297 63.9308C127.053 63.9308 126.863 63.8035 126.863 63.6397L125.967 38.5987V53.7216C125.967 53.8853 125.777 54.0127 125.533 54.0127C125.343 54.0309 125.099 53.8853 125.072 53.7216L124.203 33.576V58.4349C124.203 58.5987 124.013 58.7261 123.769 58.7261C123.525 58.7261 123.335 58.5987 123.335 58.4349L122.466 44.7134V69.0992C122.466 69.263 122.276 69.3904 122.032 69.3904C121.788 69.3904 121.598 69.263 121.598 69.0992L120.703 41.9836V57.1793C120.703 57.343 120.513 57.4704 120.268 57.4704C120.024 57.4704 119.834 57.343 119.834 57.1793L118.939 39.0355V72.7206C118.939 72.8844 118.749 73.0118 118.504 73.0118C118.26 73.0118 118.07 72.8844 118.07 72.7206L117.175 55.0864V70.7006C117.175 70.8644 116.985 70.9918 116.768 70.9918C116.768 70.9918 116.768 70.9918 116.741 70.9918C116.523 70.9918 116.333 70.8826 116.306 70.737L115.411 65.7871V89.6815C115.411 89.8453 115.221 89.9727 114.977 89.9727C114.732 89.9727 114.542 89.8453 114.542 89.6815L113.647 66.1692V82.7298C113.647 82.8935 113.457 83.0209 113.213 83.0209C112.968 83.0209 112.779 82.8935 112.779 82.7298L111.91 70.2093V76.9063C111.91 77.0701 111.72 77.1974 111.476 77.1974C111.232 77.161 111.042 77.0883 111.015 76.9245L110.119 69.5723V99.5996C110.119 99.7634 109.929 99.8908 109.685 99.8908L109.631 100Z" fill="#D4D727"/>
<path id="Vector_3" d="M25.3272 81.6732C25.083 81.6732 24.893 81.5458 24.893 81.382L23.9704 52.028C23.7804 52.2464 23.1562 52.1372 23.1562 51.8642V26.3501C23.1562 26.1863 23.3462 26.059 23.5904 26.059C23.8889 26.059 24.0246 26.1863 24.0518 26.3501L24.9202 53.5203V21.1818C24.9202 21.018 25.1101 20.8906 25.3544 20.8906C25.5986 20.8906 25.7885 21.018 25.7885 21.1818V81.382C25.7885 81.5458 25.5986 81.6732 25.3544 81.6732H25.3272Z" fill="#D4D727"/>
<path id="Vector_4" d="M15.3092 81.4932C15.065 81.4932 14.875 81.3658 14.875 81.202V16.9982C14.875 16.8344 15.065 16.707 15.3092 16.707C15.5534 16.707 15.7434 16.8344 15.7434 16.9982V81.202C15.7434 81.3658 15.5534 81.4932 15.3092 81.4932Z" fill="#D4D727"/>
<path id="Vector_5" d="M21.7381 93.8319C21.4939 93.8319 21.3039 93.7045 21.3039 93.5407L20.4084 66.4797V71.4479C20.4084 71.6117 20.2184 71.7391 19.9742 71.7391C19.7571 71.7209 19.54 71.6299 19.5129 71.4661L18.6445 64.023V77.5443C18.6445 77.7081 18.4545 77.8355 18.2103 77.8355C17.9661 77.8355 17.7761 77.7081 17.7761 77.5443L16.8806 65.8428V91.1203C16.8806 91.2841 16.6906 91.4115 16.4464 91.4115C16.2022 91.4115 16.0122 91.2841 16.0122 91.1203L15.1438 56.9256V69.0093C15.1438 69.1731 14.9538 69.3005 14.7096 69.3005C14.4654 69.3005 14.2754 69.1731 14.2754 69.0093L13.3528 54.1413V73.0493C13.3528 73.2131 13.1628 73.3405 12.9186 73.3405C12.6743 73.3405 12.4844 73.2131 12.4844 73.0493V39.7281C12.4844 39.5644 12.6743 39.437 12.9186 39.437C13.1628 39.437 13.3528 39.5644 13.3528 39.7281L14.2754 54.5962V22.4943C14.2754 22.3305 14.4654 22.2031 14.7096 22.2031C14.9538 22.2031 15.1438 22.3305 15.1438 22.4943L16.0122 56.689V54.3778C16.0122 54.214 16.2022 54.0867 16.4464 54.0867C16.6906 54.0867 16.8806 54.214 16.8806 54.3778L17.7761 66.0794V56.5252C17.7761 56.3615 17.9661 56.2341 18.2103 56.2341C18.4274 56.2341 18.6445 56.3433 18.6716 56.507L19.54 63.9502V39.3278C19.54 39.164 19.73 39.0366 19.9742 39.0366C20.2184 39.0366 20.4084 39.164 20.4084 39.3278L21.3039 66.3887V61.4206C21.3039 61.275 21.4667 61.1294 21.711 61.1294C21.9552 61.1294 22.1452 61.2204 22.1994 61.366L23.095 64.6599V40.8382C23.095 40.6745 23.2849 40.5471 23.5292 40.5471C23.7734 40.5471 23.9633 40.6745 23.9633 40.8382L24.8317 65.6426V54.7054C24.8317 54.5416 25.0217 54.4142 25.2659 54.4142C25.483 54.396 25.7001 54.5234 25.7273 54.6872L26.6228 62.1667V35.0512C26.6228 34.8874 26.8127 34.76 27.057 34.76C27.3012 34.76 27.4912 34.8874 27.4912 35.0512V69.5735C27.4912 69.7372 27.3012 69.8646 27.057 69.8646C26.8127 69.8464 26.6228 69.7554 26.5956 69.5917L25.7001 62.1121V90.8655C25.7001 91.0293 25.5102 91.1567 25.2659 91.1567C25.0217 91.1567 24.8317 91.0293 24.8317 90.8655L23.9633 66.0612V67.9174C23.9633 68.063 23.8005 68.2086 23.5563 68.2086C23.2849 68.2086 23.1221 68.1176 23.0678 67.972L22.1723 64.6781V93.5771C22.1723 93.7409 21.9823 93.8683 21.7381 93.8683V93.8319Z" fill="#D4D727"/>
<path id="Vector_6" d="M2.82482 80.0013C2.58058 80.0013 2.39062 79.8739 2.39062 79.7101V18.327C2.39062 18.1633 2.58058 18.0359 2.82482 18.0359C3.06905 18.0359 3.25901 18.1633 3.25901 18.327L4.15453 47.863V17.8175C4.15453 17.6537 4.34449 17.5263 4.58873 17.5263C4.83296 17.5263 5.02292 17.6537 5.02292 17.8175L5.8913 34.0322V12.2124C5.8913 12.0486 6.08126 11.9212 6.3255 11.9212C6.56973 11.9212 6.75969 12.0486 6.75969 12.2124L7.84517 36.3252C7.84517 36.3252 8.03513 36.2888 8.0894 36.2706C8.33364 36.2706 8.5236 36.398 8.5236 36.5618L9.41912 55.5245V27.1714C9.41912 27.0077 9.60908 26.8803 9.85331 26.8803C10.0975 26.8803 10.2875 27.0077 10.2875 27.1714L11.183 49.9376V10.2834C11.183 10.1196 11.373 9.99219 11.6172 9.99219C11.8615 9.99219 12.0514 10.1196 12.0514 10.2834V72.1578C12.0514 72.3216 11.8615 72.449 11.6172 72.449C11.373 72.449 11.183 72.3216 11.183 72.1578L10.2875 49.3916V74.3416C10.2875 74.5054 10.0975 74.6328 9.85331 74.6328C9.60908 74.6328 9.41912 74.5054 9.41912 74.3416L8.36077 51.9576C8.36077 51.9576 8.17081 52.0304 8.0894 52.0304C7.84517 52.0304 7.65521 51.903 7.65521 51.7392L6.75969 31.9394V50.3562C6.75969 50.5199 6.56973 50.6473 6.3255 50.6473C6.08126 50.6473 5.8913 50.5199 5.8913 50.3562L5.02292 34.1414V76.9986C5.02292 77.1623 4.83296 77.2897 4.58873 77.2897C4.34449 77.2897 4.15453 77.1623 4.1274 76.9986L3.23187 47.4626V79.6373C3.23187 79.8011 3.04191 79.9285 2.79768 79.9285L2.82482 80.0013Z" fill="#D4D727"/>
</g>
</g>
<defs>
<clipPath id="clip0_555_9698">
<rect width="160" height="100" fill="white"/>
</clipPath>
</defs>
</svg>
