<svg width="153" height="100" viewBox="0 0 153 100" fill="none" xmlns="http://www.w3.org/2000/svg">
<g id="Layer_1" clip-path="url(#clip0_555_9651)">
<path id="Vector" d="M76.5133 100C75.3391 100 74.6719 96.5247 72.3234 83.2027C70.909 75.0937 68.9341 64.0034 66.0785 49.9489C63.2496 36.0307 61.3014 24.9915 59.887 16.9336C58.179 7.30835 57.0581 0.902896 56.2308 0.357751C55.4035 0.902896 54.2559 7.32538 52.5746 16.9336C51.1601 24.9915 49.2119 36.0136 46.383 49.9489C40.9921 76.4906 38.7237 85.3322 35.9749 85.3322C33.1994 85.3322 30.9576 76.4906 25.54 49.9489C23.2182 38.586 19.5353 31.8058 15.6656 31.8058C11.7959 31.8058 8.11303 38.586 5.79121 49.9489L0.533752 60.3066L0 60.1874L5.23077 49.8807C7.60597 38.1772 11.3956 31.4651 15.6389 31.4651C19.8823 31.4651 23.6719 38.1942 26.0471 49.9148C30.2104 70.4429 33.3595 84.9744 35.9215 84.9744C38.4835 84.9744 41.606 70.4429 45.7959 49.9148C48.6248 35.9966 50.573 24.9574 51.9874 16.9165C54.3626 3.50937 55.0298 0 56.2041 0C57.3783 0 58.0722 3.50937 60.4207 16.9165C61.8352 24.9744 63.7834 35.9966 66.6122 49.9148C69.4678 63.9693 71.416 75.0767 72.8571 83.1686C74.5385 92.7087 75.6593 99.063 76.4867 99.6252C77.314 99.063 78.4349 92.7087 80.1162 83.1686C81.5306 75.0596 83.5055 63.9693 86.3611 49.9148C91.752 23.3731 94.0204 14.5315 96.7959 14.5315C99.5714 14.5315 101.813 23.3731 107.204 49.9148C110.38 65.5366 114.009 82.1976 117.078 82.1976C120.148 82.1976 123.777 65.5366 126.953 49.9148C130.449 32.7087 134.559 29.0971 137.388 29.0971C140.217 29.0971 144.3 32.7087 147.823 49.9148L153.053 60.1874L152.52 60.3066L147.289 50C143.526 31.4651 139.122 29.4549 137.414 29.4549C135.706 29.4549 131.303 31.448 127.54 49.9659C122.523 74.6337 119.987 82.5554 117.105 82.5554C114.223 82.5554 111.688 74.6337 106.697 49.9659C102.534 29.4378 99.3846 14.9063 96.8226 14.9063C94.2606 14.9063 91.1382 29.4378 86.9482 49.9659C84.0926 64.0204 82.1444 75.1107 80.7033 83.2198C78.3548 96.5247 77.6876 100.017 76.5133 100.017V100Z" fill="#D4D727"/>
<path id="Vector_2" d="M76.5114 95.9455C75.177 95.9455 74.4298 92.2999 71.761 78.3646C70.4266 71.3118 68.5585 61.6696 66.0499 49.949C63.6213 38.4668 61.8599 29.3186 60.4455 21.9762C58.4439 11.5162 57.1362 4.61676 56.1754 4.27605C55.2681 4.61676 53.9604 11.5162 51.9588 21.9762C50.5444 29.3186 48.8097 38.4668 46.3544 49.949C40.8301 74.0716 38.6684 81.5844 35.9196 81.5844C33.1707 81.5844 31.0091 74.0716 25.4847 49.949C23.1629 39.8127 19.48 33.765 15.637 33.765C11.794 33.765 8.11109 39.8127 5.78927 49.949L0.665252 58.9268L0.078125 58.7905L5.22883 49.8467C7.63071 39.3868 11.4204 33.3731 15.6637 33.3731C19.907 33.3731 23.6966 39.3868 26.0985 49.8808C29.7814 65.9796 33.2775 81.1755 35.9463 81.1755C38.615 81.1755 42.0844 65.9626 45.794 49.8808C48.2225 38.3987 49.9839 29.2505 51.3717 21.9081C54.0938 7.61506 54.8678 3.86719 56.2288 3.86719C57.5899 3.86719 58.3638 7.61506 61.086 21.9081C62.5004 29.2505 64.2351 38.3987 66.6904 49.8808C69.199 61.6014 71.0404 71.2607 72.4015 78.2965C74.3497 88.4839 75.6307 95.213 76.5648 95.5367C77.4188 95.196 78.7265 88.4668 80.6747 78.2965C82.009 71.2437 83.8772 61.6014 86.3858 49.8808C91.323 27.0529 93.885 17.4958 96.8207 17.4958C99.7563 17.4958 102.318 27.0358 107.256 49.8808C110.591 65.1619 114.088 79.3016 117.103 79.3016C120.119 79.3016 123.615 65.1619 126.951 49.8808C128.872 41.3289 132.262 31.1415 137.386 31.1415C142.51 31.1415 145.899 41.3289 147.821 49.8808L152.945 58.7905L152.358 58.9268L147.207 49.983C143.444 33.3391 139.067 31.5503 137.359 31.5503C135.651 31.5503 131.274 33.3391 127.511 49.949C122.654 72.1977 120.039 79.7105 117.077 79.7105C114.114 79.7105 111.472 72.1977 106.642 49.949C102.852 32.4191 99.4894 17.9047 96.794 17.9047C94.0985 17.9047 90.7626 32.4191 86.9463 49.949C84.4376 61.6696 82.5962 71.3118 81.2351 78.3646C78.5663 92.2999 77.8191 95.9455 76.4847 95.9455H76.5114Z" fill="#D4D727"/>
<path id="Vector_3" d="M76.514 91.8727C75.0195 91.8727 74.1655 88.0737 71.1498 73.5762C69.8421 67.273 68.1875 59.4195 66.0525 49.9135C63.9975 40.7483 62.423 33.0822 61.142 26.9323C58.8468 15.825 57.3256 8.48254 56.2315 8.17589C55.1639 8.4655 53.6428 15.825 51.3476 26.9323C50.0666 33.0822 48.492 40.7483 46.4371 49.9135C41.233 69.7432 38.8311 77.8181 35.9756 77.8181C33.12 77.8181 30.6914 69.7432 25.514 49.9306C23.1655 41.0209 19.5093 35.7057 15.693 35.7057C11.8767 35.7057 8.22047 41.0209 5.87196 49.9306L0.801315 57.5626L0.1875 57.3922L5.23146 49.8113C7.63334 40.595 11.4497 35.2798 15.693 35.2798C19.9363 35.2798 23.726 40.595 26.1545 49.8624C29.8641 64.0192 33.3869 77.4093 35.9756 77.4093C38.5643 77.4093 42.0603 64.0362 45.7966 49.8624C47.8515 40.6972 49.4261 33.0481 50.7071 26.8812C53.8563 11.7193 54.7369 7.75 56.2581 7.75C57.7793 7.75 58.6867 11.7193 61.8092 26.8812C63.0902 33.0311 64.6647 40.6972 66.7197 49.8624C68.8814 59.3854 70.5093 67.2219 71.817 73.5422C74.0321 84.1554 75.4999 91.1742 76.5407 91.4808C77.5548 91.1742 78.996 84.1554 81.211 73.5422C82.5187 67.2389 84.1734 59.3854 86.3084 49.8624C91.6192 27.0686 93.9677 20.4757 96.7699 20.4757C99.5721 20.4757 101.947 27.0686 107.231 49.8624C110.327 62.997 113.903 76.4382 117.052 76.4382C120.202 76.4382 123.778 62.997 126.874 49.8624C128.822 42.2645 132.211 33.2185 137.335 33.2185C142.459 33.2185 145.875 42.2645 147.797 49.8624L152.814 57.3922L152.2 57.5626L147.156 49.9817C144.487 39.5899 140.911 33.6444 137.335 33.6444C133.759 33.6444 130.156 39.5728 127.514 49.9306C122.844 69.8113 120.095 76.8641 117.052 76.8641C114.01 76.8641 111.261 69.8113 106.591 49.9306C103.041 34.6325 99.5988 20.9016 96.7699 20.9016C93.941 20.9016 90.525 34.6325 86.9489 49.9306C84.7872 59.4365 83.1592 67.29 81.8515 73.5933C78.8358 88.1078 77.9818 91.8897 76.4873 91.8897L76.514 91.8727Z" fill="#D4D727"/>
<path id="Vector_4" d="M76.5121 87.8199C74.8575 87.8199 73.8166 83.5951 70.454 68.9102C69.2797 63.7484 67.8119 57.3259 65.9972 49.8813C64.3425 42.9136 62.9548 36.7808 61.8606 31.8404C59.2185 20.0687 57.4571 12.2833 56.2028 12.0619C54.9752 12.2833 53.2138 20.0687 50.5717 31.8404C49.4509 36.7637 48.0898 42.8966 46.4352 49.8642C41.071 67.3941 38.7758 74.021 35.9469 74.021C33.1181 74.021 30.8229 67.3941 25.4587 49.8642C23.1102 42.1811 19.454 37.5985 15.6644 37.5985C11.8747 37.5985 8.21853 42.1811 5.87002 49.8472V49.8983L0.906127 56.1334L0.265625 55.929L5.17614 49.728C7.6314 41.7211 11.4477 37.1215 15.6644 37.1215C19.881 37.1215 23.6973 41.7211 26.1526 49.745C30.049 62.5048 33.4116 73.5269 35.9469 73.5269C38.4823 73.5269 41.8449 62.5048 45.7413 49.745C47.3959 42.7944 48.7837 36.6615 49.8779 31.7211C53.4006 16.0653 54.4948 11.5508 56.2295 11.5508C57.9642 11.5508 59.0584 16.0653 62.5812 31.7211C63.702 36.6445 65.0631 42.7774 66.7177 49.745C68.5325 57.1896 70.0003 63.6121 71.1746 68.7739C73.6832 79.7791 75.3378 87.0533 76.5121 87.2918C77.6597 87.0533 79.3143 79.7791 81.8496 68.7739C83.0239 63.6121 84.4917 57.1896 86.3064 49.745C91.3504 29.762 93.8857 23.3566 96.7947 23.3566C99.7036 23.3566 102.266 29.762 107.283 49.745C110.112 60.8012 113.795 73.4758 117.077 73.4758C120.36 73.4758 124.016 60.7842 126.872 49.745C129.62 40.3583 133.357 35.1794 137.36 35.1794C141.363 35.1794 145.099 40.3412 147.848 49.6939L152.759 55.8949L152.118 56.0993L147.154 49.8131C144.512 40.8012 140.963 35.6394 137.36 35.6394C133.757 35.6394 130.208 40.8012 127.565 49.8131C123.055 67.3941 120.2 73.9188 117.077 73.9188C113.955 73.9188 111.099 67.377 106.589 49.7961C103.413 37.2237 99.7837 23.7995 96.7947 23.7995C93.8057 23.7995 90.1761 37.2237 87.0003 49.7961C85.1856 57.2407 83.7177 63.6632 82.5435 68.8251C79.2075 83.4929 78.1667 87.7348 76.4854 87.7348L76.5121 87.8199Z" fill="#D4D727"/>
<path id="Vector_5" d="M76.5082 83.7481C74.6401 83.7481 73.4658 79.404 69.7029 64.3785C68.6354 60.1536 67.4344 55.3836 65.9933 49.864C64.739 44.9577 63.6715 40.5795 62.7374 36.7294C59.7751 24.6851 57.6401 15.9798 56.2523 15.9798C54.8646 15.9798 52.7296 24.6851 49.7672 36.7294C48.8332 40.5795 47.739 44.9577 46.5114 49.864C40.987 64.9917 38.7986 70.2899 35.9964 70.2899C33.1942 70.2899 31.0059 64.9917 25.4815 49.881C23.133 43.4245 19.4768 39.5744 15.7139 39.5744C11.9509 39.5744 8.3214 43.4245 5.94621 49.881L5.89283 49.9492L1.06238 54.8214L0.421875 54.5488L5.22564 49.7107C7.70759 42.9475 11.5506 39.0633 15.7406 39.0633C19.9305 39.0633 23.7735 42.9645 26.2555 49.7447C30.3387 60.9372 33.5679 69.7618 36.0231 69.7618C38.4784 69.7618 41.7076 60.9202 45.7908 49.7447C47.0184 44.8555 48.1126 40.4773 49.0467 36.6272C53.0765 20.2047 54.3308 15.4688 56.3057 15.4688C58.2806 15.4688 59.5082 20.2047 63.5647 36.6272C64.4988 40.4773 65.593 44.8555 66.8206 49.7618C68.2617 55.2814 69.4627 60.0514 70.5302 64.2762C73.3057 75.2814 75.3073 83.2371 76.5883 83.2371C77.8693 83.2371 79.8709 75.2814 82.6464 64.2762C83.7139 60.0514 84.9148 55.2814 86.3559 49.7618C91.1864 32.266 93.8552 26.3716 96.8708 26.3716C99.8866 26.3716 102.555 32.266 107.386 49.7618C110.161 59.4892 113.764 70.6476 117.153 70.6476C120.543 70.6476 124.146 59.4892 126.921 49.7618C129.67 41.7209 133.406 37.2916 137.436 37.2916C141.466 37.2916 145.202 41.7038 147.951 49.7107L152.755 54.5488L152.114 54.8214L147.23 49.864C144.615 42.1979 141.039 37.8027 137.463 37.8027C133.887 37.8027 130.337 42.1979 127.695 49.864C123.345 65.1791 120.383 71.1417 117.18 71.1417C113.978 71.1417 111.015 65.1791 106.665 49.8469C103.356 37.9049 99.8866 26.8657 96.8975 26.8657C93.9085 26.8657 90.4391 37.9049 87.1299 49.8469C85.6888 55.3665 84.4878 60.1366 83.4203 64.3614C79.6307 79.404 78.4564 83.7311 76.615 83.7311L76.5082 83.7481Z" fill="#D4D727"/>
<path id="Vector_6" d="M76.5095 79.6923C74.4279 79.6923 73.1202 75.297 68.8235 60.016C67.9695 56.9836 67.0087 53.5935 65.9412 49.8456C65.1139 46.8473 64.3667 44.0705 63.6728 41.5321C60.15 28.4998 57.8282 19.8967 56.2003 19.8967C54.5723 19.8967 52.2505 28.4998 48.7277 41.5321C48.0339 44.0875 47.2866 46.8473 46.4593 49.8456C41.2285 61.4129 38.7999 66.5236 35.9177 66.5236C33.0354 66.5236 30.6069 61.4129 25.3761 49.8626C22.9742 44.5645 19.4248 41.5151 15.6351 41.5151C11.8455 41.5151 8.29603 44.5645 5.89414 49.8626L5.81408 49.9649L1.09038 53.4742L0.476562 53.1335L5.14689 49.6582C7.65553 44.1386 11.4985 40.987 15.6618 40.987C19.8251 40.987 23.6948 44.1727 26.2034 49.7093C30.4734 59.1471 33.5692 65.9785 35.9444 65.9785C38.3196 65.9785 41.4153 59.1471 45.6854 49.7093C46.486 46.7451 47.2332 43.9683 47.9271 41.4129C52.5707 24.2919 53.9852 19.3516 56.2269 19.3516C58.4687 19.3516 59.8832 24.2919 64.5268 41.4129C65.2207 43.9683 65.9679 46.7281 66.7952 49.7264C67.8627 53.4742 68.8235 56.8643 69.6775 59.8967C72.7999 71.0722 75.0684 79.1301 76.5362 79.1301C78.004 79.1301 80.2725 71.0551 83.3949 59.8967C84.2489 56.8643 85.2097 53.4742 86.2772 49.7264C90.8675 34.8541 93.723 29.3345 96.8188 29.3345C99.9145 29.3345 102.77 34.8541 107.36 49.7264C109.842 57.4776 113.552 67.7672 117.101 67.7672C120.651 67.7672 124.36 57.4776 126.842 49.7264C129.618 43.0313 133.354 39.3516 137.384 39.3516C141.414 39.3516 145.15 43.0143 147.899 49.6582L152.569 53.1165L151.955 53.4572L147.125 49.8456C144.51 43.5083 140.96 39.8797 137.384 39.8797C133.808 39.8797 130.258 43.5083 127.643 49.8456C123.453 62.9461 120.384 68.2953 117.101 68.2953C113.819 68.2953 110.75 62.9461 106.56 49.8286C103.517 39.9478 99.9679 29.8626 96.8188 29.8626C93.6696 29.8626 90.1202 39.9478 87.0778 49.8286C86.0103 53.5764 85.0496 56.9666 84.1955 59.9989C79.9255 75.28 78.5912 79.6752 76.5095 79.6752V79.6923Z" fill="#D4D727"/>
<path id="Vector_7" d="M76.5135 75.6364C74.1916 75.6364 72.6971 71.2242 67.8667 55.892C67.2796 54.001 66.6391 51.9908 65.9452 49.8272L64.851 46.2156C60.7945 32.7233 58.1257 23.7966 56.2309 23.7966C54.3361 23.7966 51.6673 32.7063 47.6108 46.2156L46.5166 49.8272C41.099 59.0436 38.7772 62.7574 35.9483 62.7574C33.1194 62.7574 30.7976 59.0436 25.4067 49.8613C23.0048 45.7897 19.4554 43.4558 15.6657 43.4558C11.8761 43.4558 8.35334 45.7897 5.92477 49.8613L5.87139 49.9465L1.14769 52.1441L0.640625 51.6841L5.15083 49.5887C7.68615 45.3298 11.5292 42.8937 15.6657 42.8937C19.8023 42.8937 23.672 45.3638 26.234 49.6569C30.6909 57.2037 33.6265 62.1782 35.975 62.1782C38.3235 62.1782 41.2591 57.1867 45.716 49.6569L46.7835 46.0964C51.9876 28.7199 53.7756 23.2344 56.2843 23.2344C58.7929 23.2344 60.5543 28.7369 65.785 46.0964L66.8792 49.708C67.5731 51.8715 68.2136 53.8817 68.8008 55.7727C72.457 67.3911 74.8855 75.0742 76.5935 75.0742C78.3015 75.0742 80.7034 67.3911 84.3863 55.7727C84.9734 53.8817 85.6139 51.8715 86.3078 49.708C90.7113 37.1867 93.6736 32.3144 96.8761 32.3144C100.079 32.3144 103.041 37.1867 107.444 49.6909C108.832 53.4558 113.049 64.8868 117.159 64.8868C121.269 64.8868 125.485 53.4388 126.873 49.6909C129.648 44.3417 133.411 41.4115 137.441 41.4115C141.444 41.4115 145.181 44.3076 147.956 49.5887L152.466 51.6841L151.959 52.1441L147.209 49.9465L147.156 49.8613C144.54 44.8528 140.991 41.9908 137.441 41.9908C133.892 41.9908 130.316 44.8528 127.727 49.8613C123.697 60.7983 120.521 65.4661 117.159 65.4661C113.796 65.4661 110.647 60.7812 106.59 49.8272C103.815 41.9397 100.185 32.8766 96.8761 32.8766C93.5668 32.8766 89.9373 41.9397 87.1618 49.8272C86.4679 51.9737 85.8274 54.001 85.2403 55.892C80.4099 71.2242 78.8887 75.6364 76.5935 75.6364H76.5135Z" fill="#D4D727"/>
<path id="Vector_8" d="M76.5187 71.5674C73.93 71.5674 72.1153 66.8826 66.7511 52.0615L65.9237 49.7957C61.6004 36.9678 58.4779 27.7003 56.2361 27.7003C53.9944 27.7003 50.8719 36.9678 46.5485 49.7957L46.4952 49.8809C41.3712 55.9456 38.8091 58.995 35.9536 58.995C33.098 58.995 30.5093 55.9456 25.412 49.8809C23.0101 47.0359 19.4606 45.4005 15.671 45.4005C11.8814 45.4005 8.35859 47.0359 5.93002 49.8809L5.82327 50.0001L1.09956 50.8349L0.859375 50.2557L5.18277 49.4891C7.77146 46.5078 11.5611 44.8042 15.6443 44.8042C19.7275 44.8042 23.6239 46.5419 26.1859 49.5913C30.8029 55.0768 33.6051 58.3988 35.9269 58.3988C38.2487 58.3988 41.0242 55.0938 45.6145 49.6424C51.2456 32.9133 53.3539 27.1211 56.2095 27.1211C59.065 27.1211 61.1467 32.9133 66.8044 49.6935L67.6317 51.9593C71.795 63.4243 74.5438 71.0053 76.492 71.0053C78.4402 71.0053 81.189 63.4243 85.3523 51.9593L86.1796 49.6935C90.423 39.472 93.492 35.3153 96.7746 35.3153C100.057 35.3153 103.126 39.472 107.37 49.6935C111.026 58.007 114.202 62.0615 117.057 62.0615C119.913 62.0615 123.089 58.024 126.745 49.6935C129.547 45.6901 133.31 43.5095 137.34 43.5095C141.37 43.5095 145.026 45.639 147.828 49.5231L152.151 50.2727L151.911 50.8519L147.161 50.0172L147.081 49.8979C144.465 46.1671 140.996 44.1058 137.366 44.1058C133.737 44.1058 130.268 46.1671 127.652 49.8979C123.782 58.7054 120.5 62.6577 117.084 62.6577C113.668 62.6577 110.385 58.7054 106.489 49.8639C104.007 43.8843 100.297 35.9286 96.8013 35.9286C93.3052 35.9286 89.5956 43.8843 87.1137 49.8639L86.2864 52.1126C80.9222 66.9337 79.0807 71.6185 76.5187 71.6185V71.5674Z" fill="#D4D727"/>
<path id="Vector_9" d="M76.5103 67.5116C73.6013 67.5116 71.2795 62.4008 65.8886 49.7944C61.752 39.147 58.6296 31.6172 56.2277 31.6172C53.8258 31.6172 50.7034 39.147 46.5668 49.7944V49.8795L46.46 49.9477C41.2826 53.4741 38.694 55.2458 35.9451 55.2458C33.1963 55.2458 30.6076 53.4741 25.4569 49.9477C23.0283 48.2952 19.4522 47.3582 15.6626 47.3582C11.8729 47.3582 8.29678 48.2952 5.86821 49.9477L5.68139 50.0669L0.984375 49.4707L1.17119 48.8574L5.33445 49.3855C7.94984 47.699 11.6861 46.7279 15.6359 46.7279C19.5856 46.7279 23.5354 47.7501 26.1241 49.5048C31.088 52.9119 33.5966 54.6155 35.9184 54.6155C38.2403 54.6155 40.6955 52.9289 45.606 49.5729C51.0236 35.6376 53.3187 31.0039 56.201 31.0039C59.0833 31.0039 61.3784 35.6547 66.8227 49.6581C71.1194 59.6751 74.2151 66.8983 76.4836 66.8983C78.752 66.8983 81.8478 59.6581 86.1445 49.641C90.201 41.6683 93.3768 38.2611 96.7662 38.2611C100.155 38.2611 103.305 41.6513 107.388 49.624C110.937 56.0295 114.113 59.164 117.049 59.164C119.984 59.164 123.16 56.0465 126.736 49.624L126.79 49.5559C129.592 46.9835 133.328 45.5525 137.331 45.5525C141.334 45.5525 144.911 46.9153 147.686 49.3855L151.796 48.8574L151.983 49.4707L147.232 50.084L147.046 49.9136C144.43 47.5116 140.961 46.1828 137.305 46.1828C133.648 46.1828 130.206 47.4945 127.617 49.8795C123.854 56.6427 120.491 59.7944 117.022 59.7944C113.553 59.7944 110.19 56.6257 106.427 49.8455C102.611 42.3838 99.5417 38.9085 96.7395 38.9085C93.9373 38.9085 90.8682 42.3838 87.0519 49.8284C81.661 62.4179 79.3391 67.5286 76.4302 67.5286L76.5103 67.5116Z" fill="#D4D727"/>
<path id="Vector_10" d="M76.5076 63.4415C73.4653 63.4415 70.9299 59.2848 65.886 49.7788C62.3632 42.249 58.9739 35.5028 56.2251 35.5028C53.4762 35.5028 50.0869 42.249 46.5909 49.7618L46.5108 49.9321L46.0037 50.0343C36.0493 51.9253 35.8624 51.9253 25.8813 50.0343L25.6411 49.9832C20.4103 49.0292 10.8828 49.0292 5.65208 49.9832L5.41189 50.0343L0.875 48.0241L1.46213 47.479L5.57202 49.3188C10.9896 48.3819 20.5971 48.3989 25.908 49.3699L26.1482 49.4211C32.6421 50.659 39.1361 50.659 45.6301 49.4211C50.2471 39.5573 53.0226 34.8555 56.1984 34.8555C59.3742 34.8555 62.1764 39.6085 66.8467 49.5914C70.9566 57.3086 74.0791 62.7941 76.481 62.7941C78.8828 62.7941 82.0053 57.3257 86.1419 49.5914C90.0383 43.7993 93.3208 41.2269 96.7635 41.2269C100.206 41.2269 103.489 43.7993 107.385 49.5573C110.801 54.0718 113.977 56.2694 117.046 56.2694C120.115 56.2694 123.291 54.0718 126.734 49.5403L126.787 49.4551L126.894 49.404C132.552 47.036 141.679 46.9849 147.443 49.2848L151.473 47.479L152.06 48.0241L147.443 50.0855L147.15 49.9662C141.759 47.7004 133.005 47.6834 127.561 49.9151C123.958 54.634 120.515 56.9338 117.019 56.9338C113.523 56.9338 110.027 54.617 106.398 49.8299C102.768 44.4807 99.6191 41.8742 96.7102 41.8742C93.8012 41.8742 90.6521 44.4636 87.0492 49.8129C82.0053 59.2848 79.47 63.4415 76.4276 63.4415H76.5076Z" fill="#D4D727"/>
<path id="Vector_11" d="M76.5187 59.3871C73.3963 59.3871 70.6208 56.3036 65.8704 49.7959C62.5878 44.3956 59.1718 39.4211 56.2095 39.4211C53.2471 39.4211 49.8311 44.3956 46.5752 49.7789L46.3617 50.1196L45.3743 49.83C39.0582 47.9447 32.7511 47.9447 26.4528 49.83L25.9991 49.9663C20.4748 51.6528 10.7872 51.6528 5.26283 49.9663L5.07602 49.8811L0.859375 46.5932L1.71338 46.1503L5.84996 49.37C11.054 50.9203 20.4214 50.9032 25.5454 49.3359L25.9991 49.1997C35.7934 46.2865 36.0069 46.2695 45.7746 49.1656C50.4716 41.4654 53.2204 38.7227 56.2095 38.7227C59.1985 38.7227 62.0273 41.5506 66.8578 49.5233C71.1812 55.4518 74.0101 58.6886 76.492 58.6886C78.974 58.6886 81.8029 55.4688 86.1529 49.5063C89.8625 45.9118 93.3319 44.1741 96.8013 44.1741C100.271 44.1741 103.713 45.8947 107.396 49.4552C113.881 54.6511 120.26 54.6681 126.798 49.4382L126.985 49.2848H127.279C132.749 49.7448 141.636 49.7448 147.214 49.3189L151.297 46.1503L152.151 46.5932L147.801 49.9833H147.588C142.063 50.4433 133.123 50.4433 127.465 50.0174C120.553 55.4518 113.428 55.4007 106.516 49.8641C103.02 46.491 99.8437 44.8726 96.8013 44.8726C93.7589 44.8726 90.5831 46.491 87.1137 49.847C82.4167 56.3036 79.6145 59.3871 76.5187 59.3871Z" fill="#D4D727"/>
<path id="Vector_12" d="M76.5122 55.3156C73.2296 55.3156 70.1339 53.3053 65.9172 49.8471C61.754 45.2645 58.8717 43.3224 56.2296 43.3224C53.5876 43.3224 50.7053 45.2645 46.5687 49.796L46.1684 50.2559L44.9942 49.336C40.5106 45.8437 38.0554 43.9357 35.9471 43.9357C33.8387 43.9357 31.3835 45.8607 26.9 49.336L26.2595 49.8471C23.5907 51.9425 19.721 53.152 15.6645 53.152C11.608 53.152 7.76496 51.9425 5.06952 49.8471L0.90625 45.1622L1.89369 44.8045L6.00358 49.4382C8.40547 51.3122 11.9549 52.4195 15.6378 52.4195C19.3207 52.4195 22.8701 51.3122 25.3254 49.3871L25.9926 48.876C30.8497 45.0941 33.2783 43.2031 35.9204 43.2031C38.5625 43.2031 40.991 45.0941 45.8482 48.876L45.9816 48.9783C50.1716 44.4467 53.1606 42.5898 56.203 42.5898C59.2453 42.5898 62.4212 44.566 66.8513 49.4212C70.721 52.5898 73.71 54.566 76.5122 54.566C79.3144 54.566 82.3034 52.5728 86.1998 49.3701L86.3332 49.2849C93.3788 46.3888 100.211 46.3888 107.23 49.2849C113.635 50.8863 120.493 50.8863 127.005 49.2508L127.325 49.1657L127.592 49.319C132.956 52.4195 141.657 52.4365 147.048 49.353L151.131 44.7704L152.118 45.1282L147.875 49.8641C142.164 53.1691 132.903 53.2202 127.085 50.0174C120.413 51.6358 113.368 51.6018 106.723 49.9323C100.024 47.1895 93.619 47.1725 87.0271 49.8641C82.8372 53.3053 79.7681 55.2985 76.4855 55.2985L76.5122 55.3156Z" fill="#D4D727"/>
<path id="Vector_13" d="M15.6424 55.0912C11.5592 55.0912 7.66277 53.1491 4.96733 49.759L0.9375 43.7283L2.03169 43.4217L6.03483 49.4183C8.51678 52.5188 12.0129 54.3076 15.6157 54.3076C19.2185 54.3076 22.7413 52.5188 25.2232 49.3842L26.0772 48.311C30.961 42.1781 33.2028 39.3672 35.8983 39.3672C38.5937 39.3672 40.8088 42.1611 45.7193 48.311L46.253 48.9754C53.6722 45.5171 59.0898 45.6023 66.6157 49.2139C74.6486 50.8834 78.3582 50.8834 86.4446 49.1968L86.6047 49.1628L86.7915 49.1968C93.2232 50.3553 100.322 50.3553 106.754 49.1968C113.159 47.0674 120.952 47.0674 127.49 49.2309L127.65 49.282L127.73 49.3842C130.319 52.1951 133.735 53.7283 137.365 53.7283C140.994 53.7283 144.383 52.1781 146.999 49.3842L150.975 43.4217L152.069 43.7283L148.066 49.7249C145.211 52.8084 141.421 54.495 137.365 54.495C133.361 54.495 129.598 52.8595 126.796 49.8612C120.551 47.834 113.426 47.851 107.208 49.9123C100.402 51.1559 93.3567 51.1559 86.6581 49.9634C78.465 51.65 74.4085 51.65 66.1887 49.9294L66.0019 49.8783C58.6094 46.3007 53.8323 46.3007 46.4399 49.8783L45.8794 50.1508L44.7052 48.6687C40.4618 43.3536 37.8998 40.1508 35.9516 40.1508C34.0034 40.1508 31.4414 43.3536 27.1981 48.6687L26.3441 49.742C23.6486 53.1321 19.7523 55.0742 15.6691 55.0742L15.6424 55.0912Z" fill="#D4D727"/>
<path id="Vector_14" d="M15.6404 57.0351C11.4772 57.0351 7.66084 54.4286 4.91201 49.6926L1.01562 42.3332L2.18988 42.0777L6.11296 49.4371C8.62159 53.7642 12.1177 56.2514 15.6671 56.2514C19.2166 56.2514 22.7126 53.7642 25.2213 49.4371L26.2621 47.6143C31.1993 39.1305 33.2276 35.6211 35.923 35.6211C38.6185 35.6211 40.6734 39.1305 45.5839 47.6143L46.5447 49.2497C53.35 50.7318 59.2213 50.7148 66.0533 49.2156C73.9795 45.4848 79.0768 45.5018 87.0031 49.2497L87.1365 49.3179C90.1255 51.771 93.4615 53.0657 96.7974 53.0657C100.133 53.0657 103.469 51.771 106.458 49.3179C109.607 46.3366 113.29 44.7352 117.08 44.7352C120.87 44.7352 124.579 46.3196 127.728 49.3349C130.37 53.4575 133.84 55.7915 137.363 55.7915C140.885 55.7915 144.355 53.4576 146.917 49.403L150.813 42.0606L151.987 42.3162L148.064 49.6756C145.235 54.139 141.446 56.5751 137.336 56.5751C133.226 56.5751 129.436 54.1219 126.607 49.6926C123.752 46.984 120.416 45.5189 117.053 45.5189C113.691 45.5189 110.355 46.984 107.419 49.7778C104.163 52.4524 100.48 53.8664 96.744 53.8664C93.0078 53.8664 89.3783 52.4865 86.1758 49.846C78.6499 46.2855 74.2731 46.3025 66.6938 49.88L66.5337 49.9311C59.2747 51.5495 53.0831 51.5495 45.8508 49.9311L45.5839 49.863L44.4363 47.8698C40.4332 40.9533 37.7644 36.3877 35.923 36.3877C34.0816 36.3877 31.4395 40.9533 27.4097 47.8698L26.3422 49.6926C23.5933 54.4286 19.777 57.0351 15.6137 57.0351H15.6404Z" fill="#D4D727"/>
<path id="Vector_15" d="M15.6339 58.9767C11.444 58.9767 7.62765 55.6718 4.87883 49.6411L1.0625 40.9188L2.31682 40.6974L6.13314 49.4197C8.66847 54.9563 12.1379 58.142 15.6606 58.142C19.1834 58.142 22.6261 54.9563 25.1881 49.4197L26.4424 46.694C31.4063 35.8592 33.2477 31.8047 35.9699 31.8047C38.692 31.8047 40.5335 35.8592 45.4973 46.694L46.725 49.3686C53.0233 55.8251 59.5617 55.8081 65.86 49.3175C69.703 44.5474 73.119 42.2987 76.5617 42.2987C80.0044 42.2987 83.3937 44.5304 87.2901 49.3345C90.1457 53.6616 93.535 56.0296 96.8443 56.0296C100.154 56.0296 103.543 53.6616 106.398 49.3686C109.441 44.4452 113.15 41.8558 117.154 41.8558C121.157 41.8558 124.84 44.4623 127.909 49.3856C130.497 54.7859 133.967 57.8524 137.436 57.8524C140.906 57.8524 144.375 54.7689 146.964 49.4026L150.78 40.6974L152.034 40.9188L148.218 49.6411C145.416 55.4674 141.599 58.6871 137.463 58.6871C133.326 58.6871 129.51 55.4844 126.708 49.6582C123.932 45.1778 120.543 42.6905 117.18 42.6905C113.818 42.6905 110.428 45.1778 107.653 49.6923C104.557 54.3941 100.821 56.8643 96.8977 56.8643C92.9746 56.8643 89.265 54.3771 86.1426 49.6923C82.5931 45.28 79.444 43.1335 76.5884 43.1335C73.7328 43.1335 70.6104 45.28 67.0342 49.7263C63.5915 53.2698 60.0154 55.0415 56.3058 55.0415C52.6229 55.0415 49.0201 53.2527 45.6041 49.7434L45.524 49.6411L44.2697 46.9154C40.4801 38.619 37.7313 32.6224 35.9966 32.6224C34.2619 32.6224 31.5131 38.619 27.7234 46.9154L26.4691 49.6411C23.7203 55.6548 19.8773 58.9767 15.714 58.9767H15.6339Z" fill="#D4D727"/>
<path id="Vector_16" d="M15.6398 60.9209C11.4499 60.9209 7.60684 56.9005 4.83133 49.6092L1.14844 39.524L2.45613 39.3196L6.16571 49.3877C8.72772 56.1509 12.1971 60.0351 15.6398 60.0351C19.0825 60.0351 22.5519 56.1509 25.1139 49.3877L26.555 45.6058C31.7324 31.9431 33.3337 28.0078 35.9224 28.0078C38.5111 28.0078 40.1123 31.9431 45.2897 45.6058L46.7309 49.3877C49.5597 54.9754 52.9491 58.076 56.205 58.076C59.4608 58.076 62.8502 54.9754 65.7057 49.3536C69.3353 41.7386 72.7513 38.1952 76.4875 38.1952C80.2238 38.1952 83.6398 41.7386 87.2693 49.3707C89.9648 55.4865 93.4341 58.9959 96.7701 58.9959C100.106 58.9959 103.549 55.4865 106.271 49.3877C109.207 42.5734 112.943 38.9789 117.053 38.9789C121.163 38.9789 124.926 42.5734 127.834 49.3877C130.423 56.0828 133.893 59.8988 137.335 59.8988C140.778 59.8988 144.221 56.0657 146.809 49.3877L150.519 39.3196L151.827 39.524L148.117 49.5921C145.288 56.9005 141.552 60.7676 137.309 60.7676C133.065 60.7676 129.329 56.9005 126.5 49.6092C123.831 43.4082 120.362 39.8306 117.026 39.8306C113.69 39.8306 110.221 43.3911 107.525 49.6092C104.563 56.3042 100.827 59.8477 96.7434 59.8477C92.6602 59.8477 88.8973 56.3042 85.9616 49.6092C81.7984 40.8869 78.5158 39.064 76.4608 39.064C74.4059 39.064 71.1233 40.9039 66.9601 49.6262C63.8643 55.725 60.128 58.9448 56.1783 58.9448C52.2018 58.9448 48.4922 55.725 45.3965 49.6262L43.9553 45.8102C40.3792 36.3383 37.5503 28.8766 35.8957 28.8766C34.2411 28.8766 31.4122 36.3553 27.836 45.8102L26.3949 49.5921C23.6194 56.8835 19.7764 60.9039 15.5864 60.9039L15.6398 60.9209Z" fill="#D4D727"/>
<path id="Vector_17" d="M137.363 62.8637C131.972 62.8637 128.503 55.6405 126.528 49.5758C123.966 41.7053 120.443 37.0034 117.081 37.0034C113.718 37.0034 110.195 41.7053 107.633 49.5758C105.658 55.6405 102.189 62.8637 96.7981 62.8637C91.4072 62.8637 87.9378 55.6405 85.9629 49.5758C81.853 36.9012 78.2769 35.0102 76.5155 35.0102C74.7541 35.0102 71.178 36.9012 67.0681 49.5588C65.0932 55.6235 61.6238 62.8467 56.2329 62.8467C50.842 62.8467 47.3727 55.6235 45.3978 49.5588L43.7698 44.5673C40.167 33.3918 37.5516 25.3339 35.9237 25.1124C34.2957 25.3339 31.707 33.3918 28.1042 44.5673L26.4763 49.5588C24.5014 55.6235 21.032 62.8467 15.6411 62.8467C10.2502 62.8467 6.78083 55.6235 4.80595 49.5588L1.20312 38.1278L2.59088 37.9574L6.19371 49.3884C8.75571 57.2589 12.2785 61.9608 15.6411 61.9608C19.0038 61.9608 22.5265 57.2589 25.0885 49.3884L26.7165 44.3969C31.8672 28.4003 33.335 24.2266 35.9237 24.2266C38.5124 24.2266 39.9802 28.4174 45.1309 44.3969L46.7589 49.3884C49.3209 57.2589 52.8436 61.9608 56.2063 61.9608C59.5689 61.9608 63.0917 57.2589 65.6537 49.3884C68.9896 39.1158 72.5391 34.1073 76.4888 34.1073C80.4386 34.1073 83.988 39.0988 87.324 49.3714C89.886 57.2419 93.4088 61.9438 96.7714 61.9438C100.134 61.9438 103.657 57.2419 106.219 49.3714C108.194 43.3066 111.663 36.0835 117.054 36.0835C122.445 36.0835 125.914 43.3066 127.889 49.3714C130.451 57.2419 133.974 61.9438 137.337 61.9438C140.699 61.9438 144.222 57.2419 146.784 49.3714L150.387 37.9404L151.775 38.1107L148.172 49.5417C146.197 55.6065 142.727 62.8296 137.337 62.8296L137.363 62.8637Z" fill="#D4D727"/>
</g>
<defs>
<clipPath id="clip0_555_9651">
<rect width="153" height="100" fill="white"/>
</clipPath>
</defs>
</svg>
