<svg width="160" height="100" viewBox="0 0 160 100" fill="none" xmlns="http://www.w3.org/2000/svg">
<g id="Group 27">
<path id="Vector" d="M96.6112 82.059C83.8048 82.059 78.1344 65.2489 72.655 49.0391C68.3225 36.1313 63.8308 22.7733 56.2807 22.7733C48.7307 22.7733 44.6531 33.3547 41.0214 43.6359C36.9438 55.2679 32.7387 67.2751 22.0668 67.5753C21.9393 67.5753 21.8119 67.5753 21.6845 67.5753C10.2798 67.5753 1.67855 50.54 1.32812 49.7896L2.76167 49.4143C2.76167 49.4143 11.363 66.5247 21.7163 66.5247C21.8119 66.5247 21.9075 66.5247 22.0349 66.5247C31.56 66.2245 35.6377 54.5925 39.5879 43.4107C43.5063 32.229 47.2016 21.7227 56.3126 21.7227C65.4236 21.7227 69.2782 34.2552 74.1842 48.814C79.2812 63.8981 85.0472 81.0084 96.6431 81.0084C108.239 81.0084 112.125 68.0256 115.853 55.418C119.102 44.3863 122.192 33.955 130.793 33.955C140.382 33.955 144.205 41.9849 147.9 49.7145C151.022 56.3185 153.985 62.4722 160.006 62.4722V63.5228C152.87 63.5228 149.748 56.9939 146.435 50.0147C142.931 42.5852 139.267 34.9306 130.761 34.9306C123.403 34.9306 120.44 44.9116 117.318 55.493C113.463 68.4758 109.481 81.9089 96.6112 81.9089V82.059Z" fill="#65662F"/>
<path id="Vector_2" d="M56.2084 67.5768C47.2477 67.5768 43.3254 61.0206 39.5307 54.7494C35.6084 48.1932 31.5904 41.4469 21.9282 41.2569C21.8325 41.2569 21.7049 41.2569 21.6093 41.2569C11.086 41.2569 2.60367 51.1387 2.53989 51.2337L1.32812 50.3786C1.6789 49.9035 10.3207 39.8316 21.6093 39.8316C21.7368 39.8316 21.8325 39.8316 21.9601 39.8316C32.5152 40.0216 36.7564 47.148 40.87 53.9893C44.601 60.2604 48.1406 66.1516 56.2084 66.1516C64.2762 66.1516 68.1666 58.7402 72.6629 50.8537C77.9245 41.732 83.8877 31.375 96.5794 31.375C109.271 31.375 113.544 39.7366 117.243 47.0529C120.464 53.4191 123.27 58.9302 130.764 58.9302C139.438 58.9302 143.041 54.4643 146.549 50.1885C149.738 46.2928 153.022 42.207 160.006 42.207V43.5373C153.819 43.5373 151.013 46.9579 147.761 50.9487C144.221 55.3195 140.203 60.2604 130.732 60.2604C122.25 60.2604 119.125 54.0843 115.808 47.528C112.109 40.2117 108.314 32.7052 96.5156 32.7052C84.7168 32.7052 79.2639 42.207 73.9704 51.5188C69.2508 59.7854 64.7864 67.5768 56.1446 67.5768H56.2084Z" fill="#65662F"/>
<path id="Vector_3" d="M96.3973 99.9417C83.7084 99.9417 78.3388 78.2051 71.5948 45.1049C67.6635 25.7576 62.7414 1.68998 55.9335 1.68998C48.774 1.68998 44.6828 20.8625 41.4227 36.2471C36.4047 59.9068 32.3136 75.4662 21.7341 75.9907C21.5743 75.9907 21.4465 75.9907 21.2867 75.9907C9.49271 75.9907 1.50221 51.3986 0 46.3869L3.00443 46.0956C6.5522 57.8671 14.4788 74.3007 21.1908 74.3007C21.2547 74.3007 21.3186 74.3007 21.4145 74.3007C30.2999 73.8345 34.7746 52.8555 38.3544 36.014C43.1167 13.6946 46.5047 0 55.9015 0C65.2983 0 68.7502 16.2587 74.5992 44.9301C79.4575 68.7063 85.4663 98.2518 96.3653 98.2518C107.264 98.2518 111.483 74.7669 114.871 55.8858C118.835 33.8578 121.679 20.338 130.629 20.338C141.016 20.338 144.692 33.1002 148.591 46.62C151.308 56.0023 154.664 67.7156 159.97 67.7156V69.4056C152.427 69.4056 149.582 60.8392 145.587 46.9114C142.391 35.8392 138.427 22.0862 130.661 22.0862C124.044 22.0862 120.656 40.9674 117.94 56.1189C113.881 78.6713 110.077 100 96.3973 100V99.9417Z" fill="#D4D727"/>
</g>
</svg>
