<svg width="159" height="100" viewBox="0 0 159 100" fill="none" xmlns="http://www.w3.org/2000/svg">
<g id="Layer_1" clip-path="url(#clip0_555_9648)">
<path id="Vector" d="M159 46.375H0V49.2736H159V46.375Z" fill="#4A4B2F"/>
<path id="Vector_2" d="M114.479 100C113.13 100 111.593 99.0297 111.431 96.9421L104.393 3.17554C104.285 1.8818 103.395 1.41135 102.64 1.41135C101.831 1.41135 100.968 1.94061 100.887 3.17554L96.7342 54.4546C96.5724 56.5422 95.0353 57.4831 93.6869 57.4831C92.3385 57.4831 90.8283 56.5422 90.6396 54.4546L88.6979 31.8436C88.59 30.6381 87.754 30.1676 87.0529 30.1088C86.3248 30.0206 85.4618 30.4322 85.2191 31.6084L81.5515 49.3678C81.174 51.2202 79.7717 52.0729 78.5042 51.9553C77.2637 51.9259 75.8614 51.0438 75.5648 49.1914C75.376 48.0153 74.54 47.5448 73.8119 47.6037C73.1107 47.6037 72.2478 48.0447 72.086 49.2502L66.6385 89.2679C66.3689 91.2967 64.7778 92.1788 63.5103 92.12C62.1889 92.0612 60.7057 91.0909 60.5709 89.0326L55.7707 17.7007C55.6898 16.4069 54.7729 15.9365 54.0448 15.9071C53.3436 15.9071 52.3728 16.3481 52.2649 17.6419L48.7861 55.9541C48.5973 57.983 47.0872 58.9533 45.7658 58.9533H45.7388C44.4174 58.9533 42.9342 58.0418 42.7184 56.0129L40.1835 32.9315C40.0487 31.726 39.1857 31.2555 38.4845 31.2261C37.8104 31.2261 36.8935 31.6084 36.7047 32.8139L33.3338 53.5431C33.0371 55.4249 31.6348 56.2776 30.3673 56.2776C29.0459 56.2776 27.6976 55.4837 27.32 53.6313L24.7851 40.2823C24.5693 39.1944 23.7603 38.7827 23.1131 38.7533C22.4659 38.7533 21.6299 39.0767 21.3602 40.1647L19.3377 47.9859C18.9601 49.456 17.8005 50.4263 16.3982 50.4263C14.9959 50.4263 13.8363 49.456 13.4588 47.9565L13.0812 46.4275C12.8385 45.4278 12.0834 45.0162 11.4362 45.0162C10.816 44.9574 10.0339 45.3102 9.71029 46.2805L9.19791 47.8095L7.98438 47.339L8.49676 45.8101C8.9552 44.3987 10.0878 43.5166 11.4901 43.6048C12.8655 43.6636 13.9711 44.6339 14.3217 46.0747L14.6993 47.6037C14.9689 48.6622 15.751 49.015 16.3982 49.0444C17.0454 49.0444 17.8275 48.6622 18.0972 47.6331L20.1197 39.8118C20.4973 38.3123 21.7647 37.3714 23.167 37.3714C24.5963 37.4302 25.7559 38.4887 26.0526 40.0176L28.5875 53.3667C28.8032 54.5134 29.6392 54.8956 30.3134 54.8956C30.9876 54.8956 31.8236 54.4546 32.0124 53.3079L35.3833 32.5787C35.653 30.9615 36.8665 29.8442 38.3767 29.8442C38.4036 29.8442 38.4306 29.8442 38.4576 29.8442C40.0217 29.903 41.2352 31.1085 41.397 32.7845L43.932 55.8659C44.0668 57.1303 44.9837 57.6301 45.7118 57.5713C46.4399 57.5713 47.3299 57.1009 47.4377 55.8365L50.9165 17.5243C51.1053 15.466 52.6155 14.5251 53.9638 14.5251H54.0178C55.3662 14.5251 56.8763 15.5248 57.0112 17.6125L61.8114 88.9444C61.8923 90.2088 62.7822 90.7086 63.5103 90.738C64.2654 90.7968 65.1553 90.3558 65.3171 89.0914L70.7646 49.0738C71.0342 47.1332 72.4635 46.2511 73.7579 46.2217H73.7849C75.0794 46.2217 76.4817 47.0744 76.8053 48.9856C76.994 50.1323 77.83 50.5734 78.5042 50.5734C79.1784 50.544 80.0414 50.2205 80.2571 49.0738L83.9247 31.3143C84.3292 29.4031 85.8124 28.6386 87.1068 28.7268C88.4013 28.8151 89.7766 29.7854 89.9384 31.726L91.8801 54.337C91.9879 55.6307 92.9048 56.0717 93.633 56.0717C94.388 56.0717 95.278 55.6013 95.3858 54.3076L99.5388 3.02852C99.7006 0.9409 101.238 0 102.586 0C103.935 0 105.472 0.970303 105.606 3.05792L112.645 96.8245C112.726 98.03 113.589 98.5887 114.398 98.5887C115.207 98.5887 116.07 98.03 116.151 96.8245L121.841 24.6986C122.003 22.611 123.513 21.6701 124.861 21.6407H124.888C126.21 21.6407 127.72 22.5816 127.936 24.6398L130.794 54.5428C130.902 55.7483 131.765 56.2188 132.466 56.2776C133.194 56.2776 134.057 55.9541 134.273 54.7486L138.129 34.5781C138.426 33.0197 139.612 31.9612 141.042 31.9318C142.471 31.9318 143.711 32.9021 144.062 34.4311L147.109 47.3684L145.869 47.7213L142.822 34.7839C142.552 33.696 141.716 33.2843 141.069 33.3431C140.421 33.3431 139.585 33.7842 139.397 34.8721L135.54 55.0426C135.217 56.6892 133.922 57.7771 132.385 57.6889C131.091 57.6301 129.688 56.6598 129.5 54.7192L126.641 24.8162C126.506 23.5225 125.67 23.1109 124.861 23.0814C124.133 23.0814 123.216 23.5519 123.108 24.8456L117.418 96.9715C117.256 99.0591 115.719 100.029 114.371 100.029L114.479 100Z" fill="#D4D727"/>
</g>
<defs>
<clipPath id="clip0_555_9648">
<rect width="159" height="100" fill="white"/>
</clipPath>
</defs>
</svg>
