<svg width="160" height="100" viewBox="0 0 160 100" fill="none" xmlns="http://www.w3.org/2000/svg">
<g id="Layer_1" clip-path="url(#clip0_555_9720)">
<path id="Vector" d="M1.63604 37.2163L0 35.7694L13.4718 26.4044C18.8145 22.6866 26.8669 22.9478 31.8006 26.9872L33.4367 28.3136C35.584 30.062 38.4726 31.0467 41.5146 30.9261C44.5822 30.8658 47.3942 29.8007 49.4136 27.9518L75.8971 3.65521C78.5812 1.18335 82.4669 -0.102824 86.557 -0.00234191C90.6471 0.138333 94.3793 1.74605 96.7822 4.37869L117.565 27.2485C119.38 29.238 122.166 30.5242 125.234 30.7854C128.276 31.0467 131.344 30.2428 133.619 28.615C138.962 24.7967 147.321 25.078 152.254 29.2581L160 35.8297L158.185 37.156L150.439 30.5845C146.375 27.1279 139.703 26.9068 135.28 30.062C132.468 32.0716 128.736 33.0362 124.978 32.7147C121.221 32.3932 117.795 30.8256 115.571 28.3739L94.7627 5.50409C92.7944 3.35377 89.7779 2.0475 86.4291 1.92692C83.1059 1.82644 79.9361 2.89155 77.7632 4.9012L51.2542 29.1978C48.8257 31.4285 45.2724 32.775 41.5657 32.8554C37.8335 32.8956 34.2291 31.7702 31.6217 29.6399L29.9856 28.3136C25.9466 25.0178 19.4025 24.8168 15.0567 27.8313L1.63604 37.2163Z" fill="#D4D727"/>
<path id="Vector_2" d="M1.56079 39.1894L0.078125 37.6419L13.5499 29.6033C18.8415 26.4482 26.8428 26.6693 31.7509 30.1058L33.387 31.2513C37.8094 34.3662 45.3505 34.2054 49.4918 30.9498L75.9752 10.1299C78.6849 7.99964 82.5961 6.85414 86.6607 7.01492C90.6741 7.15559 94.3552 8.52215 96.7326 10.773L117.515 30.367C121.299 33.9442 128.865 34.4868 133.697 31.5326C139.091 28.2368 147.22 28.4779 152.179 32.0752L159.925 37.7022L158.263 39.1291L150.518 33.5021C146.479 30.568 139.628 30.367 135.205 33.0599C129.377 36.617 120.225 35.9538 115.624 31.613L94.8409 12.0189C92.8981 10.1902 89.8816 9.08485 86.5584 8.96427C83.1585 8.86379 79.9375 9.76813 77.7135 11.5165L51.2045 32.3365C46.0663 36.3558 37.1447 36.5366 31.6998 32.7183L30.0637 31.5728C25.9992 28.7191 19.3783 28.5382 15.007 31.1709L1.56079 39.1894Z" fill="#D4D727"/>
<path id="Vector_3" d="M1.48554 41.1789L0.15625 39.531L13.628 32.8389C18.8685 30.2465 26.7931 30.4273 31.6501 33.2609L33.2861 34.2055C37.7597 36.818 45.3775 36.6974 49.5699 33.9442L76.0789 16.601C81.6517 12.9434 91.6725 13.2047 96.6828 17.1436L117.466 33.482C121.275 36.4965 128.918 36.9386 133.801 34.4466C139.143 31.7135 147.196 31.9145 152.129 34.9088L159.875 39.5913L158.367 41.1187L150.621 36.4362C146.531 33.9643 139.603 33.8035 135.155 36.0744C129.276 39.0688 120.38 38.5262 115.727 34.8486L94.9445 18.5101C90.8289 15.2746 82.2652 15.0736 77.6638 18.0881L51.1548 35.4314C46.0677 38.7674 37.2229 38.908 31.829 35.7529L30.193 34.8084C26.0773 32.4169 19.4053 32.2561 14.9573 34.4667L1.48554 41.1789Z" fill="#D4D727"/>
<path id="Vector_4" d="M1.38047 43.1494L0.28125 41.4211L13.7531 36.0754C18.9424 34.0256 26.7647 34.1662 31.5706 36.4171L33.2066 37.1807C37.7313 39.2908 45.4514 39.2105 49.6949 36.9798L76.2039 23.0931C81.7256 20.1992 91.6441 20.4002 96.6033 23.5352L117.386 36.5979C121.246 39.0296 128.966 39.3913 133.926 37.3616C139.217 35.2113 147.167 35.372 152.024 37.7233L159.77 41.4814L158.466 43.1293L150.721 39.3712C146.579 37.3616 139.55 37.241 135.05 39.0698C129.248 41.4412 120.454 40.999 115.827 38.1052L95.044 25.0425C90.8772 22.4299 82.2368 22.2691 77.5588 24.7008L51.0497 38.5875C46.0138 41.2201 37.2712 41.3407 31.9285 38.8487L30.2924 38.0851C26.1256 36.1357 19.3514 36.0151 14.8523 37.8037L1.38047 43.1494Z" fill="#D4D727"/>
<path id="Vector_5" d="M1.25196 45.1159L0.382812 43.3072L13.8546 39.2879C18.9672 37.7606 26.6873 37.8812 31.4165 39.5291L33.0526 40.0918C37.6539 41.6995 45.4763 41.6392 49.7965 39.931L76.3055 29.521C81.7504 27.3707 91.5411 27.5315 96.4237 29.8426L117.207 39.6497C121.067 41.4784 129.068 41.7397 134.002 40.2325C139.216 38.6448 147.064 38.7654 151.87 40.4937L159.616 43.3072L158.593 45.0757L150.848 42.2622C146.655 40.7349 139.498 40.6344 134.922 42.0411C129.196 43.7895 120.504 43.468 115.954 41.3177L95.1711 31.5106C90.9532 29.5211 82.1595 29.4005 77.4303 31.2493L50.9212 41.6593C45.962 43.6087 37.3216 43.6891 32.0556 41.8603L30.4196 41.2976C26.2528 39.8305 19.2229 39.7502 14.7238 41.0966L1.25196 45.1159Z" fill="#D4D727"/>
<path id="Vector_6" d="M1.12914 47.0885L0.515625 45.2195L13.9874 42.5467C18.9978 41.5419 26.6156 41.6223 31.2681 42.7075L32.9042 43.0893C37.6078 44.1745 45.5835 44.1343 49.9804 42.9888L76.4894 36.0556C81.8577 34.6488 91.4694 34.7493 96.2753 36.2766L117.058 42.808C121.046 44.074 129.047 44.2549 134.16 43.2099C139.298 42.1649 146.993 42.2453 151.722 43.3908L159.468 45.2597L158.752 47.1086L151.006 45.2396C146.737 44.1946 139.452 44.1343 134.773 45.0789C129.15 46.2244 120.611 46.0033 116.138 44.5966L95.355 38.0652C91.0604 36.7187 82.0878 36.6183 77.2563 37.8843L50.7473 44.8176C45.8647 46.1038 37.3777 46.144 32.214 44.9382L30.5779 44.5564C26.2578 43.5515 19.2534 43.4912 14.6009 44.4157L1.12914 47.0885Z" fill="#D4D727"/>
<path id="Vector_7" d="M0.970821 49.0376L0.664062 47.1083L14.1359 45.7619C19.0696 45.2795 26.534 45.2996 31.1098 45.8422L32.7459 46.0231C37.5262 46.5858 45.6808 46.5657 50.1544 45.9628L76.6634 42.4861C81.9294 41.8028 91.3367 41.843 96.0403 42.5866L116.823 45.8623C120.913 46.5054 129.094 46.6059 134.308 46.0633C139.344 45.5408 146.911 45.581 151.538 46.1437L159.284 47.0882L158.9 48.9974L151.155 48.0528C146.783 47.5303 139.37 47.4901 134.615 47.9725C129.094 48.5352 120.709 48.4347 116.337 47.7514L95.5546 44.4757C91.1578 43.7924 82.0061 43.7321 77.0724 44.3953L50.5634 47.872C45.7831 48.495 37.4495 48.5352 32.388 47.9323L30.7519 47.7514C26.3551 47.2289 19.1974 47.2088 14.4682 47.671L0.996384 49.0175L0.970821 49.0376Z" fill="#D4D727"/>
<path id="Vector_8" d="M159.074 49.0352H0.8125V50.9644H159.074V49.0352Z" fill="#D4D727"/>
<path id="Vector_9" d="M85.9727 57.9791C82.5472 57.9791 79.1473 57.8183 76.6421 57.4968L50.1331 54.0201C45.634 53.4373 37.5049 53.3971 32.699 53.9598L31.0629 54.1407C26.4871 54.6833 19.0227 54.7033 14.089 54.221L0.617188 52.8746L0.923946 50.9453L14.3957 52.2918C19.1505 52.754 26.3082 52.7339 30.6795 52.2114L32.3155 52.0305C37.4026 51.4276 45.7362 51.4678 50.491 52.0908L77 55.5675C81.9337 56.2106 91.0853 56.1704 95.4822 55.4871L116.265 52.2114C120.636 51.5281 129.021 51.4276 134.543 51.9903C139.297 52.4726 146.736 52.4324 151.082 51.9099L158.828 50.9654L159.211 52.8746L151.466 53.8191C146.839 54.3818 139.246 54.422 134.236 53.8995C129.021 53.377 120.841 53.4574 116.751 54.1005L95.9679 57.3762C93.4882 57.758 89.7049 57.959 85.9215 57.959L85.9727 57.9791Z" fill="#D4D727"/>
<path id="Vector_10" d="M85.9478 64.9725C82.4712 64.9725 78.969 64.651 76.4383 63.9878L49.9293 57.0545C45.5324 55.909 37.5567 55.8487 32.8786 56.954L31.2426 57.3359C26.5645 58.4211 18.9722 58.5014 13.9619 57.4966L0.515625 54.8037L1.12914 52.9146L14.6009 55.5875C19.2534 56.5119 26.2833 56.4516 30.5779 55.4468L32.214 55.0649C37.3777 53.8592 45.8903 53.9194 50.7473 55.1855L77.2563 62.1188C82.0878 63.3849 91.0349 63.3045 95.355 61.9379L116.138 55.4066C120.611 53.9998 129.15 53.7788 134.773 54.9243C139.452 55.8688 146.711 55.8085 151.006 54.7635L158.752 52.8945L159.468 54.7434L151.722 56.6124C146.993 57.7579 139.273 57.8383 134.16 56.7932C129.047 55.7482 121.046 55.9291 117.058 57.1952L96.2753 63.7265C93.7446 64.5304 89.8845 64.9323 85.9989 64.9323L85.9478 64.9725Z" fill="#D4D727"/>
<path id="Vector_11" d="M85.9428 71.9648C82.4151 71.9648 78.8618 71.4624 76.2799 70.4576L49.7709 60.0476C45.4507 58.3595 37.6284 58.2791 33.027 59.8868L31.391 60.4495C26.6618 62.1175 18.9417 62.218 13.829 60.6907L0.382812 56.6915L1.25196 54.8828L14.7238 58.9021C19.2229 60.2486 26.2528 60.1481 30.4196 58.7011L32.0556 58.1384C37.3216 56.2896 45.962 56.39 50.9212 58.3394L77.4303 68.7494C82.1595 70.6183 90.9787 70.4777 95.1711 68.4881L115.954 58.681C120.504 56.5307 129.196 56.2092 134.922 57.9576C139.498 59.3643 146.655 59.2638 150.848 57.7365L158.593 54.923L159.616 56.6915L151.87 59.505C147.064 61.2534 139.216 61.374 134.002 59.7663C129.068 58.259 121.067 58.5404 117.207 60.3491L96.4237 70.1561C93.8418 71.3619 89.9051 71.9849 85.9684 71.9849L85.9428 71.9648Z" fill="#D4D727"/>
<path id="Vector_12" d="M85.9634 78.9778C82.3845 78.9778 78.7801 78.2945 76.1471 76.9279L49.6381 63.0413C45.3946 60.8106 37.6745 60.7101 33.1498 62.8403L31.5138 63.604C26.7079 65.8548 18.8856 65.9955 13.6962 63.9456L0.25 58.5799L1.34922 56.8516L14.821 62.1972C19.3201 63.9858 26.1199 63.8652 30.2612 61.9159L31.8972 61.1522C37.2399 58.6602 45.9825 58.7808 51.0185 61.4135L77.5275 75.3001C82.2056 77.7519 90.8459 77.5911 95.0127 74.9786L115.796 61.9159C120.397 59.022 129.216 58.5598 135.019 60.9512C139.518 62.78 146.574 62.6594 150.689 60.6498L158.435 56.8918L159.739 58.5397L151.993 62.2977C147.111 64.649 139.16 64.8098 133.894 62.6594C128.961 60.6498 121.215 60.9914 117.355 63.4231L96.5721 76.4858C93.9646 78.1337 89.9768 78.9577 85.9889 78.9577L85.9634 78.9778Z" fill="#D4D727"/>
<path id="Vector_13" d="M85.9719 85.9907C82.3419 85.9907 78.7119 85.1467 76.0534 83.3983L49.5443 66.0349C45.352 63.2817 37.7341 63.1611 33.2606 65.7737L31.6245 66.7182C26.7675 69.5518 18.8429 69.7327 13.6025 67.1402L0.15625 60.4682L1.48554 58.8203L14.9573 65.5124C19.4053 67.723 26.0773 67.5623 30.193 65.1708L31.829 64.2263C37.2229 61.0711 46.0677 61.2118 51.1548 64.5478L77.6638 81.9111C82.2652 84.9256 90.8289 84.7246 94.9445 81.4891L115.727 65.1507C120.38 61.4931 129.276 60.9304 135.155 63.9449C139.603 66.2158 146.557 66.055 150.621 63.5832L158.367 58.9007L159.875 60.428L152.129 65.1105C147.196 68.0848 139.169 68.2857 133.801 65.5727C128.918 63.0808 121.275 63.543 117.466 66.5374L96.6828 82.8758C94.0498 84.9457 90.0364 85.9907 85.9974 85.9907H85.9719Z" fill="#D4D727"/>
<path id="Vector_14" d="M85.9705 93.007C82.136 93.007 78.5316 91.8816 75.9752 89.872L49.4662 69.052C45.2994 65.7763 37.7838 65.6356 33.3614 68.7506L31.7254 69.8961C26.8172 73.3326 18.8159 73.5537 13.5244 70.3985L0.078125 62.3599L1.56079 60.8125L15.0326 68.8511C19.4295 71.4636 26.0503 71.2828 30.0893 68.4492L31.7254 67.3037C37.1703 63.4853 46.0919 63.6662 51.2301 67.6855L77.7391 88.5054C79.9631 90.2538 83.1585 91.1582 86.584 91.0577C89.9072 90.9371 92.9236 89.8318 94.8664 88.003L115.649 68.409C120.251 64.0681 129.402 63.3848 135.231 66.962C139.628 69.6549 146.504 69.454 150.543 66.5199L158.289 60.8929L159.95 62.3197L152.205 67.9467C147.245 71.5641 139.116 71.8053 133.722 68.4894C128.891 65.5352 121.324 66.0778 117.541 69.6549L96.7581 89.249C94.3807 91.4998 90.7252 92.8664 86.6862 93.007C86.4561 93.007 86.2261 93.007 85.996 93.007H85.9705Z" fill="#D4D727"/>
<path id="Vector_15" d="M85.969 99.9993C82.109 99.9993 78.4534 98.6931 75.9227 96.3418L49.4136 72.0452C47.3942 70.1963 44.5822 69.1312 41.5146 69.0709C38.4215 68.9503 35.584 69.935 33.4367 71.6834L31.8006 73.0098C26.8669 77.0492 18.7889 77.3104 13.4718 73.5926L0 64.2477L1.63604 62.8008L15.1078 72.1657C19.4536 75.2003 25.9978 74.9792 30.0367 71.6834L31.6728 70.357C34.2547 68.2268 37.8846 67.1014 41.6169 67.1416C45.3491 67.222 48.8768 68.5484 51.3053 70.7992L77.8144 95.0958C80.0128 97.1054 83.1571 98.1907 86.4803 98.0701C89.8035 97.9495 92.8455 96.6432 94.8139 94.4929L115.597 71.6231C117.821 69.1915 121.246 67.6038 125.004 67.2823C128.762 66.9607 132.52 67.9254 135.306 69.935C139.728 73.0902 146.4 72.8691 150.465 69.4125L158.211 62.841L160.026 64.1673L152.28 70.7389C147.346 74.8989 139.013 75.2003 133.644 71.3619C131.369 69.7341 128.302 68.9503 125.26 69.1915C122.192 69.4527 119.406 70.7389 117.591 72.7284L96.8078 95.5982C94.4049 98.2308 90.6726 99.8386 86.5825 99.9792C86.378 99.9792 86.1735 99.9792 85.9946 99.9792L85.969 99.9993Z" fill="#D4D727"/>
</g>
<defs>
<clipPath id="clip0_555_9720">
<rect width="160" height="100" fill="white"/>
</clipPath>
</defs>
</svg>
