<svg width="152" height="72" viewBox="0 0 152 72" fill="none" xmlns="http://www.w3.org/2000/svg">
<g id="Group 3353737">
<g id="Group 48" opacity="0.3">
<path id="Vector" d="M55.7596 42.0588L51.355 42.0588C50.621 39.3843 48.235 37.6016 45.2985 37.6016C41.8115 37.6016 38.875 40.4541 38.875 43.8416C38.875 47.229 41.8115 50.0816 45.2985 50.0816C48.235 50.0816 50.621 48.2988 51.355 45.6243L55.7596 45.6243C56.861 45.6243 57.595 44.7331 57.595 43.8416C57.595 42.7718 56.861 42.0588 55.7596 42.0588Z" fill="white"/>
<path id="Vector_2" d="M35.026 41.7656L21.9265 41.7656C20.8643 41.7656 20.1562 42.8056 20.1562 43.8456C20.1562 45.0936 21.0414 45.9256 21.9265 45.9256L35.026 45.9256C36.0882 45.9256 36.7962 44.8856 36.7962 43.8456C36.7962 42.5976 35.9112 41.7656 35.026 41.7656Z" fill="white"/>
<path id="Vector_3" d="M21.9915 31.0696L26.3962 31.0696C27.1304 33.5656 29.5162 35.5269 32.4527 35.5269C35.9397 35.5269 38.8762 32.6744 38.8762 29.2869C38.8762 25.8994 35.9397 23.0469 32.4527 23.0469C29.5162 23.0469 27.1304 24.8297 26.3962 27.5041L21.9915 27.5041C20.8904 27.5041 20.1562 28.3954 20.1562 29.2869C20.1562 30.1784 21.0739 31.0696 21.9915 31.0696Z" fill="white"/>
<path id="Vector_4" d="M55.8039 27.2031L42.7423 27.2031C41.6689 27.2031 40.9531 28.2431 40.9531 29.2831C40.9531 30.3231 41.8477 31.3631 42.7423 31.3631L55.8039 31.3631C56.8774 31.3631 57.5931 30.3231 57.5931 29.2831C57.5931 28.2431 56.8774 27.2031 55.8039 27.2031Z" fill="white"/>
</g>
<g id="Group 3353765">
<rect id="Rectangle 80" opacity="0.3" x="82" y="2" width="68" height="68" rx="20" stroke="white" stroke-width="4" stroke-dasharray="1 1.5"/>
<g id="Group 49" opacity="0.3">
<path id="Vector_5" d="M102.342 42.9609H96.3882C96.0822 42.9609 95.7887 43.0874 95.5723 43.3124C95.3559 43.5375 95.2344 43.8427 95.2344 44.1609C95.2391 44.4777 95.3622 44.78 95.5776 45.004C95.793 45.228 96.0837 45.356 96.3882 45.3609H102.342C102.597 46.3887 103.173 47.2995 103.979 47.9509C104.785 48.6023 105.775 48.9575 106.796 48.9609H109.104C110.124 48.9575 111.115 48.6023 111.921 47.9509C112.727 47.2995 113.302 46.3887 113.557 45.3609H134.465C134.771 45.3609 135.065 45.2345 135.281 45.0095C135.497 44.7844 135.619 44.4792 135.619 44.1609C135.619 43.8427 135.497 43.5375 135.281 43.3124C135.065 43.0874 134.771 42.9609 134.465 42.9609H113.557C113.302 41.9332 112.727 41.0223 111.921 40.371C111.115 39.7196 110.124 39.3644 109.104 39.3609H106.796C105.775 39.3644 104.785 39.7196 103.979 40.371C103.173 41.0223 102.597 41.9332 102.342 42.9609ZM109.104 41.7609C109.716 41.7609 110.303 42.0138 110.735 42.4639C111.168 42.914 111.411 43.5244 111.411 44.1609C111.411 44.7975 111.168 45.4079 110.735 45.858C110.303 46.3081 109.716 46.5609 109.104 46.5609H106.796C106.193 46.5574 105.615 46.31 105.184 45.871C104.753 45.432 104.504 44.8359 104.488 44.2089V44.1609C104.488 43.5244 104.731 42.914 105.164 42.4639C105.597 42.0138 106.184 41.7609 106.796 41.7609H109.104Z" fill="white"/>
<path id="Vector_6" d="M117.296 28.0859H96.3882C96.0822 28.0859 95.7887 28.2124 95.5723 28.4374C95.3559 28.6625 95.2344 28.9677 95.2344 29.2859C95.2344 29.6042 95.3559 29.9094 95.5723 30.1345C95.7887 30.3595 96.0822 30.4859 96.3882 30.4859H117.296C117.551 31.5137 118.127 32.4245 118.932 33.0759C119.738 33.7273 120.729 34.0825 121.75 34.0859H124.057C125.078 34.0825 126.069 33.7273 126.875 33.0759C127.681 32.4245 128.256 31.5137 128.511 30.4859H134.465C134.771 30.4859 135.065 30.3595 135.281 30.1345C135.497 29.9094 135.619 29.6042 135.619 29.2859C135.614 28.9692 135.491 28.6669 135.276 28.4429C135.06 28.2189 134.77 28.0909 134.465 28.0859H128.511C128.256 27.0582 127.681 26.1473 126.875 25.496C126.069 24.8446 125.078 24.4894 124.057 24.4859H121.75C120.729 24.4894 119.738 24.8446 118.932 25.496C118.127 26.1473 117.551 27.0582 117.296 28.0859ZM124.057 26.8859C124.661 26.8895 125.239 27.1369 125.669 27.5759C126.1 28.0149 126.35 28.611 126.365 29.2379V29.2859C126.365 29.9225 126.122 30.5329 125.689 30.983C125.256 31.4331 124.669 31.6859 124.057 31.6859H121.75C121.138 31.6859 120.551 31.4331 120.118 30.983C119.685 30.5329 119.442 29.9225 119.442 29.2859C119.442 28.6494 119.685 28.039 120.118 27.5889C120.551 27.1388 121.138 26.8859 121.75 26.8859H124.057Z" fill="white"/>
</g>
</g>
<rect id="Rectangle 79" opacity="0.3" x="2" y="2" width="70.88" height="68" rx="20" stroke="white" stroke-width="4"/>
</g>
</svg>
