<svg width="152" height="72" viewBox="0 0 152 72" fill="none" xmlns="http://www.w3.org/2000/svg">
<g id="Group 3353736">
<rect id="Rectangle 77" opacity="0.3" x="2" y="2" width="70.88" height="68" rx="20" stroke="white" stroke-width="4" stroke-dasharray="1 1.5"/>
<path id="Vector" opacity="0.3" d="M38.7768 27.3633C36.0244 27.3633 33.607 28.7909 32.2221 30.9427C31.5294 30.7596 30.8026 30.6621 30.0543 30.6621C25.3817 30.6621 21.5938 34.4501 21.5938 39.1227C21.5938 43.7954 25.3817 47.5833 30.0543 47.5833H46.8284C50.3893 47.5833 53.276 44.6965 53.276 41.1356C53.276 37.5746 50.3893 34.6879 46.8284 34.6879C46.7361 34.6879 46.6444 34.6899 46.5531 34.6937C46.3155 30.6054 42.9247 27.3633 38.7768 27.3633Z" fill="white"/>
<g id="Group 3353764">
<rect id="Rectangle 78" opacity="0.3" x="82" y="2" width="68" height="68" rx="20" stroke="white" stroke-width="4"/>
<g id="Group 52" opacity="0.3">
<path id="Vector_2" d="M127.81 27.6169C127.378 25.2631 125.218 23.6016 122.77 23.6016H108.946C106.498 23.6016 104.338 25.2631 103.906 27.6169L101.602 39.2477C102.61 38.2785 104.338 37.7246 105.922 37.7246H125.794C127.378 37.7246 129.106 38.2785 130.114 39.2477L127.81 27.6169Z" fill="white"/>
<path id="Vector_3" d="M129.54 44.0922V47.6922C129.54 49.6306 127.812 51.2922 125.796 51.2922H105.924C103.908 51.2922 102.18 49.6306 102.18 47.6922V44.0922C102.18 43.5383 102.468 42.5691 102.756 42.1537C103.476 41.1845 104.484 40.4922 105.924 40.4922H125.796C127.092 40.4922 128.244 41.1845 128.964 42.1537C129.396 42.7076 129.54 43.5383 129.54 44.0922Z" fill="white"/>
<path id="Vector_4" d="M109.955 47.1403H107.651C106.787 47.1403 106.211 46.5865 106.211 45.7557C106.211 44.9249 106.787 44.3711 107.651 44.3711H109.955C110.819 44.3711 111.395 44.9249 111.395 45.7557C111.395 46.5865 110.819 47.1403 109.955 47.1403Z" fill="black"/>
</g>
</g>
</g>
</svg>
