<svg width="72" height="152" viewBox="0 0 72 152" fill="none" xmlns="http://www.w3.org/2000/svg">
<g id="Group 57">
<g id="Group 48" opacity="0.3">
<path id="Vector" d="M29.9412 55.7635L29.9412 51.3589C32.6157 50.6249 34.3984 48.2389 34.3984 45.3024C34.3984 41.8154 31.5459 38.8789 28.1584 38.8789C24.771 38.8789 21.9184 41.8154 21.9184 45.3024C21.9184 48.2389 23.7012 50.6249 26.3757 51.3589L26.3757 55.7635C26.3757 56.8649 27.2669 57.5989 28.1584 57.5989C29.2282 57.5989 29.9412 56.8649 29.9412 55.7635Z" fill="white"/>
<path id="Vector_2" d="M30.2344 35.0299L30.2344 21.9304C30.2344 20.8683 29.1944 20.1602 28.1544 20.1602C26.9064 20.1602 26.0744 21.0453 26.0744 21.9304L26.0744 35.0299C26.0744 36.0921 27.1144 36.8002 28.1544 36.8002C29.4024 36.8002 30.2344 35.9151 30.2344 35.0299Z" fill="white"/>
<path id="Vector_3" d="M40.9304 21.9954L40.9304 26.4002C38.4344 27.1343 36.4731 29.5202 36.4731 32.4566C36.4731 35.9436 39.3256 38.8802 42.7131 38.8802C46.1006 38.8802 48.9531 35.9436 48.9531 32.4566C48.9531 29.5202 47.1703 27.1343 44.4959 26.4002L44.4959 21.9954C44.4959 20.8943 43.6046 20.1602 42.7131 20.1602C41.8216 20.1602 40.9304 21.0778 40.9304 21.9954Z" fill="white"/>
<path id="Vector_4" d="M44.7969 55.8078L44.7969 42.7462C44.7969 41.6728 43.7569 40.957 42.7169 40.957C41.6769 40.957 40.6369 41.8516 40.6369 42.7462L40.6369 55.8078C40.6369 56.8813 41.6769 57.597 42.7169 57.597C43.7569 57.597 44.7969 56.8813 44.7969 55.8078Z" fill="white"/>
</g>
<g id="Group 3353765">
<rect id="Rectangle 80" opacity="0.3" x="70" y="82" width="68" height="68" rx="20" transform="rotate(90 70 82)" stroke="white" stroke-width="4" stroke-dasharray="1 1.5"/>
<g id="Group 49" opacity="0.3">
<path id="Vector_5" d="M29.0391 102.338V96.3843C29.0391 96.0783 28.9126 95.7848 28.6876 95.5684C28.4625 95.352 28.1573 95.2305 27.8391 95.2305C27.5223 95.2352 27.22 95.3583 26.996 95.5737C26.772 95.7891 26.644 96.0798 26.6391 96.3843V102.338C25.6113 102.593 24.7005 103.169 24.0491 103.975C23.3977 104.781 23.0425 105.771 23.0391 106.792V109.1C23.0425 110.12 23.3977 111.111 24.0491 111.917C24.7005 112.723 25.6113 113.298 26.6391 113.554V134.461C26.6391 134.767 26.7655 135.061 26.9905 135.277C27.2156 135.494 27.5208 135.615 27.8391 135.615C28.1573 135.615 28.4625 135.494 28.6876 135.277C28.9126 135.061 29.0391 134.767 29.0391 134.461V113.554C30.0668 113.298 30.9777 112.723 31.629 111.917C32.2804 111.111 32.6356 110.12 32.6391 109.1V106.792C32.6356 105.771 32.2804 104.781 31.629 103.975C30.9777 103.169 30.0668 102.593 29.0391 102.338ZM30.2391 109.1C30.2391 109.712 29.9862 110.299 29.5361 110.731C29.086 111.164 28.4756 111.407 27.8391 111.407C27.2025 111.407 26.5921 111.164 26.142 110.731C25.6919 110.299 25.4391 109.712 25.4391 109.1V106.792C25.4426 106.189 25.69 105.611 26.129 105.18C26.568 104.749 27.1641 104.5 27.7911 104.484H27.8391C28.4756 104.484 29.086 104.727 29.5361 105.16C29.9862 105.593 30.2391 106.18 30.2391 106.792V109.1Z" fill="white"/>
<path id="Vector_6" d="M43.9141 117.292V96.3843C43.9141 96.0783 43.7876 95.7848 43.5626 95.5684C43.3375 95.352 43.0323 95.2305 42.7141 95.2305C42.3958 95.2305 42.0906 95.352 41.8655 95.5684C41.6405 95.7848 41.5141 96.0783 41.5141 96.3843V117.292C40.4863 117.547 39.5755 118.123 38.9241 118.929C38.2727 119.734 37.9175 120.725 37.9141 121.746V124.054C37.9175 125.074 38.2727 126.065 38.9241 126.871C39.5755 127.677 40.4863 128.252 41.5141 128.507V134.461C41.5141 134.767 41.6405 135.061 41.8655 135.277C42.0906 135.494 42.3958 135.615 42.7141 135.615C43.0308 135.61 43.3331 135.487 43.5571 135.272C43.7811 135.056 43.9091 134.766 43.9141 134.461V128.507C44.9418 128.252 45.8527 127.677 46.504 126.871C47.1554 126.065 47.5106 125.074 47.5141 124.054V121.746C47.5106 120.725 47.1554 119.734 46.504 118.929C45.8527 118.123 44.9418 117.547 43.9141 117.292ZM45.1141 124.054C45.1105 124.657 44.8631 125.235 44.4241 125.665C43.9851 126.096 43.389 126.346 42.7621 126.361H42.7141C42.0775 126.361 41.4671 126.118 41.017 125.685C40.5669 125.253 40.3141 124.666 40.3141 124.054V121.746C40.3141 121.134 40.5669 120.547 41.017 120.114C41.4671 119.681 42.0775 119.438 42.7141 119.438C43.3506 119.438 43.961 119.681 44.4111 120.114C44.8612 120.547 45.1141 121.134 45.1141 121.746V124.054Z" fill="white"/>
</g>
</g>
<rect id="Rectangle 79" opacity="0.3" x="70" y="2" width="70.88" height="68" rx="20" transform="rotate(90 70 2)" stroke="white" stroke-width="4"/>
</g>
</svg>
