<svg width="152" height="72" viewBox="0 0 152 72" fill="none" xmlns="http://www.w3.org/2000/svg">
<g id="Group 3353735">
<rect id="Rectangle 78" opacity="0.3" x="2" y="2" width="70.88" height="68" rx="20" stroke="white" stroke-width="4" stroke-dasharray="1 1.5"/>
<g id="Group 3353766">
<rect id="Rectangle 79" opacity="0.3" x="82" y="2" width="68" height="68" rx="20" stroke="white" stroke-width="4"/>
<path id="+" opacity="0.3" d="M113.783 38.1866L104.922 38.1866L104.922 33.8222L113.783 33.8222L113.783 24.4844L118.214 24.4844L118.214 33.8222L127.076 33.8222L127.076 38.1866L118.214 38.1866L118.214 47.5244L113.783 47.5244L113.783 38.1866Z" fill="white"/>
</g>
<path id="Ellipse 13" opacity="0.3" d="M37.4419 24.9756C43.528 24.9756 48.4619 29.9094 48.4619 35.9956C48.4619 42.0818 43.528 47.0156 37.4419 47.0156C31.3557 47.0156 26.4219 42.0818 26.4219 35.9956C26.4219 29.9094 31.3557 24.9756 37.4419 24.9756Z" stroke="white"/>
</g>
</svg>
