<svg width="32" height="32" viewBox="0 0 32 32" fill="none" xmlns="http://www.w3.org/2000/svg">
<g id="Shield-Check">
<path id="Vector" d="M14.481 20.0782L21.8789 12.7014L20.4667 11.2852L14.481 17.2538L11.5294 14.3107L10.1172 15.7268L14.481 20.0782Z" fill="white"/>
<path id="Vector_2" fill-rule="evenodd" clip-rule="evenodd" d="M20.808 4.97242L16.0052 2.91406L11.2024 4.97242L5.67188 4.18236V15.8684C5.67188 20.4313 8.12591 24.6414 12.0962 26.8901L16.0929 29.1538L19.9988 26.9017C23.9215 24.64 26.3385 20.4564 26.3385 15.9284V4.18236L20.808 4.97242ZM11.4747 7.03164L16.0052 5.09L20.5357 7.03164L24.3385 6.48837V15.9284C24.3385 19.7414 22.3032 23.2645 18.9999 25.1692L16.0841 26.8502L13.0818 25.1498C9.73843 23.2562 7.67187 19.7108 7.67187 15.8684V6.48837L11.4747 7.03164Z" fill="white"/>
</g>
</svg>
