<svg width="32" height="32" viewBox="0 0 32 32" fill="none" xmlns="http://www.w3.org/2000/svg">
<g id="Frame 177099">
<path id="Vector" fill-rule="evenodd" clip-rule="evenodd" d="M18.6679 4.07379C19.0167 4.21875 19.2432 4.55304 19.2432 4.92309V13.5362H24.1993C24.5356 13.5362 24.8466 13.7105 25.0162 13.9941C25.1857 14.2775 25.1882 14.6277 25.0227 14.9134L24.4022 15.9852C22.0489 20.05 19.0476 23.7234 15.5112 26.8674L14.508 27.7593C14.231 28.0055 13.8314 28.069 13.4888 27.9213C13.1462 27.7735 12.9252 27.4424 12.9252 27.0768V18.5368H7.80519C7.28283 18.5368 6.85938 18.1235 6.85938 17.6137C6.85938 17.4486 6.9038 17.2936 6.98161 17.1595C9.19959 13.1577 12.0393 9.51529 15.3997 6.36178L17.6419 4.25771C17.9152 4.00123 18.319 3.92883 18.6679 4.07379ZM9.42515 16.6907H13.871C14.3933 16.6907 14.8168 17.1038 14.8168 17.6137V24.9778C17.8669 22.1649 20.4812 18.9325 22.5767 15.3824H18.2974C17.775 15.3824 17.3516 14.9691 17.3516 14.4593V7.09123L16.7108 7.69255C13.8724 10.3562 11.4217 13.3839 9.42515 16.6907Z" fill="white"/>
</g>
</svg>
