<svg width="32" height="32" viewBox="0 0 32 32" fill="none" xmlns="http://www.w3.org/2000/svg">
<g id="directions_bus">
<path id="Union" fill-rule="evenodd" clip-rule="evenodd" d="M8.69233 27.332C8.409 27.332 8.1715 27.2361 7.97983 27.0445C7.78817 26.8528 7.69233 26.6153 7.69233 26.332V23.7012C7.27524 23.385 6.88892 22.9375 6.53337 22.3589C6.17779 21.7803 6 21.1303 6 20.4089V7.99867C6 6.3848 6.80206 5.20357 8.40617 4.45497C10.0103 3.70634 12.5414 3.33203 15.9995 3.33203C19.5827 3.33203 22.1452 3.69175 23.6871 4.4112C25.229 5.13064 25.9999 6.32647 25.9999 7.99867V20.4089C25.9999 21.1303 25.8221 21.7803 25.4666 22.3589C25.111 22.9375 24.7247 23.385 24.3076 23.7012V26.332C24.3076 26.6153 24.2118 26.8528 24.0201 27.0445C23.8284 27.2361 23.5909 27.332 23.3076 27.332H22.4871C22.2038 27.332 21.9663 27.2361 21.7746 27.0445C21.583 26.8528 21.4872 26.6153 21.4872 26.332V24.6653H10.5128V26.332C10.5128 26.6153 10.4169 26.8528 10.2253 27.0445C10.0336 27.2361 9.79613 27.332 9.5128 27.332H8.69233ZM11.3363 21.0756C11.8215 21.0756 12.2329 20.9058 12.5705 20.5661C12.9081 20.2265 13.0769 19.8141 13.0769 19.329C13.0769 18.8438 12.9071 18.4324 12.5674 18.0948C12.2278 17.7572 11.8154 17.5884 11.3303 17.5884C10.8451 17.5884 10.4337 17.7582 10.0961 18.0979C9.75853 18.4375 9.58973 18.8499 9.58973 19.335C9.58973 19.8202 9.75954 20.2316 10.0992 20.5692C10.4388 20.9068 10.8512 21.0756 11.3363 21.0756ZM20.6697 21.0756C21.1548 21.0756 21.5662 20.9058 21.9038 20.5661C22.2414 20.2265 22.4102 19.8141 22.4102 19.329C22.4102 18.8438 22.2404 18.4324 21.9008 18.0948C21.5612 17.7572 21.1488 17.5884 20.6636 17.5884C20.1784 17.5884 19.7671 17.7582 19.4295 18.0979C19.0919 18.4375 18.9231 18.8499 18.9231 19.335C18.9231 19.8202 19.0929 20.2316 19.4325 20.5692C19.7721 20.9068 20.1845 21.0756 20.6697 21.0756ZM10.6666 22.6653H21.3333C22.0666 22.6653 22.6944 22.4042 23.2166 21.882C23.7389 21.3598 24 20.732 24 19.9987L24 15.499V9.02433C24 9.02433 23.9949 7.55601 23.7128 7.02437C23.4308 6.49272 22.7163 6.07775 21.5692 5.77946C20.4222 5.48117 18.5795 5.33203 16.041 5.33203C13.5436 5.33203 11.7214 5.48802 10.5743 5.8C9.42733 6.11195 8.69229 6.52008 8.3692 7.02437C8.04611 7.52865 8 9.02433 8 9.02433V12L7.99997 15.9987V19.9987C7.99997 20.732 8.26108 21.3598 8.7833 21.882C9.30552 22.4042 9.9333 22.6653 10.6666 22.6653ZM16 14C10 14 8 12 8 12V14C8 14 9.35879 15.3588 13.1964 15.8364C14.0146 15.9382 14.9455 16 16 16C17.674 16 19.0366 15.8443 20.1313 15.6198C22.9603 15.0397 24 14 24 14V12C24 12 22 14 16 14Z" fill="white"/>
</g>
</svg>
