<svg width="32" height="32" viewBox="0 0 32 32" fill="none" xmlns="http://www.w3.org/2000/svg">
<g id="Bank">
<path id="Vector" fill-rule="evenodd" clip-rule="evenodd" d="M15.2222 3.19527C15.7304 3.03908 16.2738 3.03908 16.782 3.19527L20.7629 4.41881C22.8398 5.05714 24.8121 5.99563 26.6176 7.20449C28.0217 8.14475 27.3561 10.3351 25.6662 10.3351H6.33799C4.64806 10.3351 3.98246 8.14475 5.38666 7.20451C7.19203 5.99563 9.16443 5.05714 11.2413 4.41881L15.2222 3.19527ZM16.1944 5.107C16.069 5.06849 15.9352 5.06849 15.8098 5.107L11.8289 6.33056C10.2544 6.81445 8.74599 7.48784 7.33637 8.33508H24.6678C23.2582 7.48784 21.7497 6.81445 20.1753 6.33056L16.1944 5.107Z" fill="white"/>
<path id="Vector_2" d="M5.67188 28C5.67188 27.4477 6.11959 27 6.67187 27H25.3385C25.8908 27 26.3385 27.4477 26.3385 28C26.3385 28.5523 25.8908 29 25.3385 29H6.67187C6.11959 29 5.67188 28.5523 5.67188 28Z" fill="white"/>
<path id="Vector_3" d="M8.32812 22.668C8.32812 23.2202 8.77585 23.668 9.32812 23.668C9.88041 23.668 10.3281 23.2202 10.3281 22.668V14.668C10.3281 14.1157 9.88041 13.668 9.32812 13.668C8.77585 13.668 8.32812 14.1157 8.32812 14.668V22.668Z" fill="white"/>
<path id="Vector_4" d="M16 23.668C15.4477 23.668 15 23.2202 15 22.668V14.668C15 14.1157 15.4477 13.668 16 13.668C16.5523 13.668 17 14.1157 17 14.668V22.668C17 23.2202 16.5523 23.668 16 23.668Z" fill="white"/>
<path id="Vector_5" d="M21.6719 22.668C21.6719 23.2202 22.1196 23.668 22.6719 23.668C23.2241 23.668 23.6719 23.2202 23.6719 22.668V14.668C23.6719 14.1157 23.2241 13.668 22.6719 13.668C22.1196 13.668 21.6719 14.1157 21.6719 14.668V22.668Z" fill="white"/>
</g>
</svg>
