<svg width="32" height="32" viewBox="0 0 32 32" fill="none" xmlns="http://www.w3.org/2000/svg">
<g id="Medikit">
<path id="Vector" d="M12.6719 16.3333C12.1196 16.3333 11.6719 16.7811 11.6719 17.3333C11.6719 17.8856 12.1196 18.3333 12.6719 18.3333H15.0052V20.6667C15.0052 21.2189 15.4529 21.6667 16.0052 21.6667C16.5575 21.6667 17.0052 21.2189 17.0052 20.6667V18.3333H19.3385C19.8908 18.3333 20.3385 17.8856 20.3385 17.3333C20.3385 16.7811 19.8908 16.3333 19.3385 16.3333H17.0052V14C17.0052 13.4477 16.5575 13 16.0052 13C15.4529 13 15.0052 13.4477 15.0052 14V16.3333H12.6719Z" fill="white"/>
<path id="Subtract" fill-rule="evenodd" clip-rule="evenodd" d="M9.66913 7.9314V6.28101C9.66913 5.12671 10.5142 4.14526 11.6564 3.97437L13.2829 3.73022C15.0858 3.45972 16.9191 3.45972 18.7221 3.73022L20.3486 3.97437C21.4909 4.14526 22.3358 5.12671 22.3358 6.28101V7.9314C22.8282 7.96851 23.3204 8.0105 23.8122 8.0564C26.0375 8.26343 27.7393 10.1306 27.7393 12.366V22.9666C27.7393 25.2019 26.0375 27.0691 23.8122 27.2771C18.6169 27.7605 13.3879 27.7605 8.19275 27.2771C5.96735 27.0691 4.26562 25.2019 4.26562 22.9666V12.366C4.26562 10.1306 5.96735 8.26343 8.19275 8.0564C8.68463 8.0105 9.17676 7.96851 9.66913 7.9314ZM13.5795 5.70776C15.1858 5.46655 16.8192 5.46655 18.4254 5.70776L20.0519 5.9519C20.13 5.96362 20.1983 6.00171 20.2484 6.0564C20.3029 6.11597 20.3358 6.19507 20.3358 6.28101V7.80444C17.4489 7.65601 14.5561 7.65601 11.6691 7.80444V6.28101C11.6691 6.11597 11.7899 5.97632 11.953 5.9519L13.5795 5.70776ZM8.37823 10.0476C13.4501 9.57495 18.5549 9.57495 23.6266 10.0476C24.8238 10.1589 25.7393 11.1638 25.7393 12.366V22.9666C25.7393 24.1697 24.8238 25.1736 23.6266 25.2859C18.5549 25.7576 13.4501 25.7576 8.37823 25.2859C7.18109 25.1736 6.26562 24.1697 6.26562 22.9666V12.366C6.26562 11.1638 7.18109 10.1589 8.37823 10.0476Z" fill="white"/>
</g>
</svg>
