<svg width="32" height="32" viewBox="0 0 32 32" fill="none" xmlns="http://www.w3.org/2000/svg">
<g id="Pie-Chart">
<path id="Vector" fill-rule="evenodd" clip-rule="evenodd" d="M3 16C3 8.82029 8.82029 3 16 3C23.1797 3 29 8.82029 29 16C29 19.5896 27.5439 22.8409 25.1924 25.1924C22.8409 27.5439 19.5896 29 16 29C8.82029 29 3 23.1797 3 16ZM15 5.04484C9.39351 5.55007 5 10.262 5 16C5 22.0751 9.92487 27 16 27C18.6779 27 21.1311 26.0441 23.0391 24.4533L15 16.4143V5.04484ZM17 5.04484V15H26.9552C26.4796 9.72287 22.2772 5.52039 17 5.04484ZM26.9552 17H18.4143L24.4533 23.0391C25.8439 21.3712 26.7493 19.2869 26.9552 17Z" fill="white"/>
</g>
</svg>
